<svg width="74" height="36" viewBox="0 0 74 36" fill="none" xmlns="http://www.w3.org/2000/svg">
<path d="M42.65 5.69997C42.65 5.69997 47.07 8.20998 47.57 18.36C48.21 31.47 57.57 35.51 65.18 33.03C70.3 31.37 75.41 25.08 73.25 12.2C73.25 12.2 67.8 20.68 61.98 21.5C55.29 22.45 54.56 17.93 51.89 12.42C49.2 6.86997 47.57 4.85998 42.76 3.96998C42.25 3.78998 42.65 5.69997 42.65 5.69997Z" fill="#D1D1D1"/>
<path d="M16.45 18.96C16.34 22.8 15.3 30.41 15.3 30.41C14.31 30.57 14.26 31.82 14.26 31.82L10.22 32.01C9.86005 29.67 12.38 29.62 12.48 29.52C12.48 29.52 11.56 22.87 11.26 19.54L16.45 18.96Z" fill="#D1D1D1"/>
<path d="M27.35 13.87C27.35 13.87 23.94 18.72 31.59 24.07C31.59 24.07 35.68 28.61 31.96 29.18C30.07 29.47 28.6 29.65 28.76 32.25H36.56L36.83 22.86C36.83 22.86 34.42 22.49 38.4 15.36C38.41 15.36 34.98 8.21995 27.35 13.87Z" fill="#D1D1D1"/>
<path d="M47.05 5.28997C42.32 1.44998 38.67 0.789973 21.79 6.45997C19.75 7.13997 18.22 6.55998 12.88 5.72998C7.53001 4.88998 3.25001 13.38 5.96001 16.74C6.21001 17.05 10.7 24.44 19.37 24.49C30.22 24.3 33.2 21.17 36.3 17.19C36.3 17.19 44.08 21.68 46.44 19.05C50.79 14.21 49.84 7.54997 47.05 5.28997Z" fill="#E3E3E3"/>
<path d="M9.41002 24.71C9.41002 24.71 22.56 18.82 18.17 7.64998C15.16 0.00998402 4.69002 1.96998 2.04002 5.06998C-1.00998 8.63998 -0.249975 19.21 9.41002 24.71Z" fill="#D9D9D9"/>
<path d="M1.57001 6.78998C1.57001 6.78998 -0.0299928 1.66998 1.89001 0.72998C4.03001 -0.32002 6.86001 4.37997 6.86001 4.37997L1.57001 6.78998Z" fill="#525252"/>
<path d="M14.44 7.22999C14.44 7.22999 16.03 1.95999 13.99 1.01999C11.83 0.0299876 9.19 4.73999 9.19 4.73999L14.44 7.22999Z" fill="#525252"/>
<path d="M1.90004 6.78999C1.90004 6.78999 1.01004 2.57999 2.49004 1.71999C4.03004 0.829989 6.62004 5.10999 6.62004 5.10999L1.90004 6.78999Z" fill="#A6A6A6"/>
<path d="M14.18 7.22996C14.18 7.22996 15.16 2.61996 13.53 1.90996C11.94 1.21996 9.48999 5.29996 9.48999 5.29996L14.18 7.22996Z" fill="#A6A6A6"/>
<path d="M8.13002 21.24C8.13002 21.24 18.37 17.09 14.88 9.06995C12.49 3.57995 4.33002 4.92995 2.27002 7.13995C-0.0799804 9.67995 0.56002 17.25 8.13002 21.24Z" fill="#EDEDED"/>
<path d="M5.36002 17.54C10.43 15.18 8.61001 16.72 12.28 15.22C14.38 14.36 14.95 11.7 14.97 9.31999C14.98 8.40999 14.75 7.41 14.47 6.66C13.49 4.08 6.47001 1.26 2.49001 4.94C1.99001 5.4 1.30002 6.72999 1.03002 7.55999C0.590015 8.94999 0.350018 10.48 1.33002 12.38C2.90002 15.42 2.60002 16.11 2.80002 16.5C3.02002 16.93 3.88002 18.23 5.36002 17.54Z" fill="#D1D1D1"/>
<path d="M5.36002 17.54C5.36002 17.54 3.67001 18.44 2.81001 16.51C2.81001 16.51 1.98002 13.79 1.04002 11.97C0.640016 11.2 0.640015 10.36 0.640015 10.36C0.640015 10.36 1.48001 13.2 2.95001 12.68C2.95001 12.68 3.65001 11.99 3.92001 9.45996C3.68001 7.96996 5.99001 7.34996 5.64001 9.45996C5.30001 11.57 5.12002 11.72 5.43002 13C5.60002 13.69 12.77 16.36 14.98 10.26C14.98 10.26 15.1 13.65 13.37 14.75C11.64 15.85 10.91 15.86 10.07 16.06C8.86001 16.33 5.93002 17.25 5.36002 17.54Z" fill="white"/>
<path d="M4.72387 15.1825C4.79818 14.8087 4.3227 14.3992 3.66185 14.2678C3.00099 14.1364 2.40503 14.3329 2.33072 14.7067C2.25641 15.0804 2.73189 15.4899 3.39274 15.6213C4.05359 15.7527 4.64956 15.5562 4.72387 15.1825Z" fill="#212121"/>
<path d="M3.66006 15.58C3.62006 15.8 3.58005 16.03 3.56005 16.25C3.55005 16.36 3.55005 16.48 3.56005 16.53C3.50005 16.51 3.59006 16.58 3.69006 16.63C3.89006 16.72 4.11005 16.8 4.34005 16.83C4.56005 16.86 4.81005 16.87 4.99005 16.69C4.86005 16.91 4.58005 16.99 4.34005 17.01C4.09005 17.04 3.84006 17.03 3.58006 16.98C3.51006 16.97 3.45005 16.95 3.38005 16.92C3.33005 16.92 3.16005 16.79 3.14005 16.7C3.06005 16.53 3.04005 16.41 3.02005 16.28C2.97005 16.02 2.95005 15.78 2.93005 15.52L3.66006 15.58Z" fill="#1D1D1B"/>
<path d="M6.33002 11.5699C6.33002 11.5699 6.38001 9.45992 7.38001 9.00992C8.38001 8.55992 9.57001 8.71992 10.34 9.00992C10.34 9.00992 9.77002 10.4899 9.58002 10.7799C9.39002 11.0699 7.57002 11.7199 6.33002 11.5699Z" fill="#A3A3A3"/>
<path d="M3.30003 11.0599C3.30003 11.0599 3.89002 9.53994 3.31002 8.95994C2.73003 8.36994 1.83002 8.17995 1.20002 8.18995C1.20002 8.18995 1.17003 9.38995 1.22003 9.64995C1.27003 9.89995 2.38003 10.8399 3.30003 11.0599Z" fill="#A3A3A3"/>
<path d="M6.89001 11.18C6.89001 11.18 6.92001 9.79997 7.56001 9.49997C8.20001 9.19997 8.95002 9.30997 9.44002 9.49997C9.44002 9.49997 9.08001 10.46 8.96001 10.66C8.83001 10.85 7.68001 11.27 6.89001 11.18Z" fill="#1D1D1B"/>
<path d="M3.12003 10.72C3.12003 10.72 3.49002 9.69999 3.10002 9.28999C2.71002 8.88999 2.11002 8.74999 1.70002 8.73999C1.70002 8.73999 1.69003 9.56 1.73003 9.73C1.77003 9.92 2.51003 10.56 3.12003 10.72Z" fill="#1D1D1B"/>
<path d="M21.24 22.09C21.13 25.93 20.09 33.54 20.09 33.54C19.1 33.7 19.05 34.95 19.05 34.95L15.01 35.14C14.65 32.8 17.17 32.75 17.27 32.65C17.27 32.65 16.35 26 16.05 22.67L21.24 22.09Z" fill="#E3E3E3"/>
<path d="M35.37 17.39C35.37 17.39 31.96 22.24 39.61 27.59C39.61 27.59 43.7 32.13 39.98 32.7C38.09 32.99 36.62 33.17 36.78 35.77H44.58L44.85 26.38C44.85 26.38 42.44 26.01 46.42 18.88C46.43 18.88 43 11.75 35.37 17.39Z" fill="#E3E3E3"/>
<path d="M8.13 10.84C8.57736 10.84 8.94001 10.5355 8.94001 10.16C8.94001 9.78443 8.57736 9.47998 8.13 9.47998C7.68265 9.47998 7.32001 9.78443 7.32001 10.16C7.32001 10.5355 7.68265 10.84 8.13 10.84Z" fill="#383027"/>
<path d="M3.06808 9.84552C3.1775 9.56808 3.01213 9.24296 2.69872 9.11935C2.38531 8.99575 2.04253 9.12046 1.93311 9.39791C1.82369 9.67535 1.98906 10.0005 2.30247 10.1241C2.61588 10.2477 2.95866 10.123 3.06808 9.84552Z" fill="#383027"/>
<path d="M2.17999 9.72996C2.17999 9.72996 1.93999 9.27995 2.31999 9.19995C2.30999 9.19995 2.17999 9.55996 2.17999 9.72996Z" fill="#A3A3A3"/>
<path d="M7.70004 10.5C7.70004 10.5 7.39005 9.85998 7.87005 9.72998C7.87005 9.72998 7.70004 10.24 7.70004 10.5Z" fill="#A3A3A3"/>
<path d="M3.67004 14.55C3.67004 14.55 4.47005 14.5 4.48005 14.96C4.48005 14.96 3.95004 14.63 3.67004 14.55Z" fill="#A3A3A3"/>
<path d="M6.89999 21.23L4.73999 20.3C4.73999 20.3 5.55 23.05 7.12 23.88C7.13 23.88 6.21999 21.9 6.89999 21.23Z" fill="#D9D9D9"/>
<path d="M5.15002 19.31L3.15002 18.08C3.15002 18.08 3.56002 20.92 4.99002 21.97C4.99002 21.97 4.38002 19.88 5.15002 19.31Z" fill="#D9D9D9"/>
<path d="M21.89 23.91C21.89 23.91 25.02 24.88 25.93 24.55C25.93 24.55 23.59 23.41 23.38 23.1C23.16 22.79 21.89 23.91 21.89 23.91Z" fill="#E3E3E3"/>
<path d="M23.31 23.93C23.31 23.93 26.8 24.39 27.73 23.91C27.73 23.91 25.06 23.15 24.79 22.86C24.52 22.57 23.31 23.93 23.31 23.93Z" fill="#E3E3E3"/>
<path d="M51.69 28.77C51.69 28.77 54.31 33.44 56.03 33.73C56.03 33.73 54.35 31.2 54.75 29.54C55.15 27.88 51.69 28.77 51.69 28.77Z" fill="#D1D1D1"/>
<path d="M54.27 32.21C54.27 32.21 58.9 34.94 60.59 34.3C60.59 34.3 57.85 32.96 57.39 31.3C56.93 29.64 54.27 32.21 54.27 32.21Z" fill="#D1D1D1"/>
<path d="M14.25 16.24C14.25 16.24 13.46 18.67 12.39 19.08C12.39 19.08 13.08 17.56 12.62 17.08C12.16 16.6 14.25 16.24 14.25 16.24Z" fill="#EDEDED"/>
<path d="M12.55 17.54C12.55 17.54 11.43 20.31 10.2 20.69C10.2 20.69 11.11 18.98 10.66 18.38C10.2 17.78 12.55 17.54 12.55 17.54Z" fill="#EDEDED"/>
<path d="M3.15001 12.38C3.15001 12.38 2.64 14.08 2.2 14.75C2.2 14.75 1.33001 12.56 1.03001 11.97C0.630006 11.2 0.630005 10.36 0.630005 10.36C0.630005 10.36 1.86001 13.54 3.15001 12.38Z" fill="#F0F0F0"/>
<path d="M73.45 19.36C73.45 19.36 74.12 16.53 73.98 14.49C73.98 14.49 73.34 16.72 72.28 17.48C71.2 18.25 73.45 19.36 73.45 19.36Z" fill="#D1D1D1"/>
</svg>
