<svg width="736" height="550" viewBox="0 0 736 550" fill="none" xmlns="http://www.w3.org/2000/svg">
<path d="M736 0H0V56.7524H736V0Z" fill="#B5C7CF"/>
<path d="M736 56.7524H0V222.311H736V56.7524Z" fill="#B5C7CF"/>
<path opacity="0.21" d="M0 84.7438L121.19 158.041L159.74 183.243L182.88 155.602L0 68.6887V84.7438Z" fill="#D5E1EB"/>
<path opacity="0.21" d="M0.849976 41.7671L440.2 176.085L486.43 190.921L504.27 142.646L0.849976 19.0941V41.7671Z" fill="#D5E1EB"/>
<path opacity="0.21" d="M100.76 0L736 159.651V95.6104L160.41 0H100.76Z" fill="#D5E1EB"/>
<path d="M81.67 119.283C94.0357 119.283 104.06 109.262 104.06 96.9C104.06 84.5382 94.0357 74.5169 81.67 74.5169C69.3044 74.5169 59.28 84.5382 59.28 96.9C59.28 109.262 69.3044 119.283 81.67 119.283Z" fill="#D5E1EB"/>
<path d="M385.72 91.6216L575.34 93.9009C575.34 93.9009 586.46 89.2324 555.85 89.9322C555.85 89.9322 563.2 84.104 546.23 85.5935C546.23 85.5935 550.58 80.605 545.25 79.6753C545.25 79.6753 572.93 62.8405 504.68 77.0362C504.31 77.1161 504.47 77.416 504.68 77.0362C517.51 53.3335 462.11 79.8253 462.36 78.2458C464.11 67.2592 435.91 84.1939 436.76 82.4245C441.67 72.2276 424.65 76.7562 413.72 82.1746C413.72 82.1746 390.34 80.5551 395.62 86.7831C395.63 86.7731 381.73 86.0034 385.72 91.6216Z" fill="#D5E1EB"/>
<path d="M352.12 208.675L381.02 177.015L406.89 172.547L446.84 137.537L473.66 133.539L483.18 121.322L564.08 107.127L618.57 68.6887L648.62 99.2893L667.9 102.118L682.07 125.931L736 147.444V208.675H352.12Z" fill="#D1DDE6"/>
<path d="M358.04 217.223L384.28 181.744L415.54 175.636L456.77 140.327L483.08 135.608L492.01 123.712L575.45 108.246L620.39 77.2361L648.62 99.2893L667.9 102.118L684.91 127.061L736 147.444V217.223H358.04Z" fill="#A7BFD1"/>
<path d="M367.24 230.429L392.79 196.589L423.22 190.761L466.16 155.822L488.98 152.583L497.68 141.226L586.58 128.9L622.68 96.9L646.12 120.663L664.83 120.223L676.74 140.127L736 162.92L735.24 230.429H367.24Z" fill="#829EB5"/>
<path d="M391.8 205.836L358.04 162.77L290.61 135.558L273.94 127.441L209.31 107.597L202.45 88.4826L156.72 73.2173L128.38 131.999L92.43 143.785L89.63 147.224L76.4 134.938L43.71 130.22L19.36 101.349L0.0599976 96.2202L1.01 195.19L391.8 205.836Z" fill="#D1DDE6"/>
<path d="M395.96 213.284L364.59 158.651L290.61 135.558L282.95 122.482L213.86 103.148L202.45 88.4826L161.55 81.4248L137.82 133.019L97.57 145.765L89.63 157.721L70.47 137.078L35.77 132.449L11.39 102.978L0 100.149L1.01 205.676L395.96 213.284Z" fill="#A7BFD1"/>
<path d="M379.76 213.534L358.04 175.306L289.35 159.271L269.82 138.827L209.82 123.692L197.98 112.195L166.72 105.007L147.27 147.914L99 162.66L83.68 166.508L69.86 152.513L27.83 147.914L8.92001 121.112L0.0700073 120.523L1.01001 207.556L379.76 213.534Z" fill="#829EB5"/>
<path d="M0 199.978V164.079C0 164.079 164.37 117.604 356.09 200.728C356.09 200.728 376.22 211.495 384.27 217.163H0V199.978Z" fill="#A49D9C"/>
<path d="M68.12 217.173C68.12 217.173 106.85 183.443 132.54 184.153C158.23 184.863 171.79 158.071 170.57 153.522C170.57 153.522 189.81 155.202 212.65 158.791C241.01 163.239 274.95 170.167 284.74 175.006C284.74 175.006 282.85 182.224 250.26 192.43C217.67 202.637 209.23 217.183 209.23 217.183H68.12V217.173Z" fill="#988D8B"/>
<path d="M205.4 217.173C205.4 217.173 224.96 191.291 249.11 190.161C273.27 189.031 280.16 173.196 280.16 173.196C280.16 173.196 351.88 193.94 384.28 217.173H205.4Z" fill="#867A73"/>
<path d="M346.45 224.341C346.45 224.341 464.51 105.697 736 172.956V205.076V222.271L346.45 224.341Z" fill="#A49C9A"/>
<path d="M455.44 222.591C455.44 222.591 516.94 212.794 503.49 197.139C493.1 185.053 473.25 179.754 555.87 152.563C555.87 152.563 644.95 150.793 676.06 160.91C676.06 160.91 572.24 184.633 601.71 203.897C631.19 223.161 565.75 224.68 565.75 224.68L455.44 222.591Z" fill="#988D8A"/>
<path d="M736 221.701V172.397C736 172.397 696.49 162.43 670.89 159.411C649.96 156.941 575.46 174.856 591.18 190.531C608.6 207.906 583.98 223.991 569.26 223.781C554.53 223.571 736 221.701 736 221.701Z" fill="#867A73"/>
<path d="M80.09 410.963H679.43L676.03 204.807L84.16 207.566L80.09 410.963Z" fill="#AB9489"/>
<path d="M3.34 203.647L2.19 468.245H733.84V202.887L3.34 203.647ZM636.72 355.27C636.72 355.27 629.18 373.964 609.49 384.601C579.06 401.036 515.65 383.031 515.65 383.031C437.03 397.967 401.29 428.507 216.2 382.312C216.2 382.312 175.44 393.098 146.34 386.29C120.69 380.292 99.95 367.286 106.64 342.494C108.74 334.706 111.7 333.437 120.61 323.01C120.61 323.01 119.67 316.022 99.01 307.335C99.01 307.335 99.75 305.715 102.81 305.205C109.95 304.036 124.79 303.626 137.13 306.005C137.13 306.005 138.26 294.859 122.67 281.073C122.67 281.073 123.8 274.315 140.7 276.914C140.7 276.914 142.77 272.046 135.63 262.979C135.63 262.979 133.38 254.051 151.69 249.523C161.18 247.173 174.17 249.523 174.17 249.523C174.17 249.523 177.75 243.435 168.32 232.328C168.32 232.328 172.64 202.857 253.03 224.391C266.24 227.929 453.24 229.299 474.84 222.121C480.66 219.852 564.43 203.327 558.78 228.389C558.78 228.389 557.84 231.268 558.51 231.798C558.51 231.798 566.26 229.169 576.54 229.669C585.13 230.099 590.63 237.317 590.91 241.285C590.91 241.285 584.24 251.002 586.12 253.751C586.12 253.751 602.41 252.662 609.88 255.921C611.61 256.681 600.26 260.709 588.39 272.106C585.42 274.965 579.64 292.01 579.64 292.01L626.41 288.041L638.63 341.264L636.72 355.27Z" fill="#826A5F"/>
<path d="M59.98 186.822L54.45 184.733L59.69 185.913L57.52 179.205L54.45 176.455L56.83 177.075L55.06 171.567L53.57 170.897L54.94 171.207L53.57 166.968L47.9 184.283L52.7 183.423L47.16 186.532L45.84 190.561L52.87 189.661L45.32 192.141L44.07 195.949H62.92L59.98 186.822Z" fill="#707552"/>
<path d="M62.92 195.949H44.07L53.5 193.9L53.57 192.38L62.92 195.949Z" fill="#54573B"/>
<path d="M61.7 191.692L53.57 188.772L61.23 190.232L61.7 191.692Z" fill="#54573B"/>
<path d="M52.7 182.964L47.9 183.824L48.39 182.334L52.7 182.964Z" fill="#54573B"/>
<path d="M50.7 175.256L53.07 174.056L50.9 174.656L50.7 175.256Z" fill="#54573B"/>
<path d="M52.01 171.277L53.57 169.498L54.69 169.967L53.57 166.508L52.01 171.277Z" fill="#54573B"/>
<path d="M54.76 186.952H52.76V201.947H54.76V186.952Z" fill="#63573B"/>
<path d="M52.76 195.809V186.952H54.76V191.441L52.76 195.809Z" fill="#595032"/>
<path d="M80.81 191.871C80.07 191.591 77.18 190.431 76.85 189.351L80.36 190.371L79.94 188.942C79.09 188.492 77.35 187.502 77.04 186.732L79.56 187.652L76.59 177.595C76.18 177.275 75.68 176.585 75.68 176.585C75.68 176.585 76.08 176.825 76.44 177.085L75.68 174.516L74.49 178.315L75.45 178.085C75.46 178.295 74.84 178.545 74.37 178.695L73.46 181.614L74.91 181.464C74.68 181.884 73.6 182.484 73.11 182.723L73 183.063C73.57 183.023 74.04 182.723 74.31 182.613C74.12 182.913 73.42 183.413 72.83 183.603L71.25 188.682L72.94 188.322C72.66 188.692 71.71 189.021 71.09 189.201L69.23 195.16C69.23 195.16 74.03 196.289 75.67 196.239C77.22 196.189 81.66 194.8 81.66 194.8L80.81 191.871Z" fill="#756F52"/>
<path d="M81.67 194.8C81.67 194.8 76.7 196.289 75.68 196.239C74.67 196.179 69.24 195.16 69.24 195.16L69.78 193.41C69.78 193.41 75 193.52 75.45 192.66C75.45 192.66 79.68 194.21 81.31 193.61L81.67 194.8Z" fill="#5C573F"/>
<path d="M70.17 192.221C70.17 192.221 74.73 191.741 75.07 191.021C75.07 191.021 70.73 191.421 70.44 191.381L70.17 192.221Z" fill="#5C573F"/>
<path d="M79.56 187.652L77.04 186.732C77.04 186.732 79 186.902 79.24 186.562L79.56 187.652Z" fill="#5C573F"/>
<path d="M78.14 182.834C78.14 182.834 76.66 182.254 76.31 181.444C76.31 181.444 77.54 181.844 77.85 181.854L78.14 182.834Z" fill="#5C573F"/>
<path d="M71.67 187.382C71.67 187.382 74.55 186.202 74.83 185.732C74.83 185.732 72.32 186.462 71.86 186.762L71.67 187.382Z" fill="#5C573F"/>
<path d="M75.14 176.276L75.69 175.716L76.21 176.276L75.69 174.516L75.14 176.276Z" fill="#5C573F"/>
<path d="M74.76 201.947V196.489V189.951H75.76V201.947H74.76Z" fill="#665B3C"/>
<path d="M74.76 195.929V189.951H75.76V192.54L74.76 195.929Z" fill="#544B30"/>
<path d="M105.48 185.173L100.13 182.924L105.19 184.193L103.1 176.995L100.13 174.046L102.44 174.706L100.72 168.808L99.29 168.088L100.61 168.418L99.29 163.869L93.8 182.444L98.44 181.514L93.09 184.853L91.81 189.172L98.61 188.202L91.31 190.861L90.11 194.95H108.32L105.48 185.173Z" fill="#707552"/>
<path d="M108.32 194.95H90.11L99.21 192.76L99.29 191.121L108.32 194.95Z" fill="#54573B"/>
<path d="M107.13 190.232L99.29 187.102L106.68 188.662L107.13 190.232Z" fill="#54573B"/>
<path d="M98.44 180.874L93.8 181.794L94.27 180.194L98.44 180.874Z" fill="#54573B"/>
<path d="M96.51 172.617L98.8 171.317L96.71 171.967L96.51 172.617Z" fill="#54573B"/>
<path d="M97.78 168.338L99.29 166.428L100.37 166.938L99.29 163.229L97.78 168.338Z" fill="#54573B"/>
<path d="M100.76 184.953H98.76V200.948H100.76V184.953Z" fill="#63573B"/>
<path d="M98.76 194.63V184.953H100.76V189.931L98.76 194.63Z" fill="#595032"/>
<path d="M130.06 188.162C129.06 187.792 125.15 186.282 124.71 184.873L129.46 186.202L128.89 184.333C127.74 183.743 125.39 182.454 124.96 181.444L128.37 182.643L124.36 169.498C123.81 169.078 123.13 168.178 123.13 168.178C123.13 168.178 123.66 168.488 124.15 168.838L123.13 165.479L121.53 170.447L122.83 170.147C122.84 170.427 122.01 170.747 121.37 170.947L120.14 174.756L122.11 174.566C121.79 175.116 120.33 175.896 119.67 176.205L119.53 176.655C120.29 176.595 120.93 176.205 121.31 176.065C121.05 176.455 120.1 177.105 119.31 177.365L117.17 183.993L119.45 183.513C119.07 183.993 117.78 184.433 116.95 184.663L114.44 192.44C114.44 192.44 120.94 193.92 123.15 193.85C125.24 193.78 131.25 191.971 131.25 191.971L130.06 188.162Z" fill="#756F52"/>
<path d="M131.23 191.991C131.23 191.991 124.51 193.94 123.13 193.87C121.76 193.8 114.42 192.46 114.42 192.46L115.16 190.181C115.16 190.181 122.21 190.321 122.82 189.201C122.82 189.201 128.54 191.221 130.75 190.441L131.23 191.991Z" fill="#5C573F"/>
<path d="M115.67 188.622C115.67 188.622 121.84 188.002 122.29 187.062C122.29 187.062 116.42 187.582 116.03 187.522L115.67 188.622Z" fill="#5C573F"/>
<path d="M128.38 182.644L124.97 181.444C124.97 181.444 127.62 181.674 127.95 181.224L128.38 182.644Z" fill="#5C573F"/>
<path d="M126.46 176.356C126.46 176.356 124.46 175.606 123.99 174.536C123.99 174.536 125.65 175.056 126.07 175.076L126.46 176.356Z" fill="#5C573F"/>
<path d="M117.71 182.304C117.71 182.304 121.6 180.764 121.98 180.154C121.98 180.154 118.58 181.104 117.97 181.504L117.71 182.304Z" fill="#5C573F"/>
<path d="M122.4 167.789L123.14 167.069L123.84 167.789L123.14 165.489L122.4 167.789Z" fill="#5C573F"/>
<path d="M121.76 200.948V194.1V184.953H123.76V200.948H121.76Z" fill="#665B3C"/>
<path d="M121.76 193.37V184.953H123.76V188.941L121.76 193.37Z" fill="#544B30"/>
<path d="M154.59 189.351L149.97 187.602L154.35 188.592L152.54 183.003L149.97 180.704L151.96 181.224L150.47 176.635L149.23 176.076L150.38 176.335L149.23 172.807L144.48 187.232L148.5 186.512L143.87 189.101L142.76 192.46L148.65 191.711L142.33 193.77L141.28 196.949H157.05L154.59 189.351Z" fill="#707552"/>
<path d="M157.05 196.95H141.28L149.17 195.24L149.23 193.98L157.05 196.95Z" fill="#54573B"/>
<path d="M156.03 193.641L149.23 191.211L155.63 192.421L156.03 193.641Z" fill="#54573B"/>
<path d="M148.5 186.372L144.48 187.092L144.89 185.842L148.5 186.372Z" fill="#54573B"/>
<path d="M146.83 179.955L148.81 178.955L147 179.455L146.83 179.955Z" fill="#54573B"/>
<path d="M147.93 176.635L149.23 175.156L150.17 175.546L149.23 172.667L147.93 176.635Z" fill="#54573B"/>
<path d="M149.76 189.951H148.76V201.947H149.76V189.951Z" fill="#63573B"/>
<path d="M148.76 197.129V189.951H149.76V193.48L148.76 197.129Z" fill="#595032"/>
<path d="M175.88 192.041C175.01 191.761 171.63 190.581 171.25 189.491L175.36 190.521L174.87 189.071C173.87 188.612 171.84 187.612 171.47 186.832L174.42 187.762L170.94 177.555C170.47 177.225 169.88 176.535 169.88 176.535C169.88 176.535 170.34 176.775 170.77 177.045L169.88 174.436L168.49 178.295L169.61 178.065C169.62 178.285 168.9 178.525 168.35 178.685L167.29 181.644L168.99 181.494C168.72 181.924 167.45 182.523 166.88 182.773L166.76 183.123C167.42 183.083 167.98 182.773 168.3 182.663C168.08 182.963 167.25 183.473 166.56 183.673L164.71 188.822L166.69 188.452C166.36 188.832 165.24 189.161 164.52 189.351L162.35 195.4C162.35 195.4 167.97 196.549 169.89 196.489C171.7 196.439 176.9 195.03 176.9 195.03L175.88 192.041Z" fill="#756F52"/>
<path d="M176.89 195.01C176.89 195.01 171.07 196.529 169.88 196.469C168.69 196.409 162.34 195.38 162.34 195.38L162.98 193.61C162.98 193.61 169.09 193.72 169.62 192.85C169.62 192.85 174.57 194.42 176.48 193.81L176.89 195.01Z" fill="#5C573F"/>
<path d="M163.42 192.391C163.42 192.391 168.76 191.911 169.15 191.171C169.15 191.171 164.06 191.581 163.73 191.531L163.42 192.391Z" fill="#5C573F"/>
<path d="M174.42 187.752L171.47 186.822C171.47 186.822 173.77 187.002 174.05 186.652L174.42 187.752Z" fill="#5C573F"/>
<path d="M172.76 182.864C172.76 182.864 171.03 182.274 170.62 181.444C170.62 181.444 172.06 181.854 172.42 181.864L172.76 182.864Z" fill="#5C573F"/>
<path d="M165.18 187.482C165.18 187.482 168.55 186.292 168.88 185.812C168.88 185.812 165.94 186.552 165.4 186.862L165.18 187.482Z" fill="#5C573F"/>
<path d="M169.24 176.206L169.88 175.646L170.49 176.206L169.88 174.416L169.24 176.206Z" fill="#5C573F"/>
<path d="M169.76 201.947V196.719V189.951H170.76V201.947H169.76Z" fill="#665B3C"/>
<path d="M169.76 196.149V189.951H170.76V192.71L169.76 196.149Z" fill="#544B30"/>
<path d="M36.97 189.301C35.94 188.961 31.89 187.552 31.43 186.232L36.35 187.472L35.76 185.732C34.57 185.183 32.14 183.983 31.69 183.043L35.22 184.163L31.07 171.907C30.5 171.507 29.8 170.677 29.8 170.677C29.8 170.677 30.35 170.967 30.86 171.287L29.8 168.158L28.14 172.787L29.48 172.507C29.49 172.767 28.63 173.066 27.97 173.256L26.7 176.805L28.74 176.625C28.41 177.135 26.9 177.865 26.22 178.155L26.07 178.575C26.86 178.525 27.52 178.155 27.91 178.025C27.64 178.385 26.66 178.995 25.84 179.235L23.62 185.423L25.98 184.983C25.59 185.433 24.25 185.832 23.39 186.062L20.79 193.32C20.79 193.32 27.51 194.7 29.8 194.63C31.96 194.56 38.18 192.88 38.18 192.88L36.97 189.301Z" fill="#756F52"/>
<path d="M38.18 192.87C38.18 192.87 31.22 194.69 29.8 194.62C28.38 194.55 20.79 193.31 20.79 193.31L21.55 191.181C21.55 191.181 28.85 191.311 29.48 190.271C29.48 190.271 35.4 192.16 37.68 191.421L38.18 192.87Z" fill="#5C573F"/>
<path d="M22.08 189.732C22.08 189.732 28.46 189.152 28.93 188.272C28.93 188.272 22.85 188.762 22.45 188.702L22.08 189.732Z" fill="#5C573F"/>
<path d="M35.2299 184.153L31.7 183.033C31.7 183.033 34.4499 183.243 34.7799 182.823L35.2299 184.153Z" fill="#5C573F"/>
<path d="M33.24 178.295C33.24 178.295 31.17 177.595 30.68 176.595C30.68 176.595 32.4 177.085 32.84 177.105L33.24 178.295Z" fill="#5C573F"/>
<path d="M24.19 183.844C24.19 183.844 28.22 182.414 28.61 181.834C28.61 181.834 25.1 182.724 24.46 183.094L24.19 183.844Z" fill="#5C573F"/>
<path d="M29.04 170.298L29.8 169.628L30.53 170.298L29.8 168.158L29.04 170.298Z" fill="#5C573F"/>
<path d="M28.7599 201.947V194.86V186.952H30.7599V201.947H28.7599Z" fill="#665B3C"/>
<path d="M28.7599 194.18V186.952H30.7599V190.051L28.7599 194.18Z" fill="#544B30"/>
<path d="M202.49 187.342C201.46 186.952 197.41 185.343 196.95 183.843L201.87 185.253L201.28 183.273C200.09 182.653 197.66 181.274 197.21 180.204L200.74 181.474L196.59 167.498C196.02 167.048 195.32 166.099 195.32 166.099C195.32 166.099 195.87 166.428 196.38 166.798L195.32 163.229L193.66 168.508L195 168.188C195.01 168.478 194.15 168.818 193.49 169.038L192.22 173.086L194.26 172.886C193.93 173.476 192.42 174.296 191.74 174.636L191.59 175.106C192.38 175.046 193.04 174.626 193.43 174.476C193.16 174.886 192.18 175.586 191.36 175.856L189.14 182.903L191.5 182.394C191.11 182.903 189.77 183.363 188.91 183.623L186.31 191.891C186.31 191.891 193.03 193.46 195.32 193.38C197.48 193.31 203.7 191.381 203.7 191.381L202.49 187.342Z" fill="#756F52"/>
<path d="M203.7 191.411C203.7 191.411 196.74 193.49 195.32 193.41C193.9 193.33 186.31 191.921 186.31 191.921L187.07 189.501C187.07 189.501 194.37 189.651 195 188.462C195 188.462 200.92 190.611 203.2 189.771L203.7 191.411Z" fill="#5C573F"/>
<path d="M187.6 187.822C187.6 187.822 193.98 187.162 194.45 186.162C194.45 186.162 188.37 186.722 187.97 186.652L187.6 187.822Z" fill="#5C573F"/>
<path d="M200.75 181.464L197.22 180.194C197.22 180.194 199.97 180.434 200.3 179.954L200.75 181.464Z" fill="#5C573F"/>
<path d="M198.76 174.786C198.76 174.786 196.69 173.986 196.2 172.846C196.2 172.846 197.92 173.396 198.36 173.426L198.76 174.786Z" fill="#5C573F"/>
<path d="M189.71 181.105C189.71 181.105 193.74 179.465 194.13 178.815C194.13 178.815 190.62 179.825 189.98 180.255L189.71 181.105Z" fill="#5C573F"/>
<path d="M194.56 165.669L195.33 164.899L196.05 165.669L195.33 163.229L194.56 165.669Z" fill="#5C573F"/>
<path d="M194.76 200.948V193.63V183.953H196.76V200.948H194.76Z" fill="#665B3C"/>
<path d="M194.76 192.85V183.953H196.76V188.142L194.76 192.85Z" fill="#544B30"/>
<path d="M225.94 185.823L220.41 183.733L225.65 184.913L223.48 178.205L220.41 175.456L222.8 176.076L221.02 170.567L219.54 169.898L220.9 170.208L219.54 165.969L213.86 183.283L218.66 182.424L213.12 185.533L211.8 189.562L218.84 188.662L211.28 191.141L210.03 194.95H228.89L225.94 185.823Z" fill="#707552"/>
<path d="M228.89 194.95H210.03L219.46 192.9L219.54 191.381L228.89 194.95Z" fill="#54573B"/>
<path d="M227.66 190.482L219.54 187.562L227.19 189.022L227.66 190.482Z" fill="#54573B"/>
<path d="M218.66 181.764L213.86 182.624L214.35 181.124L218.66 181.764Z" fill="#54573B"/>
<path d="M216.67 174.056L219.03 172.846L216.86 173.456L216.67 174.056Z" fill="#54573B"/>
<path d="M217.97 170.067L219.54 168.288L220.65 168.768L219.54 165.299L217.97 170.067Z" fill="#54573B"/>
<path d="M220.76 185.952H218.76V200.948H220.76V185.952Z" fill="#63573B"/>
<path d="M218.76 194.61V185.952H220.76V190.231L218.76 194.61Z" fill="#595032"/>
<path d="M17.12 186.822L12.92 184.733L16.9 185.913L15.25 179.205L12.92 176.456L14.73 177.075L13.38 171.567L12.25 170.897L13.29 171.207L12.25 166.969L7.94003 184.283L11.59 183.423L7.38003 186.532L6.37003 190.561L11.72 189.661L5.98003 192.141L5.03003 195.95H19.36L17.12 186.822Z" fill="#707552"/>
<path d="M19.36 195.949H5.03003L12.19 193.9L12.25 192.38L19.36 195.949Z" fill="#54573B"/>
<path d="M18.43 191.522L12.25 188.602L18.07 190.062L18.43 191.522Z" fill="#54573B"/>
<path d="M11.59 182.794L7.94 183.654L8.31 182.164L11.59 182.794Z" fill="#54573B"/>
<path d="M10.07 175.096L11.87 173.886L10.22 174.486L10.07 175.096Z" fill="#54573B"/>
<path d="M11.0601 171.107L12.2501 169.328L13.1001 169.807L12.2501 166.339L11.0601 171.107Z" fill="#54573B"/>
<path d="M12.76 186.952H11.76V201.947H12.76V186.952Z" fill="#63573B"/>
<path d="M11.76 195.639V186.952H12.76V191.271L11.76 195.639Z" fill="#595032"/>
<path d="M246.63 189.861C245.7 189.541 242.08 188.242 241.67 187.022L246.08 188.162L245.55 186.552C244.48 186.042 242.3 184.933 241.91 184.063L245.07 185.093L241.35 173.756C240.84 173.386 240.21 172.617 240.21 172.617C240.21 172.617 240.71 172.886 241.16 173.186L240.21 170.297L238.72 174.576L239.92 174.316C239.93 174.556 239.16 174.826 238.57 175.006L237.43 178.295L239.25 178.135C238.96 178.605 237.6 179.284 236.99 179.554L236.86 179.944C237.57 179.894 238.16 179.554 238.51 179.434C238.27 179.774 237.39 180.334 236.65 180.554L234.66 186.272L236.78 185.862C236.43 186.282 235.23 186.652 234.46 186.862L232.13 193.57C232.13 193.57 238.15 194.85 240.2 194.78C242.14 194.72 247.71 193.16 247.71 193.16L246.63 189.861Z" fill="#756F52"/>
<path d="M247.71 193.16C247.71 193.16 241.47 194.84 240.2 194.78C238.93 194.72 232.13 193.57 232.13 193.57L232.81 191.601C232.81 191.601 239.35 191.721 239.92 190.751C239.92 190.751 245.23 192.5 247.27 191.821L247.71 193.16Z" fill="#5C573F"/>
<path d="M233.28 190.252C233.28 190.252 239 189.712 239.42 188.902C239.42 188.902 233.97 189.352 233.61 189.302L233.28 190.252Z" fill="#5C573F"/>
<path d="M245.06 185.093L241.9 184.063C241.9 184.063 244.36 184.263 244.66 183.873L245.06 185.093Z" fill="#5C573F"/>
<path d="M243.28 179.675C243.28 179.675 241.43 179.025 240.99 178.105C240.99 178.105 242.53 178.555 242.92 178.575L243.28 179.675Z" fill="#5C573F"/>
<path d="M235.17 184.803C235.17 184.803 238.78 183.473 239.13 182.943C239.13 182.943 235.98 183.763 235.41 184.103L235.17 184.803Z" fill="#5C573F"/>
<path d="M239.52 172.277L240.2 171.657L240.85 172.277L240.2 170.297L239.52 172.277Z" fill="#5C573F"/>
<path d="M238.76 200.948V195.02V186.952H240.76V200.948H238.76Z" fill="#665B3C"/>
<path d="M238.76 194.39V186.952H240.76V190.571L238.76 194.39Z" fill="#544B30"/>
<path d="M263.61 189.101L259.98 187.532L263.41 188.412L261.99 183.373L259.98 181.314L261.54 181.774L260.37 177.645L259.4 177.135L260.3 177.375L259.4 174.186L255.67 187.192L258.83 186.542L255.19 188.882L254.32 191.901L258.94 191.221L253.98 193.09L253.16 195.949H265.54L263.61 189.101Z" fill="#707552"/>
<path d="M265.54 195.95H253.16L259.35 194.41L259.4 193.27L265.54 195.95Z" fill="#54573B"/>
<path d="M264.73 192.961L259.4 190.771L264.42 191.861L264.73 192.961Z" fill="#54573B"/>
<path d="M258.83 186.412L255.67 187.062L255.99 185.932L258.83 186.412Z" fill="#54573B"/>
<path d="M257.52 180.624L259.07 179.724L257.65 180.174L257.52 180.624Z" fill="#54573B"/>
<path d="M258.37 177.635L259.4 176.295L260.13 176.655L259.4 174.056L258.37 177.635Z" fill="#54573B"/>
<path d="M259.76 189.951H258.76V200.948H259.76V189.951Z" fill="#63573B"/>
<path d="M258.76 196.139V189.951H259.76V192.85L258.76 196.139Z" fill="#595032"/>
<path d="M115.71 191.811L112.03 190.391L115.51 191.191L114.07 186.672L112.03 184.823L113.62 185.243L112.44 181.534L111.45 181.084L112.36 181.284L111.45 178.435L107.68 190.091L110.87 189.511L107.19 191.611L106.31 194.32L110.99 193.71L105.97 195.38L105.14 197.949H117.66L115.71 191.811Z" fill="#707552"/>
<path d="M117.66 197.949H105.14L111.4 196.569L111.45 195.549L117.66 197.949Z" fill="#54573B"/>
<path d="M116.84 195.06L111.45 193.09L116.53 194.07L116.84 195.06Z" fill="#54573B"/>
<path d="M110.87 189.182L107.68 189.762L108.01 188.762L110.87 189.182Z" fill="#54573B"/>
<path d="M109.54 183.993L111.12 183.183L109.68 183.593L109.54 183.993Z" fill="#54573B"/>
<path d="M110.41 181.315L111.45 180.115L112.19 180.435L111.45 178.105L110.41 181.315Z" fill="#54573B"/>
<path d="M111.76 191.951H110.76V201.947H111.76V191.951Z" fill="#63573B"/>
<path d="M110.76 197.939V191.951H111.76V194.99L110.76 197.939Z" fill="#595032"/>
<path d="M91.52 190.171C90.74 189.831 87.69 188.422 87.35 187.102L91.06 188.342L90.62 186.602C89.72 186.052 87.89 184.853 87.56 183.913L90.22 185.033L87.09 172.777C86.66 172.377 86.13 171.547 86.13 171.547C86.13 171.547 86.55 171.837 86.93 172.157L86.13 169.028L84.88 173.656L85.89 173.376C85.9 173.636 85.25 173.936 84.75 174.126L83.79 177.675L85.32 177.495C85.07 178.005 83.93 178.735 83.42 179.025L83.31 179.444C83.91 179.394 84.41 179.025 84.7 178.895C84.5 179.254 83.76 179.864 83.14 180.104L81.47 186.292L83.25 185.852C82.96 186.302 81.95 186.702 81.3 186.932L79.34 194.19C79.34 194.19 84.41 195.569 86.13 195.499C87.76 195.429 92.45 193.75 92.45 193.75L91.52 190.171Z" fill="#756F52"/>
<path d="M92.43 193.74C92.43 193.74 87.19 195.559 86.11 195.489C85.03 195.419 79.32 194.18 79.32 194.18L79.89 192.051C79.89 192.051 85.39 192.18 85.87 191.141C85.87 191.141 90.33 193.03 92.05 192.29L92.43 193.74Z" fill="#5C573F"/>
<path d="M80.29 190.601C80.29 190.601 85.1 190.021 85.45 189.141C85.45 189.141 80.87 189.631 80.56 189.571L80.29 190.601Z" fill="#5C573F"/>
<path d="M90.2 185.023L87.54 183.903C87.54 183.903 89.61 184.113 89.86 183.693L90.2 185.023Z" fill="#5C573F"/>
<path d="M88.7 179.165C88.7 179.165 87.14 178.465 86.77 177.465C86.77 177.465 88.06 177.955 88.39 177.975L88.7 179.165Z" fill="#5C573F"/>
<path d="M81.88 184.703C81.88 184.703 84.92 183.273 85.21 182.693C85.21 182.693 82.56 183.583 82.08 183.953L81.88 184.703Z" fill="#5C573F"/>
<path d="M85.54 171.168L86.11 170.488L86.66 171.168L86.11 169.018L85.54 171.168Z" fill="#5C573F"/>
<path d="M85.76 201.947V195.729V186.952H86.76V201.947H85.76Z" fill="#665B3C"/>
<path d="M85.76 195.05V186.952H86.76V190.921L85.76 195.05Z" fill="#544B30"/>
<path d="M44.7 193.53C43.98 193.29 41.17 192.31 40.85 191.391L44.26 192.25L43.85 191.031C43.02 190.651 41.33 189.811 41.03 189.151L43.48 189.931L40.6 181.374C40.21 181.094 39.72 180.514 39.72 180.514C39.72 180.514 40.1 180.714 40.46 180.944L39.72 178.765L38.57 181.994L39.5 181.794C39.51 181.974 38.91 182.184 38.45 182.314L37.57 184.793L38.98 184.673C38.75 185.033 37.7 185.543 37.23 185.742L37.13 186.032C37.68 185.992 38.14 185.743 38.41 185.653C38.23 185.902 37.54 186.332 36.97 186.502L35.43 190.821L37.07 190.511C36.8 190.821 35.87 191.111 35.27 191.261L33.47 196.329C33.47 196.329 38.14 197.289 39.73 197.239C41.23 197.189 45.55 196.019 45.55 196.019L44.7 193.53Z" fill="#756F52"/>
<path d="M45.54 196.02C45.54 196.02 40.71 197.29 39.72 197.24C38.73 197.19 33.46 196.33 33.46 196.33L33.99 194.85C33.99 194.85 39.06 194.94 39.5 194.21C39.5 194.21 43.61 195.53 45.2 195.02L45.54 196.02Z" fill="#5C573F"/>
<path d="M34.35 193.83C34.35 193.83 38.78 193.43 39.11 192.81C39.11 192.81 34.89 193.15 34.61 193.11L34.35 193.83Z" fill="#5C573F"/>
<path d="M43.48 189.931L41.03 189.151C41.03 189.151 42.94 189.301 43.17 189.001L43.48 189.931Z" fill="#5C573F"/>
<path d="M42.1 185.843C42.1 185.843 40.66 185.353 40.32 184.653C40.32 184.653 41.51 184.993 41.82 185.003L42.1 185.843Z" fill="#5C573F"/>
<path d="M35.82 189.712C35.82 189.712 38.62 188.712 38.89 188.312C38.89 188.312 36.45 188.932 36.01 189.192L35.82 189.712Z" fill="#5C573F"/>
<path d="M39.19 180.265L39.72 179.795L40.22 180.265L39.72 178.765L39.19 180.265Z" fill="#5C573F"/>
<path d="M38.76 201.947V197.509V191.951H39.76V201.947H38.76Z" fill="#665B3C"/>
<path d="M38.76 197.029V191.951H39.76V194.15L38.76 197.029Z" fill="#544B30"/>
<path d="M189.33 193.61C188.47 193.38 185.09 192.44 184.71 191.571L188.81 192.39L188.32 191.231C187.32 190.871 185.3 190.061 184.93 189.441L187.87 190.181L184.4 182.024C183.93 181.764 183.34 181.204 183.34 181.204C183.34 181.204 183.8 181.394 184.22 181.614L183.34 179.534L181.96 182.613L183.08 182.424C183.09 182.593 182.37 182.793 181.82 182.923L180.76 185.293L182.46 185.173C182.19 185.513 180.93 186.002 180.36 186.192L180.24 186.472C180.9 186.442 181.45 186.192 181.77 186.102C181.55 186.342 180.73 186.752 180.04 186.912L178.19 191.031L180.16 190.731C179.83 191.031 178.72 191.301 178 191.451L175.83 196.279C175.83 196.279 181.44 197.199 183.35 197.149C185.15 197.109 190.34 195.979 190.34 195.979L189.33 193.61Z" fill="#756F52"/>
<path d="M190.34 195.98C190.34 195.98 184.54 197.19 183.35 197.15C182.16 197.11 175.83 196.28 175.83 196.28L176.47 194.86C176.47 194.86 182.56 194.95 183.09 194.25C183.09 194.25 188.03 195.51 189.93 195.02L190.34 195.98Z" fill="#5C573F"/>
<path d="M176.9 193.89C176.9 193.89 182.22 193.5 182.62 192.92C182.62 192.92 177.55 193.24 177.21 193.21L176.9 193.89Z" fill="#5C573F"/>
<path d="M187.87 190.181L184.93 189.441C184.93 189.441 187.22 189.581 187.5 189.301L187.87 190.181Z" fill="#5C573F"/>
<path d="M186.21 186.273C186.21 186.273 184.49 185.803 184.07 185.143C184.07 185.143 185.5 185.463 185.87 185.483L186.21 186.273Z" fill="#5C573F"/>
<path d="M178.66 189.962C178.66 189.962 182.02 189.002 182.35 188.622C182.35 188.622 179.42 189.212 178.88 189.462L178.66 189.962Z" fill="#5C573F"/>
<path d="M182.71 180.944L183.35 180.504L183.95 180.944L183.35 179.524L182.71 180.944Z" fill="#5C573F"/>
<path d="M182.76 201.947V197.419V191.951H183.76V201.947H182.76Z" fill="#665B3C"/>
<path d="M182.76 196.959V191.951H183.76V194.21L182.76 196.959Z" fill="#544B30"/>
<path d="M69.6 187.802L65.67 185.932L69.39 186.982L67.85 180.994L65.67 178.535L67.36 179.085L66.1 174.166L65.05 173.566L66.02 173.846L65.05 170.057L61.03 185.523L64.43 184.753L60.5 187.532L59.57 191.141L64.56 190.331L59.2 192.54L58.31 195.949H71.68L69.6 187.802Z" fill="#707552"/>
<path d="M71.68 195.95H58.31L65 194.12L65.05 192.76L71.68 195.95Z" fill="#54573B"/>
<path d="M70.81 192.671L65.05 190.071L70.48 191.371L70.81 192.671Z" fill="#54573B"/>
<path d="M64.43 184.883L61.03 185.653L61.37 184.313L64.43 184.883Z" fill="#54573B"/>
<path d="M63.02 178.005L64.7 176.925L63.16 177.465L63.02 178.005Z" fill="#54573B"/>
<path d="M63.94 174.446L65.05 172.847L65.84 173.276L65.05 170.177L63.94 174.446Z" fill="#54573B"/>
<path d="M65.76 188.951H64.76V201.947H65.76V188.951Z" fill="#63573B"/>
<path d="M64.76 196.399V188.951H65.76V192.49L64.76 196.399Z" fill="#595032"/>
<path d="M139.33 191.811L135.36 190.401L139.11 191.201L137.56 186.682L135.36 184.833L137.07 185.253L135.79 181.544L134.73 181.094L135.71 181.304L134.73 178.455L130.65 190.101L134.1 189.522L130.13 191.611L129.18 194.33L134.23 193.72L128.81 195.38L127.91 197.949H141.44L139.33 191.811Z" fill="#707552"/>
<path d="M141.44 197.949H127.91L134.67 196.569L134.73 195.549L141.44 197.949Z" fill="#54573B"/>
<path d="M140.56 194.66L134.73 192.7L140.22 193.68L140.56 194.66Z" fill="#54573B"/>
<path d="M134.1 188.792L130.65 189.372L131.01 188.362L134.1 188.792Z" fill="#54573B"/>
<path d="M132.67 183.613L134.37 182.793L132.81 183.203L132.67 183.613Z" fill="#54573B"/>
<path d="M133.61 180.925L134.73 179.735L135.53 180.055L134.73 177.725L133.61 180.925Z" fill="#54573B"/>
<path d="M134.76 191.951H133.76V201.947H134.76V191.951Z" fill="#63573B"/>
<path d="M133.76 197.539V191.951H134.76V194.6L133.76 197.539Z" fill="#595032"/>
<path d="M164.14 186.852L160.24 184.753L163.93 185.933L162.41 179.245L160.24 176.496L161.92 177.115L160.67 171.617L159.62 170.957L160.58 171.257L159.62 167.028L155.61 184.313L159 183.453L155.09 186.552L154.15 190.571L159.12 189.671L153.79 192.141L152.9 195.949H166.22L164.14 186.852Z" fill="#707552"/>
<path d="M166.22 195.949H152.9L159.56 193.91L159.62 192.39L166.22 195.949Z" fill="#54573B"/>
<path d="M165.35 191.632L159.62 188.722L165.02 190.172L165.35 191.632Z" fill="#54573B"/>
<path d="M159 182.924L155.61 183.784L155.95 182.294L159 182.924Z" fill="#54573B"/>
<path d="M157.59 175.246L159.26 174.036L157.73 174.636L157.59 175.246Z" fill="#54573B"/>
<path d="M158.51 171.267L159.62 169.488L160.41 169.967L159.62 166.508L158.51 171.267Z" fill="#54573B"/>
<path d="M159.76 186.952H158.76V201.947H159.76V186.952Z" fill="#63573B"/>
<path d="M158.76 195.749V186.952H159.76V191.381L158.76 195.749Z" fill="#595032"/>
<path d="M210.19 189.811L206.59 188.172L210 189.102L208.59 183.853L206.59 181.694L208.14 182.184L206.99 177.875L206.02 177.355L206.91 177.595L206.02 174.276L202.32 187.822L205.45 187.152L201.84 189.581L200.98 192.74L205.56 192.031L200.65 193.97L199.83 196.949H212.11L210.19 189.811Z" fill="#707552"/>
<path d="M212.11 196.95H199.83L205.97 195.35L206.02 194.16L212.11 196.95Z" fill="#54573B"/>
<path d="M211.31 193.451L206.02 191.171L211 192.311L211.31 193.451Z" fill="#54573B"/>
<path d="M205.45 186.632L202.32 187.302L202.64 186.132L205.45 186.632Z" fill="#54573B"/>
<path d="M204.15 180.604L205.69 179.654L204.28 180.134L204.15 180.604Z" fill="#54573B"/>
<path d="M205 177.485L206.02 176.095L206.75 176.465L206.02 173.756L205 177.485Z" fill="#54573B"/>
<path d="M206.76 189.951H205.76V201.947H206.76V189.951Z" fill="#63573B"/>
<path d="M205.76 196.749V189.951H206.76V193.32L205.76 196.749Z" fill="#595032"/>
<path d="M277.74 193.82C277.15 193.62 274.82 192.78 274.56 191.991L277.39 192.73L277.05 191.691C276.36 191.361 274.97 190.651 274.71 190.091L276.74 190.751L274.35 183.453C274.02 183.213 273.62 182.723 273.62 182.723C273.62 182.723 273.94 182.893 274.23 183.093L273.62 181.234L272.67 183.993L273.44 183.823C273.45 183.973 272.95 184.153 272.57 184.273L271.84 186.392L273.01 186.282C272.82 186.592 271.95 187.022 271.56 187.192L271.47 187.442C271.93 187.412 272.31 187.192 272.53 187.112C272.38 187.332 271.81 187.692 271.34 187.832L270.07 191.511L271.43 191.251C271.21 191.521 270.44 191.761 269.94 191.891L268.45 196.209C268.45 196.209 272.31 197.029 273.63 196.989C274.87 196.949 278.45 195.949 278.45 195.949L277.74 193.82Z" fill="#756F52"/>
<path d="M278.43 195.95C278.43 195.95 274.43 197.03 273.61 196.99C272.79 196.95 268.43 196.21 268.43 196.21L268.87 194.94C268.87 194.94 273.07 195.02 273.43 194.4C273.43 194.4 276.83 195.52 278.15 195.09L278.43 195.95Z" fill="#5C573F"/>
<path d="M269.18 194.07C269.18 194.07 272.85 193.73 273.12 193.2C273.12 193.2 269.63 193.49 269.39 193.46L269.18 194.07Z" fill="#5C573F"/>
<path d="M276.74 190.751L274.71 190.091C274.71 190.091 276.29 190.221 276.48 189.971L276.74 190.751Z" fill="#5C573F"/>
<path d="M275.59 187.262C275.59 187.262 274.4 186.842 274.12 186.252C274.12 186.252 275.11 186.542 275.36 186.552L275.59 187.262Z" fill="#5C573F"/>
<path d="M270.39 190.561C270.39 190.561 272.71 189.711 272.93 189.371C272.93 189.371 270.91 189.901 270.54 190.121L270.39 190.561Z" fill="#5C573F"/>
<path d="M273.18 182.504L273.62 182.104L274.04 182.504L273.62 181.224L273.18 182.504Z" fill="#5C573F"/>
<path d="M272.76 200.948V196.989V191.951H273.76V200.948H272.76Z" fill="#665B3C"/>
<path d="M272.76 196.489V191.951H273.76V194.03L272.76 196.489Z" fill="#544B30"/>
<path d="M676.85 184.823L682.38 182.734L677.15 183.913L679.31 177.205L682.38 174.456L680 175.076L681.78 169.568L683.26 168.898L681.89 169.208L683.26 164.969L688.94 182.284L684.14 181.424L689.67 184.533L691 188.562L683.96 187.662L691.51 190.141L692.76 193.95H673.91L676.85 184.823Z" fill="#707552"/>
<path d="M673.91 193.95H692.76L683.34 191.901L683.26 190.381L673.91 193.95Z" fill="#54573B"/>
<path d="M675.14 189.812L683.26 186.902L675.61 188.352L675.14 189.812Z" fill="#54573B"/>
<path d="M684.14 181.094L688.94 181.954L688.45 180.454L684.14 181.094Z" fill="#54573B"/>
<path d="M686.13 173.387L683.76 172.187L685.93 172.787L686.13 173.387Z" fill="#54573B"/>
<path d="M684.82 169.408L683.26 167.628L682.14 168.098L683.26 164.639L684.82 169.408Z" fill="#54573B"/>
<path d="M683.76 184.953H681.76V199.948H683.76V184.953Z" fill="#63573B"/>
<path d="M683.76 193.94V184.953H681.76V189.561L683.76 193.94Z" fill="#595032"/>
<path d="M656.03 190.001C656.77 189.721 659.66 188.562 659.99 187.482L656.48 188.502L656.9 187.072C657.75 186.622 659.49 185.633 659.8 184.863L657.28 185.782L660.25 175.726C660.66 175.406 661.16 174.716 661.16 174.716C661.16 174.716 660.76 174.956 660.4 175.216L661.16 172.647L662.35 176.445L661.39 176.215C661.38 176.425 662 176.675 662.47 176.825L663.38 179.744L661.93 179.594C662.16 180.014 663.24 180.614 663.73 180.854L663.84 181.194C663.27 181.154 662.8 180.854 662.53 180.744C662.72 181.044 663.42 181.544 664.01 181.734L665.59 186.812L663.9 186.452C664.18 186.822 665.13 187.152 665.75 187.332L667.61 193.29C667.61 193.29 662.81 194.42 661.17 194.37C659.62 194.32 655.18 192.93 655.18 192.93L656.03 190.001Z" fill="#756F52"/>
<path d="M655.16 192.93C655.16 192.93 660.13 194.42 661.15 194.37C662.16 194.31 667.59 193.29 667.59 193.29L667.05 191.541C667.05 191.541 661.83 191.651 661.38 190.791C661.38 190.791 657.15 192.34 655.52 191.741L655.16 192.93Z" fill="#5C573F"/>
<path d="M666.67 190.351C666.67 190.351 662.11 189.871 661.77 189.151C661.77 189.151 666.11 189.551 666.4 189.511L666.67 190.351Z" fill="#5C573F"/>
<path d="M657.27 185.773L659.79 184.853C659.79 184.853 657.83 185.023 657.59 184.683L657.27 185.773Z" fill="#5C573F"/>
<path d="M658.69 180.964C658.69 180.964 660.17 180.384 660.52 179.574C660.52 179.574 659.29 179.974 658.98 179.984L658.69 180.964Z" fill="#5C573F"/>
<path d="M665.16 185.513C665.16 185.513 662.28 184.333 662 183.863C662 183.863 664.51 184.593 664.97 184.893L665.16 185.513Z" fill="#5C573F"/>
<path d="M661.7 174.397L661.15 173.847L660.63 174.397L661.15 172.647L661.7 174.397Z" fill="#5C573F"/>
<path d="M661.76 199.948V194.62V187.952H660.76V199.948H661.76Z" fill="#665B3C"/>
<path d="M661.76 194.06V187.952H660.76V190.671L661.76 194.06Z" fill="#544B30"/>
<path d="M631.36 183.173L636.7 180.924L631.64 182.194L633.73 174.996L636.7 172.047L634.4 172.707L636.11 166.809L637.55 166.089L636.23 166.419L637.55 161.87L643.03 180.444L638.39 179.515L643.75 182.854L645.02 187.172L638.22 186.203L645.52 188.862L646.73 192.95H628.51L631.36 183.173Z" fill="#707552"/>
<path d="M628.51 192.95H646.73L637.62 190.761L637.55 189.121L628.51 192.95Z" fill="#54573B"/>
<path d="M629.7 188.353L637.55 185.223L630.15 186.793L629.7 188.353Z" fill="#54573B"/>
<path d="M638.39 179.005L643.03 179.925L642.56 178.325L638.39 179.005Z" fill="#54573B"/>
<path d="M640.32 170.738L638.03 169.448L640.13 170.098L640.32 170.738Z" fill="#54573B"/>
<path d="M639.06 166.468L637.55 164.559L636.47 165.069L637.55 161.36L639.06 166.468Z" fill="#54573B"/>
<path d="M638.76 182.953H636.76V198.948H638.76V182.953Z" fill="#63573B"/>
<path d="M638.76 192.75V182.953H636.76V188.062L638.76 192.75Z" fill="#595032"/>
<path d="M606.77 186.292C607.77 185.922 611.68 184.413 612.12 183.003L607.37 184.333L607.94 182.464C609.09 181.874 611.44 180.584 611.87 179.574L608.46 180.774L612.47 167.628C613.02 167.208 613.7 166.309 613.7 166.309C613.7 166.309 613.17 166.618 612.68 166.968L613.7 163.609L615.3 168.578L614 168.278C613.99 168.558 614.82 168.878 615.46 169.078L616.69 172.886L614.72 172.697C615.04 173.246 616.5 174.026 617.16 174.336L617.3 174.786C616.54 174.726 615.9 174.336 615.52 174.196C615.78 174.586 616.73 175.236 617.52 175.496L619.66 182.124L617.38 181.644C617.76 182.124 619.05 182.563 619.88 182.793L622.39 190.571C622.39 190.571 615.89 192.051 613.68 191.981C611.59 191.911 605.58 190.101 605.58 190.101L606.77 186.292Z" fill="#756F52"/>
<path d="M605.6 190.121C605.6 190.121 612.32 192.071 613.7 192.001C615.08 191.931 622.41 190.591 622.41 190.591L621.67 188.312C621.67 188.312 614.62 188.452 614.01 187.332C614.01 187.332 608.29 189.351 606.08 188.572L605.6 190.121Z" fill="#5C573F"/>
<path d="M621.16 186.753C621.16 186.753 614.99 186.133 614.54 185.193C614.54 185.193 620.41 185.713 620.8 185.653L621.16 186.753Z" fill="#5C573F"/>
<path d="M608.46 180.774L611.87 179.574C611.87 179.574 609.22 179.804 608.89 179.354L608.46 180.774Z" fill="#5C573F"/>
<path d="M610.38 174.487C610.38 174.487 612.38 173.737 612.85 172.667C612.85 172.667 611.19 173.187 610.77 173.207L610.38 174.487Z" fill="#5C573F"/>
<path d="M619.12 180.435C619.12 180.435 615.23 178.895 614.85 178.285C614.85 178.285 618.25 179.235 618.86 179.635L619.12 180.435Z" fill="#5C573F"/>
<path d="M614.44 165.919L613.7 165.189L612.99 165.919L613.7 163.619L614.44 165.919Z" fill="#5C573F"/>
<path d="M614.76 198.948V192.23V182.953H612.76V198.948H614.76Z" fill="#665B3C"/>
<path d="M614.76 191.501V182.953H612.76V187.072L614.76 191.501Z" fill="#544B30"/>
<path d="M582.24 187.352L586.87 185.603L582.49 186.592L584.3 181.004L586.87 178.705L584.87 179.225L586.36 174.636L587.6 174.076L586.46 174.336L587.6 170.807L592.35 185.233L588.33 184.513L592.97 187.102L594.07 190.461L588.19 189.711L594.5 191.771L595.55 194.95H579.78L582.24 187.352Z" fill="#707552"/>
<path d="M579.78 194.951H595.55L587.67 193.241L587.6 191.981L579.78 194.951Z" fill="#54573B"/>
<path d="M580.81 191.761L587.6 189.331L581.2 190.551L580.81 191.761Z" fill="#54573B"/>
<path d="M588.33 184.503L592.35 185.213L591.94 183.973L588.33 184.503Z" fill="#54573B"/>
<path d="M590 178.085L588.02 177.075L589.84 177.575L590 178.085Z" fill="#54573B"/>
<path d="M588.91 174.766L587.6 173.276L586.67 173.676L587.6 170.787L588.91 174.766Z" fill="#54573B"/>
<path d="M587.76 187.952H586.76V199.948H587.76V187.952Z" fill="#63573B"/>
<path d="M587.76 195.26V187.952H586.76V191.611L587.76 195.26Z" fill="#595032"/>
<path d="M560.96 190.161C561.83 189.881 565.21 188.702 565.59 187.612L561.48 188.642L561.97 187.192C562.97 186.732 565 185.732 565.37 184.953L562.42 185.882L565.9 175.676C566.37 175.346 566.96 174.656 566.96 174.656C566.96 174.656 566.5 174.896 566.07 175.166L566.96 172.557L568.35 176.415L567.23 176.185C567.22 176.405 567.94 176.645 568.49 176.805L569.55 179.764L567.85 179.614C568.12 180.044 569.39 180.644 569.96 180.894L570.08 181.244C569.42 181.204 568.86 180.894 568.54 180.784C568.76 181.084 569.59 181.594 570.28 181.794L572.13 186.942L570.15 186.572C570.48 186.952 571.6 187.282 572.32 187.472L574.49 193.52C574.49 193.52 568.87 194.67 566.95 194.61C565.14 194.56 559.94 193.15 559.94 193.15L560.96 190.161Z" fill="#756F52"/>
<path d="M559.94 193.14C559.94 193.14 565.76 194.66 566.95 194.6C568.14 194.54 574.49 193.51 574.49 193.51L573.85 191.741C573.85 191.741 567.74 191.851 567.21 190.981C567.21 190.981 562.26 192.55 560.35 191.941L559.94 193.14Z" fill="#5C573F"/>
<path d="M573.42 190.521C573.42 190.521 568.08 190.041 567.69 189.301C567.69 189.301 572.78 189.711 573.11 189.661L573.42 190.521Z" fill="#5C573F"/>
<path d="M562.42 185.873L565.37 184.943C565.37 184.943 563.07 185.123 562.79 184.773L562.42 185.873Z" fill="#5C573F"/>
<path d="M564.08 180.994C564.08 180.994 565.81 180.404 566.22 179.574C566.22 179.574 564.78 179.984 564.42 179.994L564.08 180.994Z" fill="#5C573F"/>
<path d="M571.65 185.613C571.65 185.613 568.28 184.423 567.95 183.943C567.95 183.943 570.89 184.683 571.43 184.993L571.65 185.613Z" fill="#5C573F"/>
<path d="M567.59 174.337L566.95 173.767L566.35 174.337L566.95 172.547L567.59 174.337Z" fill="#5C573F"/>
<path d="M567.76 199.948V194.85V187.952H566.76V199.948H567.76Z" fill="#665B3C"/>
<path d="M567.76 194.28V187.952H566.76V190.841L567.76 194.28Z" fill="#544B30"/>
<path d="M699.86 187.432C700.89 187.092 704.94 185.683 705.4 184.363L700.48 185.603L701.07 183.863C702.26 183.313 704.69 182.114 705.14 181.174L701.61 182.294L705.76 170.037C706.33 169.637 707.03 168.808 707.03 168.808C707.03 168.808 706.48 169.098 705.97 169.418L707.03 166.289L708.69 170.917L707.35 170.637C707.34 170.897 708.2 171.197 708.86 171.387L710.13 174.936L708.09 174.756C708.42 175.266 709.93 175.996 710.61 176.285L710.76 176.705C709.97 176.655 709.31 176.285 708.92 176.155C709.19 176.515 710.17 177.125 710.99 177.365L713.21 183.553L710.85 183.113C711.24 183.563 712.58 183.963 713.44 184.193L716.04 191.451C716.04 191.451 709.32 192.83 707.03 192.76C704.87 192.69 698.65 191.011 698.65 191.011L699.86 187.432Z" fill="#756F52"/>
<path d="M698.65 191.001C698.65 191.001 705.61 192.82 707.03 192.75C708.45 192.68 716.04 191.441 716.04 191.441L715.28 189.311C715.28 189.311 707.98 189.441 707.35 188.402C707.35 188.402 701.43 190.291 699.15 189.551L698.65 191.001Z" fill="#5C573F"/>
<path d="M714.76 187.862C714.76 187.862 708.38 187.282 707.91 186.402C707.91 186.402 713.99 186.892 714.39 186.832L714.76 187.862Z" fill="#5C573F"/>
<path d="M701.61 182.284L705.14 181.164C705.14 181.164 702.39 181.374 702.06 180.954L701.61 182.284Z" fill="#5C573F"/>
<path d="M703.59 176.426C703.59 176.426 705.66 175.726 706.15 174.726C706.15 174.726 704.43 175.216 703.99 175.236L703.59 176.426Z" fill="#5C573F"/>
<path d="M712.65 181.964C712.65 181.964 708.62 180.534 708.23 179.954C708.23 179.954 711.74 180.844 712.38 181.214L712.65 181.964Z" fill="#5C573F"/>
<path d="M707.8 168.429L707.03 167.759L706.3 168.429L707.03 166.289L707.8 168.429Z" fill="#5C573F"/>
<path d="M707.76 199.948V192.99V184.953H705.76V199.948H707.76Z" fill="#665B3C"/>
<path d="M707.76 192.31V184.953H705.76V188.182L707.76 192.31Z" fill="#544B30"/>
<path d="M534.34 185.463C535.37 185.073 539.42 183.463 539.88 181.964L534.96 183.373L535.55 181.394C536.74 180.774 539.17 179.394 539.62 178.325L536.09 179.594L540.24 165.619C540.81 165.169 541.51 164.219 541.51 164.219C541.51 164.219 540.96 164.549 540.45 164.919L541.51 161.35L543.17 166.628L541.83 166.309C541.82 166.598 542.68 166.938 543.34 167.158L544.61 171.207L542.57 171.007C542.9 171.597 544.41 172.417 545.09 172.757L545.24 173.226C544.45 173.166 543.79 172.747 543.4 172.597C543.67 173.006 544.65 173.706 545.47 173.976L547.69 181.024L545.33 180.514C545.72 181.024 547.06 181.484 547.92 181.744L550.52 190.011C550.52 190.011 543.8 191.581 541.51 191.501C539.35 191.431 533.13 189.501 533.13 189.501L534.34 185.463Z" fill="#756F52"/>
<path d="M533.13 189.531C533.13 189.531 540.09 191.611 541.51 191.531C542.93 191.451 550.52 190.041 550.52 190.041L549.76 187.622C549.76 187.622 542.46 187.772 541.83 186.582C541.83 186.582 535.91 188.732 533.63 187.892L533.13 189.531Z" fill="#5C573F"/>
<path d="M549.23 185.953C549.23 185.953 542.85 185.293 542.38 184.293C542.38 184.293 548.46 184.853 548.86 184.783L549.23 185.953Z" fill="#5C573F"/>
<path d="M536.08 179.595L539.61 178.325C539.61 178.325 536.86 178.565 536.53 178.085L536.08 179.595Z" fill="#5C573F"/>
<path d="M538.07 172.917C538.07 172.917 540.14 172.117 540.63 170.977C540.63 170.977 538.91 171.527 538.47 171.557L538.07 172.917Z" fill="#5C573F"/>
<path d="M547.12 179.235C547.12 179.235 543.09 177.595 542.7 176.945C542.7 176.945 546.21 177.955 546.85 178.385L547.12 179.235Z" fill="#5C573F"/>
<path d="M542.27 163.8L541.51 163.03L540.78 163.8L541.51 161.36L542.27 163.8Z" fill="#5C573F"/>
<path d="M542.76 198.948V191.751V181.954H540.76V198.948H542.76Z" fill="#665B3C"/>
<path d="M542.76 190.981V181.954H540.76V186.272L542.76 190.981Z" fill="#544B30"/>
<path d="M510.89 183.823L516.42 181.734L511.18 182.914L513.35 176.206L516.42 173.456L514.04 174.076L515.81 168.568L517.3 167.898L515.93 168.208L517.3 163.969L522.98 181.284L518.17 180.424L523.71 183.533L525.03 187.562L518 186.662L525.55 189.142L526.8 192.95H507.95L510.89 183.823Z" fill="#707552"/>
<path d="M507.95 192.95H526.8L517.37 190.901L517.3 189.381L507.95 192.95Z" fill="#54573B"/>
<path d="M509.18 188.613L517.3 185.693L509.65 187.153L509.18 188.613Z" fill="#54573B"/>
<path d="M518.17 179.884L522.98 180.744L522.49 179.254L518.17 179.884Z" fill="#54573B"/>
<path d="M520.17 172.187L517.8 170.977L519.97 171.577L520.17 172.187Z" fill="#54573B"/>
<path d="M518.86 168.198L517.3 166.418L516.18 166.898L517.3 163.429L518.86 168.198Z" fill="#54573B"/>
<path d="M518.76 183.953H516.76V198.948H518.76V183.953Z" fill="#63573B"/>
<path d="M518.76 192.73V183.953H516.76V188.362L518.76 192.73Z" fill="#595032"/>
<path d="M719.71 184.823L723.92 182.734L719.94 183.913L721.58 177.205L723.92 174.456L722.1 175.076L723.45 169.568L724.58 168.898L723.54 169.208L724.58 164.969L728.9 182.284L725.25 181.424L729.46 184.533L730.46 188.562L725.11 187.662L730.85 190.141L731.8 193.95H717.48L719.71 184.823Z" fill="#707552"/>
<path d="M717.48 193.95H731.8L724.64 191.901L724.58 190.381L717.48 193.95Z" fill="#54573B"/>
<path d="M718.41 189.642L724.58 186.732L718.77 188.192L718.41 189.642Z" fill="#54573B"/>
<path d="M725.25 180.924L728.9 181.784L728.52 180.294L725.25 180.924Z" fill="#54573B"/>
<path d="M726.76 173.217L724.96 172.017L726.61 172.617L726.76 173.217Z" fill="#54573B"/>
<path d="M725.77 169.238L724.58 167.458L723.73 167.928L724.58 164.469L725.77 169.238Z" fill="#54573B"/>
<path d="M724.76 184.953H723.76V199.948H724.76V184.953Z" fill="#63573B"/>
<path d="M724.76 193.77V184.953H723.76V189.391L724.76 193.77Z" fill="#595032"/>
<path d="M490.21 187.982C491.14 187.662 494.76 186.362 495.17 185.143L490.76 186.282L491.29 184.673C492.36 184.163 494.54 183.053 494.93 182.184L491.77 183.213L495.49 171.877C496 171.507 496.63 170.737 496.63 170.737C496.63 170.737 496.13 171.007 495.68 171.307L496.63 168.418L498.12 172.697L496.92 172.437C496.91 172.677 497.68 172.946 498.27 173.126L499.41 176.415L497.59 176.255C497.88 176.725 499.24 177.405 499.85 177.675L499.98 178.065C499.27 178.015 498.68 177.675 498.33 177.555C498.57 177.895 499.45 178.455 500.19 178.675L502.18 184.393L500.06 183.983C500.41 184.403 501.61 184.773 502.38 184.983L504.71 191.691C504.71 191.691 498.69 192.97 496.64 192.9C494.7 192.84 489.13 191.281 489.13 191.281L490.21 187.982Z" fill="#756F52"/>
<path d="M489.12 191.291C489.12 191.291 495.36 192.97 496.63 192.91C497.9 192.85 504.7 191.701 504.7 191.701L504.02 189.731C504.02 189.731 497.48 189.851 496.91 188.882C496.91 188.882 491.6 190.631 489.56 189.951L489.12 191.291Z" fill="#5C573F"/>
<path d="M503.55 188.382C503.55 188.382 497.83 187.842 497.41 187.032C497.41 187.032 502.86 187.482 503.22 187.432L503.55 188.382Z" fill="#5C573F"/>
<path d="M491.77 183.224L494.93 182.194C494.93 182.194 492.47 182.394 492.17 182.004L491.77 183.224Z" fill="#5C573F"/>
<path d="M493.55 177.805C493.55 177.805 495.4 177.155 495.84 176.235C495.84 176.235 494.3 176.685 493.91 176.705L493.55 177.805Z" fill="#5C573F"/>
<path d="M501.66 182.934C501.66 182.934 498.05 181.604 497.7 181.074C497.7 181.074 500.85 181.894 501.42 182.234L501.66 182.934Z" fill="#5C573F"/>
<path d="M497.32 170.408L496.63 169.788L495.98 170.408L496.63 168.428L497.32 170.408Z" fill="#5C573F"/>
<path d="M497.76 198.948V193.15V184.953H495.76V198.948H497.76Z" fill="#665B3C"/>
<path d="M497.76 192.52V185.952H495.76V188.702L497.76 192.52Z" fill="#544B30"/>
<path d="M473.23 187.102L476.86 185.533L473.42 186.412L474.84 181.374L476.86 179.314L475.29 179.774L476.46 175.646L477.43 175.136L476.54 175.376L477.43 172.187L481.16 185.193L478.01 184.543L481.64 186.882L482.51 189.901L477.89 189.221L482.85 191.091L483.67 193.95H471.3L473.23 187.102Z" fill="#707552"/>
<path d="M471.3 193.951H483.67L477.48 192.411L477.43 191.271L471.3 193.951Z" fill="#54573B"/>
<path d="M472.1 191.092L477.43 188.902L472.41 189.992L472.1 191.092Z" fill="#54573B"/>
<path d="M478.01 184.543L481.16 185.183L480.84 184.063L478.01 184.543Z" fill="#54573B"/>
<path d="M479.32 178.755L477.76 177.855L479.19 178.305L479.32 178.755Z" fill="#54573B"/>
<path d="M478.46 175.766L477.43 174.426L476.7 174.786L477.43 172.187L478.46 175.766Z" fill="#54573B"/>
<path d="M477.76 187.952H476.76V198.948H477.76V187.952Z" fill="#63573B"/>
<path d="M477.76 194.27V187.952H476.76V190.981L477.76 194.27Z" fill="#595032"/>
<path d="M621.13 189.811L624.8 188.392L621.32 189.191L622.76 184.673L624.8 182.823L623.22 183.243L624.4 179.534L625.38 179.085L624.48 179.285L625.38 176.435L629.15 188.092L625.97 187.512L629.64 189.611L630.52 192.321L625.85 191.711L630.86 193.38L631.69 195.949H619.17L621.13 189.811Z" fill="#707552"/>
<path d="M619.17 195.95H631.69L625.43 194.57L625.38 193.55L619.17 195.95Z" fill="#54573B"/>
<path d="M619.99 193.181L625.38 191.221L620.3 192.201L619.99 193.181Z" fill="#54573B"/>
<path d="M625.97 187.312L629.15 187.892L628.83 186.882L625.97 187.312Z" fill="#54573B"/>
<path d="M627.29 182.124L625.72 181.314L627.16 181.724L627.29 182.124Z" fill="#54573B"/>
<path d="M626.42 179.445L625.38 178.245L624.64 178.565L625.38 176.235L626.42 179.445Z" fill="#54573B"/>
<path d="M625.76 189.951H624.76V199.948H625.76V189.951Z" fill="#63573B"/>
<path d="M625.76 196.069V189.951H624.76V193.12L625.76 196.069Z" fill="#595032"/>
<path d="M645.32 188.302C646.1 187.962 649.15 186.552 649.49 185.233L645.78 186.472L646.22 184.733C647.12 184.183 648.95 182.983 649.28 182.044L646.62 183.163L649.75 170.907C650.18 170.507 650.71 169.677 650.71 169.677C650.71 169.677 650.29 169.967 649.91 170.287L650.71 167.158L651.96 171.787L650.95 171.507C650.94 171.767 651.59 172.067 652.09 172.257L653.05 175.806L651.52 175.626C651.77 176.135 652.91 176.865 653.42 177.155L653.53 177.575C652.93 177.525 652.43 177.155 652.14 177.025C652.34 177.385 653.08 177.995 653.7 178.235L655.37 184.423L653.59 183.983C653.88 184.433 654.89 184.833 655.54 185.063L657.5 192.32C657.5 192.32 652.43 193.7 650.71 193.63C649.08 193.56 644.39 191.881 644.39 191.881L645.32 188.302Z" fill="#756F52"/>
<path d="M644.41 191.871C644.41 191.871 649.65 193.69 650.73 193.62C651.81 193.55 657.52 192.31 657.52 192.31L656.95 190.181C656.95 190.181 651.45 190.311 650.97 189.271C650.97 189.271 646.51 191.161 644.79 190.421L644.41 191.871Z" fill="#5C573F"/>
<path d="M656.54 188.722C656.54 188.722 651.73 188.142 651.38 187.262C651.38 187.262 655.96 187.752 656.27 187.692L656.54 188.722Z" fill="#5C573F"/>
<path d="M646.63 183.154L649.29 182.034C649.29 182.034 647.22 182.244 646.97 181.824L646.63 183.154Z" fill="#5C573F"/>
<path d="M648.13 177.286C648.13 177.286 649.69 176.586 650.06 175.586C650.06 175.586 648.77 176.076 648.44 176.096L648.13 177.286Z" fill="#5C573F"/>
<path d="M654.95 182.834C654.95 182.834 651.91 181.404 651.62 180.824C651.62 180.824 654.27 181.714 654.75 182.084L654.95 182.834Z" fill="#5C573F"/>
<path d="M651.3 169.288L650.72 168.618L650.17 169.288L650.72 167.148L651.3 169.288Z" fill="#5C573F"/>
<path d="M650.76 200.948V193.86V185.952H649.76V200.948H650.76Z" fill="#665B3C"/>
<path d="M650.76 193.18V185.952H649.76V189.051L650.76 193.18Z" fill="#544B30"/>
<path d="M692.14 191.661C692.86 191.421 695.67 190.441 695.99 189.521L692.58 190.381L692.99 189.161C693.82 188.782 695.51 187.942 695.81 187.282L693.36 188.062L696.24 179.504C696.63 179.225 697.12 178.645 697.12 178.645C697.12 178.645 696.74 178.845 696.38 179.075L697.12 176.895L698.27 180.124L697.34 179.924C697.33 180.104 697.93 180.314 698.39 180.444L699.27 182.923L697.86 182.803C698.09 183.163 699.14 183.673 699.61 183.873L699.71 184.163C699.16 184.123 698.7 183.873 698.43 183.783C698.61 184.033 699.3 184.463 699.87 184.633L701.41 188.951L699.77 188.642C700.04 188.951 700.97 189.241 701.57 189.391L703.37 194.46C703.37 194.46 698.7 195.419 697.11 195.37C695.61 195.32 691.29 194.15 691.29 194.15L692.14 191.661Z" fill="#756F52"/>
<path d="M691.3 194.15C691.3 194.15 696.13 195.42 697.12 195.37C698.11 195.32 703.38 194.46 703.38 194.46L702.85 192.98C702.85 192.98 697.78 193.07 697.34 192.34C697.34 192.34 693.23 193.66 691.64 193.15L691.3 194.15Z" fill="#5C573F"/>
<path d="M702.48 191.951C702.48 191.951 698.05 191.551 697.72 190.931C697.72 190.931 701.94 191.271 702.22 191.231L702.48 191.951Z" fill="#5C573F"/>
<path d="M693.35 188.062L695.8 187.282C695.8 187.282 693.89 187.432 693.66 187.132L693.35 188.062Z" fill="#5C573F"/>
<path d="M694.73 183.973C694.73 183.973 696.17 183.483 696.51 182.783C696.51 182.783 695.32 183.123 695.01 183.133L694.73 183.973Z" fill="#5C573F"/>
<path d="M701.01 187.842C701.01 187.842 698.21 186.842 697.94 186.442C697.94 186.442 700.38 187.062 700.82 187.322L701.01 187.842Z" fill="#5C573F"/>
<path d="M697.65 178.385L697.12 177.915L696.61 178.385L697.12 176.895L697.65 178.385Z" fill="#5C573F"/>
<path d="M697.76 199.948V195.629V189.951H696.76V199.948H697.76Z" fill="#665B3C"/>
<path d="M697.76 195.16V189.951H696.76V192.28L697.76 195.16Z" fill="#544B30"/>
<path d="M547.51 191.731C548.37 191.501 551.75 190.561 552.13 189.691L548.03 190.511L548.52 189.351C549.52 188.991 551.54 188.182 551.91 187.562L548.97 188.302L552.44 180.144C552.91 179.884 553.5 179.324 553.5 179.324C553.5 179.324 553.04 179.514 552.62 179.734L553.5 177.655L554.88 180.734L553.76 180.544C553.75 180.714 554.47 180.914 555.02 181.044L556.08 183.413L554.38 183.293C554.65 183.633 555.91 184.123 556.48 184.313L556.6 184.593C555.94 184.563 555.39 184.313 555.07 184.223C555.29 184.463 556.11 184.873 556.8 185.033L558.65 189.151L556.68 188.852C557.01 189.151 558.12 189.421 558.84 189.571L561.01 194.4C561.01 194.4 555.4 195.32 553.49 195.27C551.69 195.23 546.5 194.1 546.5 194.1L547.51 191.731Z" fill="#756F52"/>
<path d="M546.5 194.11C546.5 194.11 552.3 195.32 553.49 195.28C554.67 195.23 561.01 194.41 561.01 194.41L560.37 192.99C560.37 192.99 554.28 193.08 553.75 192.38C553.75 192.38 548.81 193.64 546.91 193.15L546.5 194.11Z" fill="#5C573F"/>
<path d="M559.93 192.021C559.93 192.021 554.61 191.631 554.21 191.051C554.21 191.051 559.28 191.371 559.62 191.341L559.93 192.021Z" fill="#5C573F"/>
<path d="M548.96 188.302L551.9 187.562C551.9 187.562 549.61 187.702 549.33 187.422L548.96 188.302Z" fill="#5C573F"/>
<path d="M550.62 184.403C550.62 184.403 552.34 183.933 552.76 183.273C552.76 183.273 551.33 183.593 550.96 183.613L550.62 184.403Z" fill="#5C573F"/>
<path d="M558.17 188.092C558.17 188.092 554.81 187.132 554.48 186.752C554.48 186.752 557.41 187.342 557.95 187.592L558.17 188.092Z" fill="#5C573F"/>
<path d="M554.13 179.075L553.49 178.625L552.88 179.075L553.49 177.655L554.13 179.075Z" fill="#5C573F"/>
<path d="M553.76 199.948V195.539V189.951H552.76V199.948H553.76Z" fill="#665B3C"/>
<path d="M553.76 195.09V189.951H552.76V192.34L553.76 195.09Z" fill="#544B30"/>
<path d="M667.24 186.802L671.16 184.933L667.45 185.983L668.98 179.995L671.16 177.535L669.47 178.085L670.73 173.167L671.78 172.567L670.81 172.847L671.78 169.058L675.81 184.523L672.4 183.753L676.33 186.532L677.27 190.141L672.28 189.332L677.63 191.541L678.52 194.95H665.15L667.24 186.802Z" fill="#707552"/>
<path d="M665.15 194.951H678.52L671.84 193.121L671.78 191.761L665.15 194.951Z" fill="#54573B"/>
<path d="M666.02 190.802L671.78 188.202L666.36 189.502L666.02 190.802Z" fill="#54573B"/>
<path d="M672.4 183.014L675.81 183.784L675.46 182.444L672.4 183.014Z" fill="#54573B"/>
<path d="M673.82 176.126L672.14 175.056L673.68 175.586L673.82 176.126Z" fill="#54573B"/>
<path d="M672.89 172.567L671.78 170.977L670.99 171.407L671.78 168.308L672.89 172.567Z" fill="#54573B"/>
<path d="M672.76 186.952H671.76V199.948H672.76V186.952Z" fill="#63573B"/>
<path d="M672.76 194.52V186.952H671.76V190.611L672.76 194.52Z" fill="#595032"/>
<path d="M597.51 189.811L601.48 188.402L597.72 189.202L599.27 184.683L601.48 182.834L599.77 183.253L601.04 179.545L602.11 179.095L601.12 179.305L602.11 176.456L606.18 188.102L602.73 187.522L606.71 189.611L607.66 192.331L602.61 191.721L608.03 193.38L608.92 195.95H595.4L597.51 189.811Z" fill="#707552"/>
<path d="M595.4 195.95H608.92L602.16 194.57L602.11 193.55L595.4 195.95Z" fill="#54573B"/>
<path d="M596.28 192.791L602.11 190.821L596.61 191.801L596.28 192.791Z" fill="#54573B"/>
<path d="M602.73 186.922L606.18 187.502L605.83 186.492L602.73 186.922Z" fill="#54573B"/>
<path d="M604.16 181.734L602.47 180.924L604.02 181.334L604.16 181.734Z" fill="#54573B"/>
<path d="M603.23 179.056L602.11 177.856L601.3 178.176L602.11 175.846L603.23 179.056Z" fill="#54573B"/>
<path d="M602.76 189.951H601.76V199.948H602.76V189.951Z" fill="#63573B"/>
<path d="M602.76 195.669V189.951H601.76V192.72L602.76 195.669Z" fill="#595032"/>
<path d="M572.69 184.853L576.6 182.754L572.9 183.933L574.43 177.245L576.6 174.496L574.91 175.116L576.17 169.618L577.22 168.958L576.25 169.258L577.22 165.029L581.23 182.314L577.84 181.454L581.75 184.553L582.68 188.572L577.71 187.672L583.05 190.141L583.93 193.95H570.61L572.69 184.853Z" fill="#707552"/>
<path d="M570.61 193.95H583.93L577.27 191.911L577.22 190.391L570.61 193.95Z" fill="#54573B"/>
<path d="M571.48 189.762L577.22 186.852L571.81 188.302L571.48 189.762Z" fill="#54573B"/>
<path d="M577.84 181.054L581.23 181.914L580.88 180.424L577.84 181.054Z" fill="#54573B"/>
<path d="M579.24 173.367L577.57 172.167L579.1 172.767L579.24 173.367Z" fill="#54573B"/>
<path d="M578.32 169.398L577.22 167.618L576.43 168.088L577.22 164.639L578.32 169.398Z" fill="#54573B"/>
<path d="M577.76 184.953H576.76V199.948H577.76V184.953Z" fill="#63573B"/>
<path d="M577.76 193.88V184.953H576.76V189.511L577.76 193.88Z" fill="#595032"/>
<path d="M526.64 187.812L530.24 186.172L526.83 187.102L528.24 181.854L530.24 179.694L528.69 180.184L529.85 175.876L530.81 175.356L529.92 175.596L530.81 172.277L534.51 185.823L531.38 185.153L534.99 187.582L535.85 190.741L531.27 190.031L536.19 191.971L537 194.95H524.73L526.64 187.812Z" fill="#707552"/>
<path d="M524.73 194.951H537L530.86 193.351L530.81 192.161L524.73 194.951Z" fill="#54573B"/>
<path d="M525.52 191.581L530.81 189.291L525.83 190.441L525.52 191.581Z" fill="#54573B"/>
<path d="M531.38 184.753L534.51 185.433L534.19 184.263L531.38 184.753Z" fill="#54573B"/>
<path d="M532.68 178.725L531.14 177.785L532.55 178.255L532.68 178.725Z" fill="#54573B"/>
<path d="M531.83 175.616L530.81 174.216L530.09 174.596L530.81 171.887L531.83 175.616Z" fill="#54573B"/>
<path d="M531.76 187.952H530.76V199.948H531.76V187.952Z" fill="#63573B"/>
<path d="M531.76 194.88V187.952H530.76V191.451L531.76 194.88Z" fill="#595032"/>
<path d="M459.1 191.951C459.69 191.751 462.02 190.911 462.28 190.121L459.45 190.861L459.79 189.821C460.48 189.491 461.87 188.782 462.13 188.222L460.1 188.882L462.49 181.584C462.82 181.344 463.22 180.854 463.22 180.854C463.22 180.854 462.9 181.024 462.61 181.224L463.22 179.364L464.17 182.124L463.4 181.944C463.39 182.094 463.89 182.274 464.27 182.394L465 184.513L463.83 184.403C464.02 184.713 464.89 185.143 465.28 185.313L465.37 185.563C464.91 185.533 464.53 185.313 464.31 185.233C464.46 185.453 465.03 185.812 465.5 185.952L466.77 189.631L465.41 189.371C465.63 189.641 466.4 189.881 466.9 190.011L468.39 194.33C468.39 194.33 464.53 195.15 463.21 195.11C461.97 195.07 458.39 194.07 458.39 194.07L459.1 191.951Z" fill="#756F52"/>
<path d="M458.4 194.07C458.4 194.07 462.4 195.15 463.22 195.11C464.04 195.07 468.4 194.33 468.4 194.33L467.96 193.06C467.96 193.06 463.76 193.14 463.4 192.52C463.4 192.52 460 193.64 458.68 193.21L458.4 194.07Z" fill="#5C573F"/>
<path d="M467.66 192.201C467.66 192.201 463.99 191.861 463.72 191.331C463.72 191.331 467.21 191.621 467.45 191.591L467.66 192.201Z" fill="#5C573F"/>
<path d="M460.1 188.882L462.13 188.222C462.13 188.222 460.55 188.352 460.36 188.102L460.1 188.882Z" fill="#5C573F"/>
<path d="M461.24 185.393C461.24 185.393 462.43 184.973 462.71 184.383C462.71 184.383 461.72 184.673 461.47 184.683L461.24 185.393Z" fill="#5C573F"/>
<path d="M466.44 188.692C466.44 188.692 464.12 187.842 463.9 187.502C463.9 187.502 465.92 188.032 466.29 188.252L466.44 188.692Z" fill="#5C573F"/>
<path d="M463.66 180.634L463.22 180.224L462.8 180.634L463.22 179.354L463.66 180.634Z" fill="#5C573F"/>
<path d="M463.76 198.948V194.99V189.951H462.76V198.948H463.76Z" fill="#665B3C"/>
<path d="M463.76 194.49V189.951H462.76V192.031L463.76 194.49Z" fill="#544B30"/>
<path d="M0 199.978V471.154H736V197.339L0 199.978ZM631.33 350.641C631.33 350.641 630.45 371.085 610.64 381.722C580.03 398.157 516.22 380.152 516.22 380.152C437.12 395.098 401.16 425.628 214.92 379.433C214.92 379.433 173.9 390.219 144.63 383.411C118.83 377.413 97.95 364.407 104.68 339.615C106.79 331.827 109.77 330.558 118.74 320.131C118.74 320.131 117.8 313.143 97.01 304.446C97.01 304.446 97.75 302.826 100.84 302.316C108.02 301.147 122.95 300.737 135.38 303.116C135.38 303.116 136.51 291.97 120.83 278.184C120.83 278.184 121.96 271.426 138.97 274.025C138.97 274.025 141.05 269.157 133.87 260.089C133.87 260.089 131.6 251.162 150.03 246.634C159.57 244.284 172.64 246.634 172.64 246.634C172.64 246.634 176.25 240.546 166.75 229.439C166.75 229.439 171.1 199.968 251.98 221.501C265.27 225.04 453.43 226.41 475.16 219.232C481.02 216.963 565.3 200.438 559.62 225.5C559.62 225.5 558.67 228.379 559.35 228.909C559.35 228.909 567.15 226.28 577.49 226.78C586.14 227.21 591.66 234.427 591.95 238.396C591.95 238.396 585.24 248.113 587.13 250.862C587.13 250.862 603.52 249.773 611.04 253.032C612.78 253.791 601.36 257.82 589.42 269.217C586.43 272.076 580.62 289.12 580.62 289.12L627.68 285.152L632.78 341.264L631.33 350.641Z" fill="#EEEFF0"/>
<path d="M103.77 343.884C103.77 343.884 103.97 341.814 105.2 338.655C105.83 337.056 106.72 335.166 107.99 333.137C109.86 330.138 111.14 329.098 112.45 327.539C114.06 325.629 115.74 323.31 118.73 320.121L118.07 318.421C112.66 322.43 111.65 324.41 109.26 327.679C105.44 332.907 103.46 338.815 103.77 343.884Z" fill="#B5B3B2"/>
<path d="M135.36 303.136C135.36 303.136 124.36 300.997 109.4 301.527C102.96 302.036 98.01 302.506 97 304.456C97 304.456 98.3 301.437 101.6 299.887C107.11 297.298 126.1 298.378 128.61 298.668C132.3 299.097 135.37 300.777 135.37 300.777V303.136H135.36Z" fill="#B5B3B2"/>
<path d="M120.81 278.194C120.81 278.194 121.24 275.475 127.41 273.815C127.41 273.815 130 273.465 138.95 274.035C138.95 274.035 139.28 273.005 139.17 272.096C139.12 271.686 128.04 270.766 126.06 271.896C126.06 271.896 122.94 273.425 121.67 275.105C120.81 276.224 120.81 278.194 120.81 278.194Z" fill="#B5B3B2"/>
<path d="M133.85 260.109C133.85 260.109 133.01 254.861 139.24 250.962C145.47 247.064 152.98 246.074 152.98 246.074C152.98 246.074 162.15 245.494 165.51 245.814C168.87 246.134 172.62 246.654 172.62 246.654C172.62 246.654 173.28 245.804 173.28 243.805C173.28 243.335 161.74 242.925 159.08 242.825C156.46 242.735 146.7 243.705 141.6 246.844C138.32 248.863 134.49 251.302 133.29 255.061C133.28 255.051 133.16 259.21 133.85 260.109Z" fill="#B5B3B2"/>
<path d="M166.73 229.759C166.73 229.759 167.3 221.261 183.17 216.153C183.17 216.153 194.32 213.604 204.81 213.984C215.3 214.364 234.95 217.543 237.5 218.422C238.67 218.822 252.07 221.851 252.07 221.851C252.07 221.851 256.87 222.861 258.47 222.671C258.47 222.671 304.77 224.97 306.94 224.341C306.94 224.341 365.71 225.2 366.28 224.69C366.28 224.69 440.74 223.971 443.19 222.961C443.19 222.961 468.51 222.081 475.13 219.462C475.13 219.462 497.62 214.923 499.51 214.743C501.4 214.564 520.86 212.384 522.57 212.474C522.57 212.474 541.56 211.714 547.99 213.514C554.42 215.313 557.53 217.583 558.81 219.562C560.09 221.541 559.72 224.57 559.72 224.57C559.72 224.57 560.58 221.561 560.2 220.052C559.82 218.542 558.32 216.743 557.34 215.753C555.64 214.024 552.69 212.794 550.63 212.254C543.35 210.345 538.72 210.695 536.55 210.575C532.54 210.355 514.96 210.495 513.31 211.115C513.31 211.115 500.46 212.624 496.77 213.004C493.08 213.384 478.91 216.403 475.98 216.973C473.05 217.543 468.21 219.242 461.71 219.822C455.4 220.392 432.42 221.601 430.34 221.601L397.55 221.981C397.55 221.981 361.36 223.211 359.28 222.641C359.28 222.641 323.75 222.761 320.16 222.551C317.59 222.401 290.59 222.271 286.43 222.171C286.43 222.171 257.29 220.252 256.1 220.162C251.56 219.822 240.13 217.253 238.71 216.783C237.29 216.313 217.26 212.154 204.6 212.244C191.94 212.334 183.43 213.524 179.75 214.983C176.99 216.083 171.53 218.672 169.26 221.781C168.81 222.461 166.54 225.89 166.73 229.759Z" fill="#B5B3B2"/>
<path d="M559.33 229.119C559.33 229.119 564.28 226.92 574.92 226.85C581.91 226.8 590.94 232.328 591.93 238.416C591.93 238.416 591.93 233.738 590.37 231.618C588.81 229.489 585.55 225.1 575.77 224.251C565.99 223.401 559.1 227.869 559.1 227.869C559.1 227.869 558.7 228.269 559.33 229.119Z" fill="#B5B3B2"/>
<path d="M587.11 250.892C587.11 250.892 605.44 250.562 611.02 253.062C611.02 253.062 609.7 249.853 602.61 249.283C595.52 248.713 586.78 248.163 586.62 248.893C586.44 249.723 587.11 250.892 587.11 250.892Z" fill="#B5B3B2"/>
<path d="M736 259.26L698.47 266.817L618.22 264.928L559.27 283.442L548.35 300.187L549.03 305.415L559.27 329.158L614.04 356.36L666.76 357.159L702.65 375.254H736V259.26Z" fill="#8FA9A9"/>
<path d="M736 256.661L698.7 264.218L618.95 262.329L560.37 280.843L549.03 300.107L560.37 326.559L614.8 353.76H668.84L702.86 372.655H736V256.661Z" fill="#A7C4C4"/>
<path d="M736 372.655H702.86L668.84 354.18H614.8L560.37 327.589L549.03 301.737L560.37 282.892L618.95 264.798L698.7 266.647L736 259.26V268.857L699.93 278.004L621.98 273.295L572.65 289.36L563.87 304.316L570.67 318.721L618.57 341.994L669.88 344.213L706.45 360.558L736 360.278V372.655Z" fill="#8FA9A9"/>
<path d="M736 372.655H702.86L667.61 355.18L614.8 354.18L560.37 327.589L548.35 300.187L560.37 280.843L618.95 262.329L698.7 264.218L736 256.661V266.477L699.93 275.835L621.98 271.016L572.65 287.451L563.87 302.756L570.67 317.492L618.57 341.294L669.88 343.564L706.45 360.278L736 359.999V372.655Z" fill="#BCCCCC"/>
<path d="M621.98 271.016L619.99 264.968L621.41 271.016H621.98Z" fill="#8FA9A9"/>
<path d="M572.65 287.451L567.08 283.292L572.36 287.971L572.65 287.451Z" fill="#8FA9A9"/>
<path d="M563.87 302.756H557.54L564.18 302.206L563.87 302.756Z" fill="#8FA9A9"/>
<path d="M570.67 317.492L566.32 320.981L570.38 316.872L570.67 317.492Z" fill="#8FA9A9"/>
<path d="M618.01 341.294L617.44 348.232V340.734L618.01 341.294Z" fill="#8FA9A9"/>
<path d="M706.55 360.278L705.23 367.366L705.89 359.989L706.55 360.278Z" fill="#8FA9A9"/>
<path d="M707.39 283.772L724.4 289.06H733.84L732.72 273.945L707.39 282.732V283.772Z" fill="#8FA9A9"/>
<path d="M713.44 348.472L713.51 349.052L720.15 355.79L730.83 355.93V355.27L713.44 348.472Z" fill="#8FA9A9"/>
<path d="M678.18 336.566V335.566L688.87 330.198L713.09 340.635L713.03 341.644L692.28 347.192L678.18 336.566Z" fill="#8FA9A9"/>
<path d="M707.39 282.732L724.4 288.021H733.84L732.72 272.905L707.39 282.732Z" fill="#BCCCCC"/>
<path d="M678.18 335.566L688.87 329.198L713.44 340.535L692.28 346.203L678.18 335.566Z" fill="#BCCCCC"/>
<path d="M713.44 348.392L720.62 355.19H730.83L713.44 348.392Z" fill="#BCCCCC"/>
<path d="M736 471.154H0V549H736V471.154Z" fill="#EEEFF0"/>
<path d="M227.93 135.418L375.33 142.596C375.33 142.596 382.51 140.706 351.33 139.007C351.33 139.007 361.48 129.75 330.61 129.37C330.61 129.37 343.2 123.132 299.36 124.831C299.36 124.831 304.78 109.436 265.05 124.841C264.24 125.151 264.3 113.835 242.95 127.9C241.71 128.72 244.69 128.16 242.95 127.9C217.06 124.092 225.72 131.239 225.72 131.239L213.56 132.399C213.56 132.389 195.8 134.888 227.93 135.418Z" fill="#D5E1EB"/>
</svg>
