<svg width="60" height="48" viewBox="0 0 60 48" fill="none" xmlns="http://www.w3.org/2000/svg">
<g clip-path="url(#clip0_63_2)">
<path d="M35.3 46.76C46.07 42.29 52.78 46.39 52.48 42.12C52.18 37.84 62.61 35.31 57.22 31.55C51.83 27.79 34.8 4.42 4.48001 29.59C9.05991e-06 33.05 -2.24999 34.73 3.20001 37.89C8.61001 41.03 6.63001 47.1 20.19 46.87C31.07 46.69 28.64 49.52 35.3 46.76Z" fill="#EEEFF0"/>
<path d="M10.04 28.38C10.04 28.38 6.40001 30.69 9.52001 34.19C14.29 39.54 22.92 33.69 27.2 35.82C31.43 37.92 36.88 37.12 38.37 37.1C46.23 36.97 47.15 30.69 47.15 30.69C46.69 26.87 47.84 23.73 31.9 22.49C15.46 21.2 14.44 22.83 10.04 28.38Z" fill="#B5B3B2"/>
<path d="M12.79 30.72C12.79 30.72 6.69001 34.01 12.23 35.75C18.02 37.56 24.33 33.68 27.59 36.06C30.85 38.44 40.26 37.38 42.73 36.18C44.95 35.1 44.96 32.9 44.77 31.89C44.35 29.66 45.26 27.91 31.63 26.89C17.58 25.83 16.56 26.18 12.79 30.72Z" fill="#826A5F"/>
<path d="M14.13 32.41C14.13 32.41 7.70002 34.78 12.49 36.04C17.51 37.36 24.19 34.47 26.94 36.28C30.15 38.39 39.13 37.57 41.27 36.69C43.19 35.91 42.87 33.56 42.71 32.83C42.35 31.21 42.24 30.36 30.44 29.62C18.27 28.86 17.39 29.11 14.13 32.41Z" fill="#AB9489"/>
<path d="M27.08 27.54C27.08 27.54 29 32.6 21.88 32.59C14.76 32.58 16.41 33.29 16.41 33.29C16.41 33.29 12.45 34.04 10.88 31.91C9.30999 29.78 7.79999 31.41 6.77999 31.48C5.08999 31.6 2.39999 29.44 2.97999 26.27C3.55999 23.1 1.86999 23.68 1.78999 22.79C1.69999 21.9 1.99999 20.99 3.99999 20.45C5.99999 19.91 10.35 18.35 12.2 19.02C14.05 19.69 15.32 20.37 16.99 20.15C18.66 19.93 21.26 22.35 20.76 23.25C20.26 24.15 24.77 25.18 24.77 25.18C24.77 25.18 26.9 25.5 27.08 27.54Z" fill="#A3A3A3"/>
<path d="M25.52 27.39C25.52 27.39 27.29 31.95 20.76 31.92C14.23 31.89 15.75 32.54 15.75 32.54C15.75 32.54 12.12 33.2 10.68 31.29C9.23998 29.38 7.85999 30.84 6.91999 30.9C5.36999 31 2.88999 29.06 3.42999 26.2C3.96999 23.34 2.40999 23.86 2.32999 23.07C2.24999 22.26 2.51999 21.44 4.34999 20.96C6.17999 20.48 10.17 19.09 11.87 19.69C13.57 20.3 14.73 20.92 16.26 20.71C17.79 20.5 20.18 22.7 19.72 23.51C19.26 24.32 23.4 25.26 23.4 25.26C23.4 25.26 25.34 25.55 25.52 27.39Z" fill="#D4D4D4"/>
<path d="M4.87997 25.17C5.57997 27.1 6.75997 27.87 7.63997 27.42C8.51997 26.97 9.35997 28.05 9.97997 27.83C10.61 27.61 13.43 26.55 12.02 25.49C10.61 24.43 12.3 22.69 10.39 22.29C8.47997 21.89 8.36997 21.21 6.74997 22.46C5.13997 23.69 4.53997 24.22 4.87997 25.17Z" fill="#CCCCCC"/>
<path d="M5.99997 24.97C6.48997 26.47 7.30997 27.07 7.89997 26.72C8.48997 26.37 9.07997 27.21 9.49997 27.04C9.92997 26.87 11.85 26.06 10.88 25.24C9.90997 24.42 11.05 23.08 9.73997 22.76C8.42997 22.44 8.34997 21.92 7.25997 22.87C6.15997 23.83 5.75997 24.24 5.99997 24.97Z" fill="#E8E8E8"/>
<path d="M10.71 29.27C11.41 31.2 12.59 31.97 13.47 31.52C14.35 31.06 15.19 32.15 15.81 31.93C16.44 31.71 19.26 30.65 17.85 29.59C16.44 28.53 18.13 26.79 16.22 26.39C14.31 25.99 14.2 25.31 12.58 26.56C10.97 27.79 10.37 28.32 10.71 29.27Z" fill="#CCCCCC"/>
<path d="M11.83 29.07C12.32 30.57 13.14 31.17 13.73 30.82C14.32 30.47 14.91 31.31 15.33 31.14C15.76 30.97 17.68 30.16 16.71 29.34C15.74 28.51 16.88 27.18 15.57 26.86C14.26 26.54 14.18 26.02 13.09 26.97C12 27.93 11.59 28.34 11.83 29.07Z" fill="#E8E8E8"/>
<path d="M12.27 25.2C12.97 27.13 14.15 27.9 15.03 27.45C15.91 26.99 16.75 28.08 17.37 27.86C18 27.64 20.82 26.58 19.41 25.52C18 24.46 19.69 22.72 17.78 22.32C15.87 21.92 15.76 21.24 14.14 22.49C12.52 23.72 11.93 24.25 12.27 25.2Z" fill="#CCCCCC"/>
<path d="M13.39 25.01C13.88 26.51 14.7 27.11 15.29 26.76C15.88 26.41 16.47 27.25 16.89 27.08C17.32 26.91 19.24 26.1 18.27 25.28C17.3 24.46 18.44 23.12 17.13 22.8C15.82 22.48 15.74 21.96 14.65 22.91C13.55 23.86 13.15 24.27 13.39 25.01Z" fill="#E8E8E8"/>
<path d="M18.46 28.46C19.06 30.05 20.1 30.67 20.87 30.3C21.64 29.92 22.37 30.81 22.92 30.63C23.47 30.44 25.95 29.57 24.72 28.7C23.49 27.83 24.98 26.4 23.3 26.08C21.63 25.75 21.54 25.2 20.11 26.22C18.69 27.24 18.17 27.68 18.46 28.46Z" fill="#CCCCCC"/>
<path d="M19.44 28.29C19.86 29.52 20.58 30.01 21.1 29.72C21.62 29.43 22.13 30.12 22.5 29.98C22.87 29.84 24.56 29.17 23.72 28.5C22.88 27.82 23.88 26.72 22.73 26.47C21.58 26.22 21.52 25.78 20.55 26.57C19.59 27.36 19.24 27.69 19.44 28.29Z" fill="#E8E8E8"/>
<path d="M14.36 28.56C14.96 30.15 16 30.77 16.77 30.4C17.54 30.03 18.27 30.91 18.82 30.73C19.37 30.54 21.85 29.67 20.62 28.8C19.39 27.93 20.88 26.5 19.2 26.18C17.53 25.85 17.44 25.3 16.01 26.32C14.59 27.35 14.07 27.78 14.36 28.56Z" fill="#CCCCCC"/>
<path d="M15.34 28.4C15.76 29.63 16.48 30.12 17 29.83C17.52 29.54 18.03 30.23 18.4 30.09C18.77 29.95 20.46 29.28 19.62 28.61C18.78 27.93 19.78 26.83 18.63 26.58C17.48 26.33 17.42 25.89 16.45 26.68C15.49 27.46 15.13 27.8 15.34 28.4Z" fill="#E8E8E8"/>
<path d="M6.26001 28.3601C6.85001 29.7401 7.87001 30.2801 8.65001 29.9501C9.42001 29.6201 10.14 30.39 10.69 30.22C11.24 30.06 13.73 29.2801 12.51 28.5301C11.29 27.7801 12.79 26.53 11.12 26.25C9.45001 25.98 9.37001 25.49 7.93001 26.39C6.49001 27.29 5.98001 27.6901 6.26001 28.3601Z" fill="#CCCCCC"/>
<path d="M7.23999 28.22C7.64999 29.29 8.35999 29.71 8.87999 29.45C9.39999 29.19 9.89999 29.79 10.28 29.67C10.66 29.54 12.35 28.96 11.51 28.37C10.67 27.79 11.69 26.82 10.54 26.61C9.39999 26.39 9.33999 26.02 8.35999 26.71C7.39999 27.4 7.03999 27.69 7.23999 28.22Z" fill="#E8E8E8"/>
<path d="M6.17002 22.95C6.72002 24.54 7.65002 25.17 8.33002 24.8C9.01002 24.43 9.67002 25.32 10.16 25.14C10.65 24.96 12.85 24.09 11.75 23.22C10.65 22.35 11.96 20.92 10.46 20.59C8.96002 20.26 8.88002 19.7 7.62002 20.72C6.37002 21.73 5.90002 22.17 6.17002 22.95Z" fill="#CCCCCC"/>
<path d="M7.05003 22.79C7.44003 24.02 8.08003 24.51 8.54003 24.23C9.00003 23.94 9.46003 24.64 9.79003 24.5C10.12 24.36 11.62 23.7 10.86 23.02C10.1 22.34 10.98 21.25 9.96003 20.98C8.94003 20.72 8.87003 20.28 8.02003 21.07C7.17003 21.86 6.86003 22.19 7.05003 22.79Z" fill="#E8E8E8"/>
<path d="M9.17998 23.71C9.77998 25.3 10.82 25.92 11.59 25.55C12.36 25.17 13.09 26.06 13.64 25.88C14.19 25.69 16.67 24.82 15.44 23.95C14.21 23.08 15.7 21.65 14.02 21.33C12.34 21.01 12.26 20.45 10.83 21.47C9.39998 22.49 8.87998 22.93 9.17998 23.71Z" fill="#CCCCCC"/>
<path d="M10.16 23.55C10.58 24.78 11.3 25.27 11.82 24.98C12.34 24.69 12.85 25.38 13.22 25.24C13.59 25.1 15.28 24.43 14.44 23.76C13.6 23.08 14.6 21.98 13.45 21.73C12.31 21.47 12.24 21.04 11.27 21.83C10.3 22.61 9.94999 22.95 10.16 23.55Z" fill="#E8E8E8"/>
<path d="M8.75998 26.42C9.35998 28.01 10.4 28.63 11.17 28.26C11.94 27.88 12.67 28.77 13.22 28.59C13.77 28.4 16.25 27.53 15.02 26.66C13.79 25.79 15.28 24.36 13.6 24.04C11.92 23.72 11.84 23.16 10.41 24.18C8.98998 25.2 8.46998 25.64 8.75998 26.42Z" fill="#CCCCCC"/>
<path d="M9.73997 26.26C10.16 27.49 10.88 27.98 11.4 27.69C11.92 27.4 12.43 28.09 12.8 27.95C13.17 27.81 14.86 27.14 14.02 26.47C13.18 25.79 14.18 24.69 13.03 24.44C11.88 24.19 11.82 23.75 10.85 24.54C9.88997 25.32 9.52997 25.66 9.73997 26.26Z" fill="#E8E8E8"/>
<path d="M10.2 26.16C10.59 27.27 11.25 27.72 11.74 27.45C12.23 27.18 12.7 27.81 13.04 27.69C13.39 27.56 14.96 26.96 14.17 26.34C13.39 25.73 14.32 24.73 13.26 24.5C12.2 24.27 12.13 23.88 11.24 24.59C10.34 25.31 10.01 25.62 10.2 26.16Z" fill="#CCCCCC"/>
<path d="M10.82 26.05C11.1 26.91 11.55 27.26 11.88 27.06C12.21 26.86 12.54 27.35 12.77 27.25C13.01 27.15 14.07 26.69 13.53 26.22C12.99 25.74 13.62 24.98 12.89 24.79C12.16 24.6 12.12 24.3 11.51 24.85C10.91 25.39 10.69 25.63 10.82 26.05Z" fill="#E8E8E8"/>
<path d="M7.37 22.76C7.76 23.87 8.42 24.32 8.91 24.05C9.4 23.79 9.87 24.41 10.21 24.29C10.56 24.16 12.13 23.56 11.34 22.94C10.55 22.32 11.49 21.33 10.43 21.1C9.37 20.87 9.3 20.48 8.4 21.2C7.5 21.92 7.17 22.22 7.37 22.76Z" fill="#CCCCCC"/>
<path d="M7.99002 22.65C8.27002 23.51 8.72002 23.86 9.05002 23.66C9.38002 23.46 9.71002 23.95 9.94002 23.85C10.18 23.75 11.24 23.29 10.7 22.82C10.16 22.35 10.79 21.58 10.06 21.39C9.33002 21.2 9.29002 20.9 8.68002 21.45C8.07002 22 7.85002 22.23 7.99002 22.65Z" fill="#E8E8E8"/>
<path d="M15.93 28.36C16.32 29.47 16.98 29.92 17.47 29.65C17.96 29.39 18.43 30.01 18.77 29.89C19.12 29.76 20.69 29.16 19.9 28.54C19.12 27.93 20.05 26.93 18.99 26.7C17.93 26.47 17.86 26.08 16.97 26.79C16.07 27.51 15.74 27.81 15.93 28.36Z" fill="#CCCCCC"/>
<path d="M16.56 28.25C16.84 29.11 17.29 29.46 17.62 29.26C17.95 29.06 18.28 29.55 18.51 29.45C18.74 29.35 19.81 28.89 19.27 28.42C18.73 27.94 19.36 27.18 18.63 26.99C17.9 26.8 17.86 26.5 17.25 27.05C16.64 27.59 16.42 27.83 16.56 28.25Z" fill="#E8E8E8"/>
<path d="M14.21 24.93C14.6 26.04 15.26 26.49 15.75 26.22C16.24 25.95 16.71 26.58 17.05 26.46C17.4 26.33 18.97 25.73 18.18 25.11C17.39 24.49 18.33 23.5 17.27 23.27C16.21 23.04 16.14 22.65 15.25 23.36C14.35 24.08 14.01 24.39 14.21 24.93Z" fill="#CCCCCC"/>
<path d="M14.83 24.82C15.11 25.68 15.56 26.03 15.89 25.83C16.22 25.63 16.55 26.12 16.78 26.02C17.02 25.92 18.08 25.46 17.54 24.99C17 24.51 17.63 23.75 16.9 23.56C16.17 23.37 16.13 23.07 15.52 23.62C14.92 24.16 14.69 24.4 14.83 24.82Z" fill="#E8E8E8"/>
<path d="M7.71003 28.06C8.10003 29.17 8.76003 29.62 9.25003 29.35C9.74003 29.08 10.21 29.71 10.55 29.59C10.89 29.47 12.47 28.86 11.68 28.24C10.89 27.62 11.83 26.63 10.77 26.4C9.71003 26.17 9.64003 25.78 8.75003 26.49C7.86003 27.2 7.52003 27.51 7.71003 28.06Z" fill="#CCCCCC"/>
<path d="M8.34002 27.94C8.62002 28.8 9.07002 29.15 9.40002 28.95C9.73002 28.75 10.06 29.24 10.29 29.14C10.53 29.04 11.59 28.58 11.05 28.11C10.51 27.63 11.14 26.87 10.41 26.68C9.68002 26.5 9.64002 26.19 9.03002 26.74C8.43002 27.29 8.20002 27.52 8.34002 27.94Z" fill="#E8E8E8"/>
<path d="M6.54001 25.38C6.92001 26.32 7.57001 26.69 8.06001 26.47C8.55001 26.24 9.01001 26.77 9.36001 26.66C9.71001 26.55 11.28 26.02 10.51 25.51C9.73001 25 10.68 24.14 9.62001 23.95C8.56001 23.76 8.50001 23.43 7.60001 24.04C6.70001 24.65 6.35001 24.92 6.54001 25.38Z" fill="#CCCCCC"/>
<path d="M7.16003 25.28C7.42003 26.01 7.87003 26.3 8.21003 26.13C8.54003 25.96 8.86003 26.37 9.10003 26.28C9.34003 26.2 10.41 25.8 9.88003 25.4C9.35003 25 9.99003 24.35 9.26003 24.19C8.53003 24.04 8.49003 23.78 7.88003 24.25C7.26003 24.72 7.03003 24.92 7.16003 25.28Z" fill="#E8E8E8"/>
<path d="M19.6 28.28C19.99 29.39 20.65 29.84 21.14 29.57C21.63 29.31 22.1 29.93 22.44 29.81C22.79 29.68 24.36 29.08 23.57 28.46C22.79 27.85 23.72 26.85 22.66 26.62C21.6 26.39 21.53 26 20.64 26.71C19.75 27.42 19.41 27.73 19.6 28.28Z" fill="#CCCCCC"/>
<path d="M20.22 28.16C20.5 29.02 20.95 29.37 21.28 29.17C21.61 28.97 21.94 29.46 22.17 29.36C22.4 29.26 23.47 28.8 22.93 28.33C22.39 27.85 23.02 27.09 22.29 26.9C21.56 26.71 21.52 26.41 20.91 26.96C20.31 27.51 20.09 27.74 20.22 28.16Z" fill="#E8E8E8"/>
<path d="M18.25 25.77C18.56 26.64 19.08 26.99 19.47 26.79C19.85 26.58 20.22 27.08 20.5 26.97C20.77 26.87 22.01 26.39 21.4 25.91C20.78 25.43 21.52 24.65 20.68 24.46C19.84 24.28 19.79 23.97 19.08 24.53C18.36 25.1 18.09 25.34 18.25 25.77Z" fill="#CCCCCC"/>
<path d="M18.74 25.68C18.96 26.36 19.32 26.63 19.58 26.47C19.84 26.31 20.1 26.69 20.28 26.62C20.46 26.55 21.31 26.18 20.88 25.81C20.45 25.44 20.95 24.83 20.38 24.69C19.8 24.55 19.77 24.31 19.29 24.74C18.81 25.17 18.63 25.35 18.74 25.68Z" fill="#E8E8E8"/>
<path d="M4.19998 23.58C4.50998 24.45 5.02998 24.8 5.41998 24.6C5.79998 24.39 6.16998 24.89 6.44998 24.78C6.71998 24.68 7.95998 24.2 7.34998 23.72C6.72998 23.24 7.46998 22.46 6.62998 22.27C5.78998 22.09 5.73998 21.78 5.02998 22.34C4.31998 22.9 4.04998 23.15 4.19998 23.58Z" fill="#CCCCCC"/>
<path d="M4.68998 23.49C4.90998 24.17 5.26998 24.44 5.52998 24.28C5.78998 24.12 6.04998 24.5 6.22998 24.43C6.40998 24.36 7.25998 23.99 6.82998 23.62C6.39998 23.25 6.89998 22.64 6.32998 22.5C5.75998 22.36 5.71998 22.12 5.23998 22.55C4.75998 22.98 4.57998 23.16 4.68998 23.49Z" fill="#E8E8E8"/>
<path d="M12.29 22.06C12.6 22.93 13.12 23.28 13.51 23.08C13.89 22.87 14.26 23.37 14.54 23.26C14.81 23.16 16.05 22.68 15.44 22.2C14.82 21.72 15.56 20.94 14.72 20.75C13.88 20.57 13.83 20.26 13.12 20.82C12.4 21.39 12.14 21.63 12.29 22.06Z" fill="#CCCCCC"/>
<path d="M12.78 21.97C13 22.65 13.36 22.92 13.62 22.76C13.88 22.6 14.14 22.98 14.32 22.91C14.5 22.84 15.35 22.47 14.92 22.1C14.49 21.73 14.99 21.12 14.42 20.98C13.84 20.84 13.81 20.6 13.33 21.03C12.85 21.46 12.68 21.64 12.78 21.97Z" fill="#E8E8E8"/>
<path d="M16.34 23.0401C16.65 23.9101 17.17 24.26 17.56 24.06C17.94 23.85 18.31 24.35 18.59 24.24C18.86 24.14 20.1 23.6601 19.49 23.1801C18.87 22.7001 19.61 21.92 18.77 21.73C17.93 21.55 17.88 21.24 17.17 21.8C16.45 22.37 16.19 22.6101 16.34 23.0401Z" fill="#CCCCCC"/>
<path d="M16.83 22.9501C17.05 23.6301 17.41 23.9001 17.67 23.7401C17.93 23.5801 18.19 23.9601 18.37 23.8901C18.55 23.8201 19.4 23.4501 18.97 23.0801C18.54 22.7101 19.04 22.1001 18.47 21.9601C17.89 21.8201 17.86 21.5801 17.38 22.0101C16.9 22.4301 16.72 22.6201 16.83 22.9501Z" fill="#E8E8E8"/>
<path d="M9.68002 21.01C9.99002 21.88 10.51 22.23 10.9 22.03C11.28 21.82 11.65 22.32 11.93 22.21C12.2 22.11 13.44 21.63 12.83 21.15C12.22 20.67 12.95 19.89 12.11 19.7C11.27 19.52 11.22 19.21 10.51 19.77C9.79002 20.34 9.52002 20.58 9.68002 21.01Z" fill="#CCCCCC"/>
<path d="M10.17 20.92C10.39 21.6 10.75 21.87 11.01 21.71C11.27 21.55 11.53 21.93 11.71 21.86C11.89 21.79 12.74 21.42 12.31 21.05C11.88 20.68 12.38 20.07 11.81 19.93C11.23 19.79 11.2 19.55 10.72 19.98C10.24 20.4 10.06 20.59 10.17 20.92Z" fill="#E8E8E8"/>
<path d="M11.38 26.06C11.61 26.74 11.99 27 12.27 26.85C12.55 26.7 12.82 27.07 13.02 26.99C13.22 26.91 14.13 26.55 13.67 26.18C13.22 25.81 13.75 25.2 13.14 25.06C12.52 24.92 12.49 24.68 11.97 25.11C11.46 25.55 11.27 25.73 11.38 26.06Z" fill="#CCCCCC"/>
<path d="M11.74 26.0001C11.9 26.5201 12.16 26.7301 12.36 26.6101C12.55 26.4901 12.74 26.7801 12.88 26.7201C13.02 26.6601 13.63 26.3801 13.32 26.0901C13.01 25.8001 13.37 25.3401 12.95 25.2201C12.53 25.1001 12.5 24.9201 12.15 25.2601C11.8 25.6001 11.66 25.7401 11.74 26.0001Z" fill="#E8E8E8"/>
<path d="M15.37 24.83C15.6 25.51 15.98 25.77 16.26 25.62C16.54 25.46 16.81 25.84 17.01 25.76C17.21 25.68 18.12 25.32 17.66 24.95C17.21 24.58 17.74 23.97 17.13 23.83C16.51 23.69 16.48 23.45 15.96 23.88C15.45 24.32 15.26 24.5 15.37 24.83Z" fill="#CCCCCC"/>
<path d="M15.73 24.77C15.89 25.29 16.15 25.5 16.35 25.38C16.54 25.26 16.73 25.55 16.87 25.49C17.01 25.43 17.62 25.15 17.31 24.86C17 24.57 17.36 24.11 16.94 23.99C16.52 23.88 16.49 23.69 16.14 24.03C15.78 24.37 15.65 24.51 15.73 24.77Z" fill="#E8E8E8"/>
<path d="M12.37 23.13C12.6 23.81 12.98 24.07 13.26 23.92C13.54 23.77 13.81 24.14 14.01 24.06C14.21 23.98 15.12 23.62 14.66 23.25C14.21 22.88 14.74 22.27 14.13 22.13C13.51 21.99 13.48 21.75 12.96 22.18C12.45 22.61 12.26 22.8 12.37 23.13Z" fill="#CCCCCC"/>
<path d="M12.7299 23.06C12.8899 23.58 13.1499 23.79 13.3499 23.67C13.5399 23.55 13.7299 23.84 13.8699 23.78C14.0099 23.72 14.6199 23.44 14.3099 23.15C13.9999 22.86 14.3599 22.4 13.9399 22.28C13.5199 22.16 13.4899 21.98 13.1399 22.32C12.7899 22.66 12.6499 22.8 12.7299 23.06Z" fill="#E8E8E8"/>
<path d="M4.03 28.14C5.25 29.17 6.34 29.26 6.74 28.66C7.14 28.06 8.13 28.48 8.46 28.12C8.79 27.76 10.26 26.1 8.91 25.89C7.56 25.68 8 23.96 6.57 24.36C5.14 24.76 4.8 24.34 4.21 25.71C3.62 27.08 3.44 27.64 4.03 28.14Z" fill="#CCCCCC"/>
<path d="M4.69998 27.63C5.60998 28.44 6.38998 28.55 6.64998 28.12C6.90998 27.69 7.62998 28.04 7.83998 27.78C8.05998 27.52 9.01998 26.34 8.05998 26.13C7.08998 25.92 7.32998 24.66 6.32998 24.9C5.32998 25.14 5.07998 24.82 4.71998 25.82C4.36998 26.83 4.25998 27.24 4.69998 27.63Z" fill="#E8E8E8"/>
<path d="M5.14 27.37C5.97 28.1 6.69 28.2 6.93 27.8C7.18 27.4 7.83 27.72 8.04 27.48C8.24 27.24 9.15 26.15 8.26 25.97C7.37 25.79 7.6 24.63 6.68 24.86C5.76 25.09 5.52 24.8 5.18 25.72C4.84 26.64 4.73 27.01 5.14 27.37Z" fill="#CCCCCC"/>
<path d="M5.55998 27.04C6.17998 27.62 6.68998 27.71 6.84998 27.43C7.00998 27.15 7.48998 27.4 7.61998 27.23C7.74998 27.06 8.34998 26.28 7.70998 26.11C7.06998 25.94 7.17998 25.09 6.53998 25.22C5.89998 25.35 5.71998 25.13 5.51998 25.81C5.30998 26.49 5.24998 26.76 5.55998 27.04Z" fill="#E8E8E8"/>
<path d="M17.29 28.63C18.06 29.28 18.74 29.34 18.99 28.97C19.24 28.6 19.86 28.87 20.06 28.64C20.26 28.41 21.17 27.38 20.33 27.24C19.49 27.1 19.76 26.03 18.87 26.27C17.98 26.51 17.77 26.25 17.41 27.11C17.03 27.97 16.92 28.31 17.29 28.63Z" fill="#CCCCCC"/>
<path d="M17.71 28.31C18.28 28.82 18.77 28.9 18.93 28.63C19.09 28.36 19.54 28.58 19.67 28.42C19.8 28.26 20.4 27.52 19.8 27.39C19.2 27.26 19.34 26.46 18.72 26.61C18.1 26.76 17.94 26.56 17.72 27.18C17.49 27.81 17.43 28.06 17.71 28.31Z" fill="#E8E8E8"/>
<path d="M20.71 30.75C21.9 31.72 22.99 31.78 23.42 31.18C23.85 30.59 24.82 30.97 25.16 30.61C25.5 30.25 27.04 28.59 25.69 28.42C24.34 28.25 24.85 26.57 23.4 26.99C21.95 27.41 21.62 27.03 20.98 28.38C20.34 29.73 20.13 30.28 20.71 30.75Z" fill="#CCCCCC"/>
<path d="M21.4 30.23C22.29 30.99 23.06 31.08 23.34 30.65C23.62 30.22 24.32 30.54 24.55 30.29C24.78 30.03 25.79 28.85 24.82 28.67C23.86 28.49 24.14 27.26 23.13 27.52C22.12 27.78 21.87 27.48 21.48 28.47C21.09 29.46 20.97 29.86 21.4 30.23Z" fill="#E8E8E8"/>
<path d="M21.84 29.96C22.65 30.65 23.36 30.72 23.63 30.33C23.89 29.94 24.54 30.22 24.75 29.99C24.96 29.75 25.91 28.66 25.02 28.51C24.13 28.36 24.41 27.22 23.47 27.47C22.54 27.72 22.31 27.45 21.94 28.35C21.57 29.25 21.45 29.63 21.84 29.96Z" fill="#CCCCCC"/>
<path d="M22.28 29.63C22.88 30.17 23.4 30.26 23.56 29.97C23.73 29.69 24.2 29.92 24.34 29.75C24.48 29.58 25.1 28.8 24.47 28.66C23.83 28.51 23.98 27.68 23.33 27.83C22.68 27.98 22.51 27.77 22.28 28.43C22.05 29.1 21.98 29.36 22.28 29.63Z" fill="#E8E8E8"/>
<path d="M20.56 28.49C21.61 29.36 22.55 29.44 22.91 28.92C23.27 28.4 24.12 28.76 24.41 28.45C24.7 28.14 25.99 26.7 24.82 26.53C23.65 26.36 24.05 24.88 22.8 25.23C21.55 25.58 21.27 25.23 20.74 26.41C20.22 27.59 20.05 28.06 20.56 28.49Z" fill="#CCCCCC"/>
<path d="M21.15 28.05C21.93 28.74 22.61 28.83 22.84 28.46C23.07 28.09 23.69 28.38 23.88 28.16C24.07 27.94 24.92 26.91 24.08 26.74C23.24 26.57 23.46 25.48 22.59 25.69C21.72 25.9 21.5 25.63 21.18 26.5C20.86 27.36 20.76 27.71 21.15 28.05Z" fill="#E8E8E8"/>
<path d="M21.53 27.82C22.25 28.44 22.87 28.52 23.08 28.18C23.3 27.84 23.86 28.1 24.04 27.9C24.22 27.7 25.01 26.75 24.24 26.6C23.47 26.45 23.68 25.45 22.88 25.66C22.08 25.86 21.88 25.62 21.57 26.41C21.27 27.19 21.18 27.51 21.53 27.82Z" fill="#CCCCCC"/>
<path d="M21.89 27.53C22.43 28.02 22.87 28.1 23.01 27.85C23.15 27.6 23.56 27.82 23.68 27.67C23.8 27.52 24.32 26.85 23.76 26.71C23.21 26.57 23.31 25.83 22.75 25.96C22.19 26.08 22.04 25.89 21.86 26.47C21.69 27.06 21.63 27.29 21.89 27.53Z" fill="#E8E8E8"/>
<path d="M11.72 31.34C12.83 32.2 13.88 32.22 14.31 31.65C14.74 31.08 15.67 31.41 16.02 31.06C16.37 30.71 17.91 29.12 16.62 29.01C15.33 28.9 15.88 27.31 14.47 27.76C13.06 28.21 12.76 27.85 12.08 29.13C11.4 30.41 11.18 30.92 11.72 31.34Z" fill="#CCCCCC"/>
<path d="M12.4 30.83C13.22 31.51 13.97 31.57 14.25 31.16C14.53 30.75 15.2 31.03 15.43 30.78C15.66 30.53 16.68 29.4 15.76 29.27C14.84 29.14 15.16 27.98 14.18 28.25C13.2 28.52 12.97 28.26 12.55 29.19C12.14 30.12 12 30.5 12.4 30.83Z" fill="#E8E8E8"/>
<path d="M12.84 30.57C13.59 31.19 14.28 31.23 14.55 30.85C14.82 30.47 15.43 30.72 15.65 30.49C15.87 30.26 16.82 29.22 15.97 29.11C15.12 29 15.43 27.93 14.52 28.2C13.61 28.46 13.4 28.22 13 29.07C12.6 29.92 12.47 30.27 12.84 30.57Z" fill="#CCCCCC"/>
<path d="M13.27 30.25C13.83 30.74 14.32 30.79 14.49 30.52C14.66 30.25 15.11 30.46 15.25 30.29C15.39 30.12 16.02 29.38 15.42 29.27C14.81 29.16 14.98 28.37 14.35 28.54C13.72 28.71 13.56 28.51 13.31 29.13C13.08 29.75 13 30.01 13.27 30.25Z" fill="#E8E8E8"/>
<path d="M6.03001 26.17C6.26001 26.85 6.64001 27.11 6.92001 26.96C7.20001 26.81 7.47001 27.18 7.67001 27.1C7.87001 27.02 8.78001 26.66 8.32001 26.29C7.87001 25.92 8.40001 25.31 7.79001 25.17C7.18001 25.03 7.14001 24.79 6.62001 25.22C6.11001 25.65 5.92001 25.84 6.03001 26.17Z" fill="#CCCCCC"/>
<path d="M6.38998 26.1C6.54998 26.62 6.80998 26.83 7.00998 26.71C7.20998 26.59 7.38998 26.88 7.52998 26.82C7.66998 26.76 8.27998 26.48 7.96998 26.19C7.65998 25.9 8.01998 25.44 7.59998 25.32C7.17998 25.21 7.14998 25.02 6.79998 25.36C6.44998 25.7 6.30998 25.85 6.38998 26.1Z" fill="#E8E8E8"/>
<path d="M4.45002 15.32C4.70002 13.69 2.61002 11.86 1.88002 10.27C1.15002 8.68001 3.37002 3.03001 7.20002 3.01001C8.05002 3.50001 7.47002 -0.909987 13 0.160013C13.48 0.460013 14.36 -0.879986 17.65 2.19001C17.64 2.83001 18.73 0.780014 22.21 3.67001C23.81 4.75001 24.92 3.52001 27.28 4.44001C29.64 5.36001 34.43 9.23001 33.91 11.4C33.93 12.13 42.6 13.79 41.64 20.14C40.68 26.49 39.03 26.6 39.03 26.6C39.03 26.6 35.64 27.55 35.38 29.55C35.12 31.55 29.87 31.41 28.76 29.26C27.66 27.11 22.4 26.88 22.4 26.88C22.4 26.88 15.34 26.65 13.03 22.49C11.72 20.93 8.73002 21.9 8.73002 21.9C8.73002 21.9 3.68002 20.4 4.45002 15.32Z" fill="#A3A3A3"/>
<path d="M5.50999 15.32C5.73999 13.82 3.77999 12.14 3.08999 10.68C2.39999 9.22003 4.48999 4.02003 8.07999 4.01003C8.87999 4.46003 8.32999 0.410031 13.52 1.39003C13.97 1.66003 14.8 0.440031 17.88 3.26003C17.87 3.85003 18.89 1.96003 22.16 4.62003C23.67 5.61003 24.71 4.48003 26.92 5.33003C29.13 6.18003 33.64 9.74003 33.15 11.73C33.17 12.4 41.31 13.94 40.41 19.77C39.51 25.6 37.96 25.71 37.96 25.71C37.96 25.71 34.78 26.58 34.54 28.41C34.3 30.24 29.36 30.11 28.33 28.14C27.3 26.17 22.36 25.95 22.36 25.95C22.36 25.95 15.73 25.73 13.56 21.9C12.33 20.47 9.51999 21.35 9.51999 21.35C9.51999 21.35 4.77999 19.99 5.50999 15.32Z" fill="#D4D4D4"/>
<path d="M26.2 33.28C26.2 33.28 24.59 29.49 19.69 26.87C19.69 26.87 19.45 26.24 20.33 26.54C22.25 27.2 27.28 32.55 27.31 33.67L26.2 33.28Z" fill="#91786D"/>
<path d="M27.22 33.57C27.22 33.57 23.33 27.83 20.06 26.77C20.06 26.77 19.49 26.18 20.43 26.6C22.49 27.52 27.54 32.71 27.69 33.71L27.22 33.57Z" fill="#B5AA8B"/>
<path d="M5.41 9.89006C6.02 13.5201 7.86 15.2301 9.56 14.6801C11.26 14.1201 12.39 16.3001 13.57 16.0801C14.75 15.8601 20.09 14.8001 17.94 12.5201C15.79 10.2401 19.34 7.63006 16.09 6.37006C12.84 5.11006 12.87 3.85006 9.6 5.60006C6.33 7.35006 5.11 8.12006 5.41 9.89006Z" fill="#CCCCCC"/>
<path d="M7.45001 9.87005C7.83001 12.6701 9.08001 13.9701 10.24 13.5201C11.41 13.0701 12.16 14.7401 12.97 14.5601C13.78 14.3801 17.44 13.5101 15.99 11.7601C14.54 10.0101 16.99 7.97005 14.78 7.03005C12.57 6.09005 12.6 5.13005 10.35 6.51005C8.10001 7.89005 7.26001 8.50005 7.45001 9.87005Z" fill="#E8E8E8"/>
<path d="M14.39 18.85C15 22.48 16.84 24.19 18.54 23.64C20.24 23.08 21.37 25.26 22.55 25.04C23.73 24.82 29.07 23.76 26.92 21.48C24.77 19.2 28.32 16.59 25.07 15.33C21.82 14.07 21.85 12.83 18.59 14.57C15.33 16.31 14.09 17.08 14.39 18.85Z" fill="#CCCCCC"/>
<path d="M16.43 18.8301C16.81 21.6301 18.06 22.9301 19.22 22.4801C20.39 22.0301 21.14 23.7001 21.95 23.5201C22.76 23.3401 26.42 22.4701 24.97 20.7201C23.53 18.9801 25.97 16.9301 23.76 15.9901C21.55 15.0501 21.58 14.0901 19.33 15.4701C17.08 16.8501 16.24 17.4601 16.43 18.8301Z" fill="#E8E8E8"/>
<path d="M18.46 12.09C19.07 15.72 20.91 17.43 22.61 16.88C24.31 16.32 25.44 18.5 26.62 18.28C27.8 18.06 33.14 17 30.99 14.72C28.84 12.44 32.39 9.83004 29.14 8.57004C25.89 7.31004 25.92 6.07004 22.66 7.81004C19.4 9.55004 18.16 10.32 18.46 12.09Z" fill="#CCCCCC"/>
<path d="M20.5 12.0701C20.88 14.8701 22.13 16.1701 23.29 15.7201C24.45 15.2701 25.21 16.9401 26.02 16.7601C26.83 16.5801 30.49 15.7101 29.04 13.9601C27.59 12.2101 30.04 10.1701 27.83 9.23006C25.62 8.29006 25.65 7.33007 23.4 8.71007C21.15 10.0901 20.32 10.7001 20.5 12.0701Z" fill="#E8E8E8"/>
<path d="M25.21 23.3401C25.65 26.4901 27.07 27.9601 28.4 27.4501C29.73 26.9501 30.59 28.8201 31.51 28.6201C32.43 28.4201 36.6 27.4401 34.95 25.4801C33.3 23.5101 36.09 21.2201 33.57 20.1501C31.05 19.0801 31.08 18.0101 28.52 19.5601C25.96 21.1201 24.99 21.8001 25.21 23.3401Z" fill="#CCCCCC"/>
<path d="M26.8 23.3001C27.07 25.7301 28.03 26.8401 28.95 26.4401C29.86 26.0401 30.44 27.4801 31.07 27.3101C31.7 27.1501 34.57 26.3501 33.45 24.8501C32.33 23.3501 34.27 21.5501 32.55 20.7501C30.83 19.9501 30.87 19.1201 29.1 20.3501C27.33 21.5701 26.67 22.1101 26.8 23.3001Z" fill="#E8E8E8"/>
<path d="M28.35 19.67C28.9 22.66 30.52 24.07 32.01 23.63C33.49 23.18 34.49 24.97 35.53 24.8C36.56 24.63 41.23 23.79 39.34 21.9C37.45 20.01 40.54 17.89 37.69 16.83C34.84 15.77 34.86 14.75 32.01 16.16C29.16 17.57 28.09 18.2 28.35 19.67Z" fill="#CCCCCC"/>
<path d="M30.14 19.66C30.49 21.96 31.59 23.03 32.61 22.68C33.63 22.32 34.3 23.69 35 23.55C35.7 23.41 38.9 22.71 37.63 21.27C36.36 19.83 38.49 18.17 36.55 17.38C34.61 16.59 34.63 15.81 32.67 16.93C30.71 18.05 29.97 18.53 30.14 19.66Z" fill="#E8E8E8"/>
<path d="M21.07 18.66C21.62 21.65 23.24 23.06 24.73 22.62C26.22 22.18 27.21 23.96 28.25 23.79C29.28 23.62 33.95 22.78 32.06 20.89C30.17 19 33.26 16.88 30.41 15.82C27.56 14.76 27.58 13.74 24.73 15.15C21.88 16.56 20.8 17.2 21.07 18.66Z" fill="#CCCCCC"/>
<path d="M22.85 18.66C23.2 20.96 24.3 22.03 25.32 21.68C26.34 21.32 27.01 22.69 27.71 22.55C28.42 22.41 31.61 21.71 30.34 20.27C29.07 18.83 31.2 17.17 29.26 16.38C27.32 15.59 27.34 14.81 25.38 15.93C23.42 17.05 22.68 17.53 22.85 18.66Z" fill="#E8E8E8"/>
<path d="M6.81001 15.97C7.40001 18.58 9.04002 19.84 10.51 19.47C11.98 19.1 13.01 20.68 14.04 20.55C15.07 20.42 19.71 19.76 17.81 18.08C15.91 16.4 18.96 14.61 16.1 13.64C13.24 12.67 13.24 11.79 10.42 12.97C7.60002 14.15 6.52001 14.69 6.81001 15.97Z" fill="#CCCCCC"/>
<path d="M8.59002 15.9901C8.97002 18.0001 10.08 18.9501 11.09 18.6601C12.1 18.3701 12.79 19.5701 13.49 19.4501C14.19 19.3401 17.38 18.7801 16.09 17.5001C14.8 16.2201 16.91 14.8101 14.96 14.0901C13.01 13.3701 13.02 12.6901 11.08 13.6401C9.14002 14.5801 8.41002 15.0001 8.59002 15.9901Z" fill="#E8E8E8"/>
<path d="M8.42 6.33004C8.88 9.31004 10.31 10.7 11.64 10.24C12.97 9.78004 13.84 11.55 14.76 11.37C15.68 11.19 19.85 10.29 18.19 8.43004C16.53 6.57004 19.3 4.41004 16.77 3.39004C14.24 2.37004 14.26 1.35004 11.71 2.80004C9.16 4.25004 8.19 4.88004 8.42 6.33004Z" fill="#CCCCCC"/>
<path d="M10.01 6.30001C10.3 8.59001 11.27 9.65001 12.18 9.28001C13.09 8.91001 13.67 10.27 14.31 10.12C14.94 9.97001 17.8 9.24001 16.68 7.81001C15.56 6.38001 17.48 4.70001 15.76 3.94001C14.04 3.18001 14.06 2.39001 12.3 3.54001C10.54 4.69001 9.86998 5.18001 10.01 6.30001Z" fill="#E8E8E8"/>
<path d="M13.48 8.56006C14.03 11.5501 15.65 12.9601 17.14 12.5201C18.62 12.0701 19.62 13.8601 20.66 13.6901C21.69 13.5201 26.36 12.6801 24.47 10.7901C22.58 8.90005 25.67 6.78005 22.82 5.72005C19.97 4.66005 19.99 3.64006 17.14 5.05006C14.29 6.46006 13.21 7.09006 13.48 8.56006Z" fill="#CCCCCC"/>
<path d="M15.26 8.55005C15.61 10.8501 16.71 11.9201 17.73 11.5701C18.75 11.2101 19.42 12.5801 20.12 12.4401C20.82 12.3001 24.02 11.6001 22.75 10.1601C21.48 8.72005 23.61 7.06005 21.67 6.27005C19.73 5.48005 19.75 4.70005 17.79 5.82005C15.83 6.94005 15.09 7.42005 15.26 8.55005Z" fill="#E8E8E8"/>
<path d="M11.86 13.24C12.41 16.23 14.03 17.64 15.52 17.2C17.01 16.76 18 18.54 19.04 18.37C20.07 18.2 24.74 17.36 22.85 15.47C20.96 13.58 24.05 11.46 21.2 10.4C18.35 9.34005 18.37 8.32005 15.52 9.73005C12.67 11.14 11.59 11.78 11.86 13.24Z" fill="#CCCCCC"/>
<path d="M13.65 13.2401C14 15.5401 15.1 16.6101 16.12 16.2601C17.14 15.9001 17.81 17.2701 18.51 17.1301C19.21 16.9901 22.41 16.2901 21.14 14.8501C19.87 13.4101 22 11.7501 20.06 10.9601C18.12 10.1701 18.14 9.39005 16.18 10.5101C14.22 11.6301 13.48 12.1101 13.65 13.2401Z" fill="#E8E8E8"/>
<path d="M14.49 13.2C14.82 15.29 15.84 16.26 16.79 15.94C17.74 15.62 18.36 16.86 19.02 16.74C19.68 16.61 22.65 15.99 21.46 14.68C20.27 13.37 22.25 11.87 20.44 11.15C18.63 10.43 18.65 9.72003 16.83 10.73C15.01 11.74 14.33 12.18 14.49 13.2Z" fill="#CCCCCC"/>
<path d="M15.63 13.1801C15.84 14.7901 16.53 15.5301 17.18 15.2701C17.83 15.0101 18.25 15.9701 18.7 15.8601C19.15 15.7601 21.19 15.2501 20.39 14.2501C19.59 13.2501 20.96 12.0701 19.73 11.5301C18.5 10.9901 18.52 10.4401 17.27 11.2401C16 12.0401 15.52 12.3901 15.63 13.1801Z" fill="#E8E8E8"/>
<path d="M10.58 6.35005C10.91 8.44005 11.93 9.41005 12.88 9.09005C13.83 8.77005 14.45 10.0101 15.11 9.89005C15.77 9.76005 18.74 9.14005 17.55 7.83005C16.36 6.52005 18.34 5.02005 16.53 4.30005C14.72 3.58005 14.74 2.87005 12.92 3.88005C11.1 4.89005 10.42 5.33005 10.58 6.35005Z" fill="#CCCCCC"/>
<path d="M11.72 6.33004C11.93 7.94004 12.62 8.68004 13.27 8.42004C13.92 8.16004 14.34 9.12004 14.79 9.01004C15.24 8.90004 17.28 8.40004 16.48 7.40004C15.68 6.40004 17.05 5.22004 15.82 4.68004C14.59 4.14004 14.6 3.60004 13.35 4.40004C12.1 5.20004 11.62 5.55004 11.72 6.33004Z" fill="#E8E8E8"/>
<path d="M23.91 18.76C24.24 20.85 25.26 21.82 26.21 21.5C27.16 21.18 27.78 22.42 28.44 22.3C29.1 22.17 32.07 21.55 30.88 20.24C29.69 18.93 31.67 17.43 29.86 16.71C28.05 15.99 28.07 15.28 26.25 16.29C24.43 17.3 23.75 17.74 23.91 18.76Z" fill="#CCCCCC"/>
<path d="M25.05 18.74C25.26 20.35 25.95 21.09 26.6 20.83C27.25 20.57 27.67 21.53 28.12 21.42C28.57 21.32 30.61 20.81 29.81 19.81C29.01 18.81 30.38 17.63 29.15 17.09C27.92 16.55 27.94 16 26.69 16.8C25.42 17.6 24.95 17.95 25.05 18.74Z" fill="#E8E8E8"/>
<path d="M21.97 12.18C22.3 14.27 23.32 15.24 24.27 14.92C25.22 14.6 25.84 15.84 26.5 15.72C27.16 15.59 30.13 14.97 28.94 13.66C27.75 12.35 29.73 10.85 27.92 10.13C26.11 9.41001 26.13 8.70001 24.31 9.71001C22.49 10.72 21.81 11.15 21.97 12.18Z" fill="#CCCCCC"/>
<path d="M23.11 12.16C23.32 13.77 24.01 14.51 24.66 14.25C25.31 13.99 25.73 14.95 26.18 14.84C26.63 14.73 28.67 14.23 27.87 13.23C27.07 12.23 28.44 11.05 27.21 10.51C25.98 9.97003 26 9.42003 24.75 10.22C23.48 11.02 23.01 11.37 23.11 12.16Z" fill="#E8E8E8"/>
<path d="M17.23 19.08C17.56 21.17 18.58 22.14 19.53 21.82C20.48 21.5 21.1 22.74 21.76 22.62C22.42 22.49 25.39 21.87 24.2 20.56C23.01 19.25 24.99 17.75 23.18 17.03C21.37 16.31 21.39 15.6 19.57 16.61C17.75 17.62 17.07 18.06 17.23 19.08Z" fill="#CCCCCC"/>
<path d="M18.37 19.0601C18.58 20.6701 19.27 21.4101 19.92 21.1501C20.57 20.8901 20.99 21.8501 21.44 21.7401C21.89 21.6401 23.93 21.1301 23.13 20.1301C22.33 19.1301 23.7 17.9501 22.47 17.4101C21.24 16.8701 21.26 16.3201 20.01 17.1201C18.74 17.9301 18.27 18.2801 18.37 19.0601Z" fill="#E8E8E8"/>
<path d="M9.48 15.84C9.81 17.93 10.83 18.9 11.78 18.58C12.73 18.26 13.35 19.5 14.01 19.38C14.67 19.26 17.64 18.63 16.45 17.32C15.26 16.01 17.24 14.51 15.43 13.79C13.62 13.07 13.64 12.36 11.82 13.37C10 14.38 9.32 14.82 9.48 15.84Z" fill="#CCCCCC"/>
<path d="M10.61 15.8201C10.82 17.4301 11.51 18.1701 12.16 17.9101C12.81 17.6501 13.23 18.6101 13.68 18.5001C14.13 18.4001 16.17 17.8901 15.37 16.8901C14.57 15.8901 15.94 14.7101 14.71 14.1701C13.48 13.6301 13.5 13.0801 12.25 13.8801C11 14.6801 10.51 15.0301 10.61 15.8201Z" fill="#E8E8E8"/>
<path d="M8.27002 10.7501C8.63002 12.5301 9.67002 13.3801 10.61 13.1201C11.55 12.8601 12.19 13.9301 12.85 13.8301C13.5 13.7301 16.46 13.2601 15.25 12.1201C14.04 10.9801 16 9.75006 14.18 9.10006C12.37 8.46006 12.37 7.85006 10.57 8.68006C8.77002 9.51006 8.10002 9.88006 8.27002 10.7501Z" fill="#CCCCCC"/>
<path d="M9.41003 10.7501C9.64003 12.1201 10.34 12.7601 10.99 12.5501C11.63 12.3401 12.06 13.1601 12.51 13.0801C12.96 13.0001 14.98 12.6001 14.17 11.7401C13.36 10.8801 14.7 9.90007 13.47 9.42007C12.23 8.95007 12.24 8.48007 11 9.14007C9.76003 9.79007 9.29003 10.0801 9.41003 10.7501Z" fill="#E8E8E8"/>
<path d="M30.42 19.6701C30.75 21.7601 31.77 22.7301 32.72 22.4101C33.67 22.0901 34.29 23.3301 34.95 23.2101C35.61 23.0801 38.58 22.4601 37.39 21.1501C36.2 19.8401 38.18 18.3401 36.37 17.6201C34.56 16.9001 34.58 16.1901 32.76 17.2001C30.94 18.2001 30.26 18.6501 30.42 19.6701Z" fill="#CCCCCC"/>
<path d="M31.55 19.6501C31.76 21.2601 32.45 22.0001 33.1 21.7401C33.75 21.4801 34.17 22.4401 34.62 22.3301C35.07 22.2301 37.11 21.7201 36.31 20.7201C35.51 19.7201 36.88 18.5401 35.65 18.0001C34.42 17.4601 34.44 16.9101 33.19 17.7101C31.93 18.5201 31.45 18.8701 31.55 19.6501Z" fill="#E8E8E8"/>
<path d="M26.72 23.08C27.05 25.17 28.07 26.14 29.02 25.82C29.97 25.5 30.59 26.74 31.25 26.62C31.91 26.5 34.88 25.87 33.69 24.56C32.5 23.25 34.48 21.75 32.67 21.03C30.86 20.31 30.88 19.6 29.06 20.61C27.24 21.62 26.56 22.06 26.72 23.08Z" fill="#CCCCCC"/>
<path d="M27.86 23.0601C28.07 24.6701 28.76 25.4101 29.41 25.1501C30.06 24.8901 30.48 25.8501 30.93 25.7401C31.38 25.6401 33.42 25.1301 32.62 24.1301C31.82 23.1301 33.19 21.9501 31.96 21.4101C30.73 20.8701 30.75 20.3201 29.5 21.1201C28.25 21.9201 27.76 22.2801 27.86 23.0601Z" fill="#E8E8E8"/>
<path d="M28.84 14.8401C29.1 16.4801 29.91 17.2501 30.66 17.0001C31.41 16.7501 31.9 17.7301 32.42 17.6301C32.94 17.5301 35.29 17.0401 34.35 16.0101C33.41 14.9801 34.97 13.8001 33.55 13.2301C32.12 12.6601 32.14 12.1001 30.7 12.9001C29.26 13.6801 28.71 14.0301 28.84 14.8401Z" fill="#CCCCCC"/>
<path d="M29.74 14.8201C29.9 16.0801 30.45 16.6701 30.96 16.4601C31.47 16.2601 31.8 17.0101 32.16 16.9201C32.52 16.8401 34.13 16.4401 33.49 15.6501C32.86 14.8601 33.94 13.9401 32.96 13.5201C31.99 13.1001 32 12.6701 31.01 13.2901C30.03 13.9301 29.66 14.2101 29.74 14.8201Z" fill="#E8E8E8"/>
<path d="M4.72001 6.88004C4.98001 8.52004 5.79001 9.29004 6.54001 9.04004C7.29001 8.79004 7.78001 9.77004 8.30001 9.67004C8.82001 9.57004 11.17 9.08004 10.23 8.05004C9.29001 7.02004 10.85 5.84004 9.43001 5.27004C8.01001 4.70004 8.00001 4.14004 6.57001 4.94004C5.14001 5.74004 4.59001 6.08004 4.72001 6.88004Z" fill="#CCCCCC"/>
<path d="M5.61001 6.87003C5.77001 8.13003 6.32001 8.72003 6.83001 8.51003C7.34001 8.30003 7.67001 9.06003 8.03001 8.97003C8.39001 8.90003 10 8.50003 9.37001 7.71003C8.74001 6.93003 9.81001 6.00003 8.84001 5.58003C7.87001 5.15003 7.89001 4.72003 6.90001 5.35003C5.91001 5.98003 5.53001 6.25003 5.61001 6.87003Z" fill="#E8E8E8"/>
<path d="M5.86001 16.5C6.12001 18.14 6.93001 18.91 7.68001 18.66C8.43001 18.41 8.92001 19.39 9.44001 19.29C9.96001 19.19 12.31 18.7 11.37 17.67C10.43 16.64 11.99 15.46 10.57 14.89C9.15001 14.32 9.16001 13.76 7.72001 14.56C6.28001 15.34 5.73001 15.69 5.86001 16.5Z" fill="#CCCCCC"/>
<path d="M6.76001 16.48C6.92001 17.74 7.47001 18.33 7.98001 18.12C8.49001 17.91 8.82001 18.67 9.18001 18.58C9.54001 18.5 11.15 18.1 10.51 17.31C9.88001 16.52 10.96 15.6 9.98001 15.18C9.00001 14.76 9.02001 14.33 8.03001 14.95C7.05001 15.59 6.68001 15.86 6.76001 16.48Z" fill="#E8E8E8"/>
<path d="M28.5 27.2C28.76 28.84 29.57 29.61 30.32 29.36C31.07 29.11 31.56 30.09 32.08 29.99C32.6 29.89 34.95 29.4001 34.01 28.37C33.07 27.34 34.63 26.16 33.21 25.59C31.78 25.02 31.8 24.46 30.36 25.26C28.92 26.06 28.37 26.4 28.5 27.2Z" fill="#CCCCCC"/>
<path d="M29.4 27.1901C29.56 28.4501 30.11 29.0401 30.62 28.8301C31.13 28.6301 31.46 29.3801 31.82 29.2901C32.18 29.2101 33.79 28.8101 33.15 28.0201C32.51 27.2301 33.6 26.3101 32.62 25.8901C31.65 25.4701 31.66 25.0401 30.67 25.6601C29.69 26.2901 29.32 26.5701 29.4 27.1901Z" fill="#E8E8E8"/>
<path d="M17.89 8.34006C18.15 9.98006 18.96 10.7501 19.71 10.5001C20.46 10.2501 20.95 11.2301 21.47 11.1301C21.99 11.0301 24.34 10.5401 23.4 9.51006C22.46 8.48006 24.02 7.30006 22.6 6.73006C21.18 6.16006 21.17 5.60006 19.74 6.40006C18.3 7.19006 17.76 7.54006 17.89 8.34006Z" fill="#CCCCCC"/>
<path d="M18.78 8.33008C18.94 9.59008 19.49 10.1801 20 9.97008C20.51 9.76008 20.84 10.5201 21.2 10.4301C21.56 10.3501 23.17 9.95007 22.53 9.16007C21.9 8.37007 22.98 7.45008 22 7.03008C21.03 6.61008 21.04 6.18008 20.05 6.80008C19.06 7.42008 18.7 7.71008 18.78 8.33008Z" fill="#E8E8E8"/>
<path d="M27.6 11.86C27.86 13.5 28.67 14.27 29.42 14.02C30.17 13.77 30.66 14.75 31.18 14.65C31.7 14.55 34.05 14.06 33.11 13.03C32.17 12 33.73 10.82 32.31 10.25C30.88 9.68002 30.9 9.12002 29.46 9.92002C28.02 10.72 27.47 11.06 27.6 11.86Z" fill="#CCCCCC"/>
<path d="M28.5 11.85C28.66 13.11 29.21 13.7 29.72 13.49C30.23 13.29 30.56 14.04 30.92 13.95C31.28 13.86 32.89 13.47 32.25 12.68C31.62 11.89 32.7 10.97 31.72 10.55C30.75 10.13 30.76 9.70003 29.77 10.32C28.79 10.96 28.42 11.23 28.5 11.85Z" fill="#E8E8E8"/>
<path d="M33.1 23.68C33.36 25.32 34.17 26.09 34.92 25.84C35.67 25.59 36.16 26.57 36.68 26.47C37.2 26.37 39.55 25.88 38.61 24.85C37.67 23.82 39.23 22.64 37.81 22.07C36.39 21.5 36.4 20.94 34.96 21.74C33.52 22.54 32.98 22.88 33.1 23.68Z" fill="#CCCCCC"/>
<path d="M34 23.67C34.16 24.93 34.71 25.52 35.22 25.31C35.73 25.11 36.06 25.86 36.42 25.77C36.78 25.69 38.39 25.29 37.75 24.5C37.11 23.71 38.2 22.79 37.22 22.37C36.25 21.95 36.26 21.52 35.27 22.14C34.29 22.77 33.92 23.05 34 23.67Z" fill="#E8E8E8"/>
<path d="M22.15 23.8501C22.41 25.4901 23.22 26.2601 23.97 26.0101C24.72 25.7601 25.21 26.7401 25.73 26.6401C26.25 26.5401 28.6 26.0501 27.66 25.0201C26.72 23.9901 28.28 22.8101 26.86 22.2401C25.44 21.6701 25.44 21.1101 24 21.9001C22.57 22.6901 22.02 23.0501 22.15 23.8501Z" fill="#CCCCCC"/>
<path d="M23.05 23.8301C23.21 25.0901 23.76 25.6801 24.27 25.4701C24.78 25.2601 25.11 26.0201 25.47 25.9301C25.83 25.8401 27.44 25.4501 26.8 24.6601C26.16 23.8701 27.25 22.9501 26.27 22.5301C25.29 22.1101 25.31 21.6801 24.32 22.3001C23.33 22.9201 22.97 23.2201 23.05 23.8301Z" fill="#E8E8E8"/>
<path d="M13.63 21.07C13.89 22.71 14.7 23.48 15.45 23.23C16.2 22.98 16.69 23.96 17.21 23.86C17.73 23.76 20.08 23.27 19.14 22.24C18.2 21.21 19.76 20.03 18.34 19.46C16.91 18.89 16.93 18.33 15.49 19.13C14.05 19.93 13.5 20.27 13.63 21.07Z" fill="#CCCCCC"/>
<path d="M14.53 21.0601C14.69 22.3201 15.24 22.9101 15.75 22.7001C16.26 22.4901 16.59 23.2501 16.95 23.1601C17.31 23.0801 18.92 22.6801 18.28 21.8901C17.64 21.1001 18.73 20.1801 17.75 19.7601C16.77 19.3401 16.79 18.9101 15.8 19.5301C14.81 20.1501 14.44 20.4401 14.53 21.0601Z" fill="#E8E8E8"/>
<path d="M11.47 3.81003C11.73 5.45003 12.54 6.22003 13.29 5.97003C14.04 5.72003 14.53 6.70003 15.05 6.60003C15.57 6.50003 17.92 6.01003 16.98 4.98003C16.04 3.95003 17.6 2.77003 16.18 2.20003C14.76 1.63003 14.77 1.07003 13.33 1.87003C11.89 2.67003 11.34 3.01003 11.47 3.81003Z" fill="#CCCCCC"/>
<path d="M12.37 3.80005C12.53 5.06005 13.08 5.65005 13.59 5.44005C14.1 5.24005 14.43 5.99005 14.79 5.90005C15.15 5.82005 16.76 5.42005 16.12 4.63005C15.49 3.84005 16.57 2.92005 15.59 2.50005C14.61 2.08005 14.63 1.65005 13.64 2.27005C12.65 2.89005 12.29 3.18005 12.37 3.80005Z" fill="#E8E8E8"/>
<path d="M16.62 13.37C16.8 14.63 17.39 15.22 17.94 15.02C18.49 14.82 18.85 15.57 19.23 15.49C19.61 15.41 21.33 15.03 20.65 14.23C19.97 13.44 21.11 12.52 20.07 12.09C19.03 11.66 19.04 11.23 17.99 11.85C16.92 12.48 16.52 12.75 16.62 13.37Z" fill="#CCCCCC"/>
<path d="M17.27 13.35C17.39 14.32 17.78 14.77 18.16 14.61C18.54 14.45 18.77 15.03 19.04 14.96C19.3 14.89 20.48 14.58 20.02 13.98C19.56 13.38 20.35 12.66 19.64 12.34C18.93 12.02 18.94 11.69 18.22 12.17C17.49 12.66 17.22 12.88 17.27 13.35Z" fill="#E8E8E8"/>
<path d="M11.82 16.07C12 17.33 12.59 17.92 13.14 17.72C13.69 17.52 14.05 18.27 14.43 18.19C14.81 18.11 16.53 17.73 15.85 16.93C15.17 16.13 16.31 15.22 15.27 14.79C14.23 14.36 14.24 13.93 13.19 14.55C12.14 15.17 11.73 15.45 11.82 16.07Z" fill="#CCCCCC"/>
<path d="M12.48 16.06C12.6 17.03 12.99 17.48 13.37 17.32C13.75 17.16 13.98 17.74 14.25 17.67C14.51 17.6 15.69 17.29 15.23 16.69C14.77 16.09 15.56 15.37 14.85 15.05C14.14 14.73 14.15 14.4 13.43 14.88C12.7 15.37 12.42 15.58 12.48 16.06Z" fill="#E8E8E8"/>
<path d="M7.48001 16.6501C7.66001 17.9101 8.25001 18.5001 8.80001 18.3001C9.35001 18.1001 9.71001 18.8501 10.09 18.7701C10.47 18.6901 12.19 18.3101 11.51 17.5101C10.83 16.7201 11.97 15.8001 10.93 15.3701C9.89001 14.9401 9.90001 14.5101 8.85001 15.1301C7.80001 15.7501 7.39001 16.0301 7.48001 16.6501Z" fill="#CCCCCC"/>
<path d="M8.14001 16.6401C8.26001 17.6101 8.65001 18.0601 9.03001 17.9001C9.41001 17.7401 9.64001 18.3201 9.91001 18.2501C10.17 18.1801 11.35 17.8701 10.89 17.2701C10.43 16.6701 11.22 15.9501 10.51 15.6301C9.80001 15.3101 9.81001 14.9801 9.09001 15.4601C8.36001 15.9401 8.08001 16.1601 8.14001 16.6401Z" fill="#E8E8E8"/>
<path d="M19.31 19.21C19.49 20.47 20.08 21.06 20.63 20.86C21.18 20.66 21.54 21.41 21.92 21.33C22.3 21.25 24.02 20.87 23.34 20.07C22.66 19.27 23.8 18.36 22.76 17.93C21.72 17.5 21.73 17.07 20.68 17.69C19.62 18.31 19.22 18.59 19.31 19.21Z" fill="#CCCCCC"/>
<path d="M19.97 19.1901C20.09 20.1601 20.48 20.6101 20.86 20.4501C21.24 20.2901 21.47 20.8701 21.74 20.8001C22.01 20.7301 23.18 20.4201 22.72 19.8201C22.26 19.2201 23.05 18.5001 22.34 18.1801C21.63 17.8601 21.64 17.5301 20.92 18.0101C20.18 18.5001 19.91 18.7201 19.97 19.1901Z" fill="#E8E8E8"/>
<path d="M24.07 12.3401C24.25 13.6001 24.84 14.1901 25.39 13.9901C25.94 13.7901 26.3 14.5401 26.68 14.4601C27.06 14.3801 28.78 14.0001 28.1 13.2001C27.42 12.4101 28.56 11.4901 27.52 11.0601C26.48 10.6301 26.49 10.2001 25.44 10.8201C24.38 11.4501 23.98 11.7201 24.07 12.3401Z" fill="#CCCCCC"/>
<path d="M24.73 12.3301C24.85 13.3001 25.24 13.7501 25.62 13.5901C26 13.4301 26.23 14.0101 26.5 13.9401C26.76 13.8701 27.94 13.5601 27.48 12.9601C27.02 12.3601 27.81 11.6401 27.1 11.3201C26.39 11.0001 26.4 10.6701 25.68 11.1501C24.94 11.6401 24.67 11.8501 24.73 12.3301Z" fill="#E8E8E8"/>
<path d="M10.52 10.76C10.7 12.02 11.29 12.61 11.84 12.41C12.39 12.21 12.75 12.96 13.13 12.88C13.51 12.8 15.23 12.42 14.55 11.62C13.87 10.83 15.01 9.91004 13.97 9.48004C12.93 9.05004 12.94 8.62004 11.89 9.24004C10.83 9.86004 10.43 10.14 10.52 10.76Z" fill="#CCCCCC"/>
<path d="M11.18 10.74C11.3 11.71 11.69 12.16 12.07 12C12.45 11.84 12.68 12.42 12.95 12.35C13.21 12.28 14.39 11.97 13.93 11.37C13.47 10.77 14.26 10.05 13.55 9.73004C12.84 9.41004 12.85 9.08004 12.13 9.56004C11.41 10.04 11.12 10.26 11.18 10.74Z" fill="#E8E8E8"/>
<path d="M25.66 18.7801C25.84 20.0401 26.43 20.6301 26.98 20.4301C27.53 20.2301 27.89 20.9801 28.27 20.9001C28.65 20.8201 30.37 20.4401 29.69 19.6401C29.01 18.8501 30.15 17.9301 29.11 17.5001C28.07 17.0701 28.08 16.6401 27.03 17.2601C25.97 17.8901 25.57 18.1601 25.66 18.7801Z" fill="#CCCCCC"/>
<path d="M26.32 18.7701C26.44 19.7401 26.83 20.1901 27.21 20.0301C27.59 19.8701 27.82 20.4501 28.09 20.3801C28.35 20.3101 29.53 20.0001 29.07 19.4001C28.61 18.8001 29.4 18.0801 28.69 17.7601C27.98 17.4401 27.99 17.1101 27.27 17.5901C26.54 18.0701 26.26 18.2901 26.32 18.7701Z" fill="#E8E8E8"/>
<path d="M24.29 23.46C24.47 24.72 25.06 25.31 25.61 25.11C26.16 24.91 26.52 25.66 26.9 25.58C27.28 25.5 29 25.12 28.32 24.32C27.64 23.52 28.78 22.61 27.74 22.18C26.7 21.75 26.71 21.32 25.66 21.94C24.6 22.57 24.2 22.84 24.29 23.46Z" fill="#CCCCCC"/>
<path d="M24.95 23.4501C25.07 24.4201 25.46 24.8701 25.84 24.7101C26.22 24.5501 26.45 25.1301 26.72 25.0601C26.98 24.9901 28.16 24.6801 27.7 24.0801C27.24 23.4801 28.03 22.7601 27.32 22.4401C26.61 22.1201 26.62 21.7901 25.9 22.2701C25.16 22.7501 24.89 22.9701 24.95 23.4501Z" fill="#E8E8E8"/>
<path d="M28.75 22.96C28.93 24.22 29.52 24.81 30.07 24.61C30.62 24.41 30.98 25.16 31.36 25.08C31.74 25 33.46 24.62 32.78 23.82C32.1 23.02 33.24 22.11 32.2 21.68C31.16 21.25 31.17 20.82 30.12 21.44C29.06 22.07 28.66 22.34 28.75 22.96Z" fill="#CCCCCC"/>
<path d="M29.41 22.9501C29.53 23.9201 29.92 24.3701 30.3 24.2101C30.68 24.0501 30.91 24.6301 31.18 24.5601C31.44 24.4901 32.62 24.1801 32.16 23.5801C31.7 22.9801 32.49 22.2601 31.78 21.9401C31.07 21.6201 31.08 21.2901 30.36 21.7701C29.63 22.2501 29.35 22.4701 29.41 22.9501Z" fill="#E8E8E8"/>
<path d="M31.94 19.67C32.12 20.93 32.71 21.52 33.26 21.32C33.81 21.12 34.17 21.87 34.55 21.79C34.93 21.71 36.65 21.33 35.97 20.53C35.29 19.74 36.43 18.82 35.39 18.39C34.35 17.96 34.36 17.53 33.31 18.15C32.25 18.78 31.85 19.05 31.94 19.67Z" fill="#CCCCCC"/>
<path d="M32.6 19.65C32.72 20.62 33.11 21.07 33.49 20.91C33.87 20.75 34.1 21.33 34.37 21.26C34.63 21.19 35.81 20.88 35.35 20.28C34.89 19.68 35.68 18.96 34.97 18.64C34.26 18.32 34.27 17.99 33.55 18.47C32.83 18.95 32.54 19.18 32.6 19.65Z" fill="#E8E8E8"/>
<path d="M13.7 7.82003C13.88 9.08003 14.47 9.67003 15.02 9.47003C15.57 9.27003 15.93 10.02 16.31 9.94003C16.69 9.86003 18.41 9.48003 17.73 8.68003C17.05 7.88003 18.19 6.97003 17.15 6.54003C16.11 6.11003 16.12 5.68003 15.07 6.30003C14 6.92003 13.61 7.20003 13.7 7.82003Z" fill="#CCCCCC"/>
<path d="M14.35 7.80004C14.47 8.77004 14.86 9.22004 15.24 9.06004C15.62 8.90004 15.85 9.48004 16.12 9.41004C16.38 9.34004 17.56 9.03004 17.1 8.43004C16.64 7.83004 17.43 7.11004 16.72 6.79004C16.01 6.47004 16.02 6.14004 15.3 6.62004C14.57 7.11004 14.3 7.33004 14.35 7.80004Z" fill="#E8E8E8"/>
<path d="M14.9 20.43C15.08 21.69 15.67 22.28 16.22 22.08C16.77 21.88 17.13 22.63 17.51 22.55C17.89 22.47 19.61 22.09 18.93 21.29C18.25 20.5 19.39 19.58 18.35 19.15C17.31 18.72 17.32 18.29 16.27 18.91C15.21 19.53 14.81 19.81 14.9 20.43Z" fill="#CCCCCC"/>
<path d="M15.5601 20.41C15.6801 21.38 16.0701 21.83 16.4501 21.67C16.8301 21.51 17.0601 22.09 17.3301 22.02C17.5901 21.95 18.7701 21.64 18.3101 21.04C17.8501 20.44 18.6401 19.72 17.9301 19.4C17.2201 19.08 17.2301 18.75 16.5101 19.23C15.7801 19.72 15.5001 19.93 15.5601 20.41Z" fill="#E8E8E8"/>
<path d="M32.47 29.38C32.47 29.38 32.9 34.7 39.75 34.05C42.29 34.5 41.28 35.31 43.79 35.31C44.6 35.31 49.6 35.48 50.81 31.59C51.5 29.36 55 28.54 55 28.54C55 28.54 60.85 24.53 59.69 22.35C59.4 21.44 60.07 17.71 56.23 16.89C55.27 16.89 54.88 12.52 48.46 15.62C45.73 16.26 43.66 15.35 42.32 15.35C40.98 15.35 38 15.91 36.09 18.54C34.99 20.05 33.71 18.91 31.68 19.95C30.64 20.49 26.71 25.48 32.47 29.38Z" fill="#A3A3A3"/>
<path d="M33.39 29.01C33.39 29.01 33.78 33.88 40.12 33.29C42.47 33.7 41.53 34.44 43.85 34.44C44.6 34.44 49.22 34.6 50.34 31.04C50.98 29 54.21 28.24 54.21 28.24C54.21 28.24 59.61 24.57 58.55 22.57C58.28 21.74 58.9 18.32 55.35 17.58C54.46 17.58 54.1 13.58 48.17 16.42C45.65 17.01 43.74 16.18 42.5 16.18C41.26 16.18 38.51 16.69 36.74 19.1C35.73 20.49 34.54 19.44 32.67 20.39C31.7 20.87 28.07 25.43 33.39 29.01Z" fill="#D4D4D4"/>
<path d="M35.01 28.84C37.24 30.47 38.95 30.53 39.38 29.47C39.81 28.42 41.47 29.04 41.86 28.4C42.25 27.76 43.97 24.8 41.81 24.57C39.65 24.34 39.76 21.39 37.68 22.19C35.6 22.99 34.94 22.33 34.49 24.71C34.03 27.09 33.92 28.05 35.01 28.84Z" fill="#CCCCCC"/>
<path d="M35.88 27.9101C37.56 29.2001 38.8 29.3201 39.06 28.5601C39.32 27.8001 40.54 28.3301 40.79 27.8701C41.04 27.4101 42.14 25.3101 40.57 25.0501C39 24.7901 38.95 22.6201 37.49 23.1201C36.03 23.6201 35.53 23.1101 35.31 24.8401C35.09 26.5801 35.06 27.2801 35.88 27.9101Z" fill="#E8E8E8"/>
<path d="M43.72 29.4801C45.95 31.1101 47.66 31.1701 48.09 30.1101C48.52 29.0501 50.18 29.6801 50.57 29.0401C50.96 28.4001 52.68 25.4401 50.52 25.2101C48.36 24.9801 48.47 22.0301 46.39 22.8301C44.31 23.6301 43.65 22.9701 43.2 25.3501C42.74 27.7301 42.63 28.6801 43.72 29.4801Z" fill="#CCCCCC"/>
<path d="M44.5801 28.5501C46.2601 29.8401 47.5 29.9601 47.76 29.2001C48.02 28.4401 49.2401 28.9701 49.4901 28.5101C49.7401 28.0501 50.84 25.9501 49.27 25.6901C47.7 25.4301 47.65 23.2601 46.19 23.7601C44.73 24.2601 44.23 23.7501 44.01 25.4801C43.8 27.2201 43.7601 27.9201 44.5801 28.5501Z" fill="#E8E8E8"/>
<path d="M41.81 24.1101C44.04 25.7401 45.75 25.8001 46.18 24.7401C46.61 23.6901 48.27 24.3101 48.66 23.6701C49.05 23.0301 50.77 20.0701 48.61 19.8401C46.45 19.6101 46.56 16.6601 44.48 17.4601C42.4 18.2601 41.74 17.6001 41.29 19.9801C40.83 22.3601 40.72 23.3201 41.81 24.1101Z" fill="#CCCCCC"/>
<path d="M42.67 23.1801C44.35 24.4701 45.59 24.5901 45.85 23.8301C46.11 23.0701 47.33 23.6001 47.58 23.1401C47.83 22.6801 48.93 20.5801 47.36 20.3201C45.79 20.0601 45.74 17.8901 44.28 18.3901C42.82 18.8901 42.32 18.3801 42.1 20.1101C41.88 21.8501 41.85 22.5501 42.67 23.1801Z" fill="#E8E8E8"/>
<path d="M50.15 23.6201C52 24.9301 53.47 24.9401 53.86 24.0401C54.25 23.1401 55.65 23.6201 56 23.0701C56.35 22.5201 57.9 19.9801 56.06 19.8401C54.22 19.7001 54.41 17.2101 52.61 17.9401C50.81 18.6701 50.27 18.1301 49.81 20.1501C49.37 22.1601 49.25 22.9701 50.15 23.6201Z" fill="#CCCCCC"/>
<path d="M50.92 22.8101C52.32 23.8501 53.37 23.9201 53.61 23.2801C53.85 22.6301 54.88 23.0501 55.11 22.6601C55.34 22.2701 56.33 20.4701 55.01 20.2901C53.68 20.1101 53.7 18.2801 52.44 18.7401C51.18 19.2001 50.76 18.7801 50.53 20.2501C50.3 21.7201 50.23 22.3001 50.92 22.8101Z" fill="#E8E8E8"/>
<path d="M46.48 26.3701C48.33 27.6801 49.8 27.6901 50.19 26.7901C50.58 25.8901 51.98 26.3701 52.33 25.8201C52.68 25.2701 54.23 22.7301 52.39 22.5901C50.55 22.4501 50.74 19.9601 48.94 20.6901C47.14 21.4201 46.6 20.8801 46.14 22.9001C45.68 24.9201 45.57 25.7301 46.48 26.3701Z" fill="#CCCCCC"/>
<path d="M47.2401 25.5601C48.6401 26.6001 49.6901 26.6701 49.9301 26.0301C50.1701 25.3901 51.2001 25.8001 51.4301 25.4101C51.6601 25.0201 52.6501 23.2201 51.3301 23.0401C50.0001 22.8601 50.02 21.0301 48.76 21.4901C47.5 21.9501 47.08 21.5301 46.85 23.0001C46.61 24.4601 46.5601 25.0501 47.2401 25.5601Z" fill="#E8E8E8"/>
<path d="M38.91 31.38C40.58 32.48 41.96 32.4 42.4 31.54C42.83 30.69 44.13 31.05 44.5 30.52C44.87 29.99 46.51 27.55 44.78 27.53C43.05 27.51 43.39 25.2 41.64 25.98C39.89 26.76 39.41 26.3 38.84 28.19C38.26 30.09 38.09 30.84 38.91 31.38Z" fill="#CCCCCC"/>
<path d="M39.68 30.59C40.93 31.47 41.92 31.47 42.2 30.86C42.47 30.25 43.42 30.57 43.66 30.19C43.9 29.81 44.97 28.09 43.72 28C42.48 27.91 42.61 26.23 41.39 26.73C40.17 27.23 39.8 26.87 39.48 28.24C39.16 29.61 39.07 30.16 39.68 30.59Z" fill="#E8E8E8"/>
<path d="M34.38 25.6301C36.19 26.9801 37.56 27.0601 37.88 26.2201C38.2 25.3801 39.54 25.9101 39.83 25.4001C40.13 24.8901 41.43 22.5401 39.71 22.3201C37.98 22.0901 38.01 19.7201 36.37 20.3301C34.73 20.9401 34.19 20.3901 33.88 22.3001C33.56 24.2001 33.49 24.9701 34.38 25.6301Z" fill="#CCCCCC"/>
<path d="M35.05 24.8901C36.41 25.9601 37.4 26.0801 37.59 25.4701C37.78 24.8701 38.77 25.3101 38.96 24.9501C39.15 24.5901 39.98 22.9201 38.73 22.6801C37.48 22.4401 37.39 20.7001 36.24 21.0701C35.09 21.4501 34.67 21.0201 34.54 22.4201C34.39 23.8101 34.38 24.3701 35.05 24.8901Z" fill="#E8E8E8"/>
<path d="M37.75 24.51C39.6 25.82 41.07 25.83 41.46 24.93C41.85 24.03 43.25 24.51 43.6 23.96C43.95 23.41 45.5 20.87 43.66 20.73C41.82 20.59 42.01 18.1 40.21 18.83C38.41 19.56 37.87 19.02 37.41 21.04C36.97 23.06 36.84 23.87 37.75 24.51Z" fill="#CCCCCC"/>
<path d="M38.52 23.7C39.92 24.74 40.97 24.81 41.21 24.17C41.45 23.53 42.48 23.94 42.71 23.55C42.94 23.16 43.93 21.36 42.61 21.18C41.28 21 41.3 19.17 40.04 19.63C38.78 20.09 38.36 19.67 38.13 21.14C37.9 22.61 37.83 23.19 38.52 23.7Z" fill="#E8E8E8"/>
<path d="M39.6 27.6801C41.45 28.9901 42.92 29.0001 43.31 28.1001C43.7 27.2001 45.1 27.6801 45.45 27.1301C45.8 26.5801 47.35 24.0401 45.51 23.9001C43.67 23.7601 43.86 21.2701 42.06 22.0001C40.26 22.7301 39.72 22.1901 39.26 24.2101C38.81 26.2301 38.69 27.0401 39.6 27.6801Z" fill="#CCCCCC"/>
<path d="M40.36 26.8801C41.76 27.9201 42.81 27.9901 43.05 27.3501C43.29 26.7001 44.32 27.1201 44.55 26.7301C44.78 26.3401 45.77 24.5401 44.45 24.3601C43.12 24.1801 43.14 22.3501 41.88 22.8101C40.62 23.2701 40.2 22.8501 39.97 24.3201C39.73 25.7801 39.68 26.3701 40.36 26.8801Z" fill="#E8E8E8"/>
<path d="M40.7 26.48C41.97 27.42 42.94 27.47 43.17 26.88C43.4 26.29 44.34 26.65 44.56 26.29C44.78 25.93 45.71 24.27 44.49 24.12C43.27 23.97 43.31 22.3 42.14 22.73C40.97 23.17 40.6 22.79 40.36 24.13C40.13 25.48 40.08 26.02 40.7 26.48Z" fill="#CCCCCC"/>
<path d="M41.18 25.96C42.14 26.71 42.84 26.78 42.98 26.36C43.12 25.93 43.81 26.24 43.95 25.99C44.09 25.73 44.68 24.55 43.8 24.39C42.92 24.23 42.86 23 42.04 23.27C41.22 23.54 40.93 23.25 40.83 24.23C40.72 25.2 40.71 25.59 41.18 25.96Z" fill="#E8E8E8"/>
<path d="M35.32 24.66C36.59 25.6 37.56 25.65 37.79 25.06C38.02 24.47 38.96 24.83 39.18 24.47C39.4 24.11 40.33 22.45 39.11 22.3C37.89 22.15 37.93 20.48 36.76 20.91C35.59 21.34 35.22 20.97 34.98 22.31C34.74 23.65 34.69 24.2 35.32 24.66Z" fill="#CCCCCC"/>
<path d="M35.79 24.14C36.75 24.89 37.45 24.96 37.59 24.54C37.73 24.11 38.42 24.42 38.56 24.17C38.7 23.92 39.29 22.73 38.41 22.57C37.53 22.41 37.47 21.18 36.65 21.45C35.83 21.72 35.54 21.43 35.44 22.41C35.34 23.38 35.32 23.77 35.79 24.14Z" fill="#E8E8E8"/>
<path d="M47.76 25.1401C49.03 26.0801 50 26.1301 50.23 25.5401C50.46 24.9501 51.4 25.3101 51.62 24.9501C51.84 24.5901 52.77 22.9301 51.55 22.7801C50.33 22.6301 50.37 20.9601 49.2 21.3901C48.03 21.8201 47.66 21.4501 47.42 22.7901C47.19 24.1401 47.13 24.6801 47.76 25.1401Z" fill="#CCCCCC"/>
<path d="M48.2301 24.6201C49.1901 25.3701 49.89 25.4401 50.0301 25.0201C50.1701 24.5901 50.8601 24.9001 51.0001 24.6501C51.1401 24.3901 51.73 23.2101 50.85 23.0501C49.97 22.8901 49.9101 21.6601 49.0901 21.9301C48.2701 22.2001 47.9801 21.9101 47.8801 22.8901C47.7801 23.8601 47.7601 24.2601 48.2301 24.6201Z" fill="#E8E8E8"/>
<path d="M43.36 22.5801C44.63 23.5201 45.6 23.5701 45.83 22.9801C46.06 22.3901 47 22.7501 47.22 22.3901C47.44 22.0301 48.37 20.3701 47.15 20.2201C45.93 20.0701 45.97 18.4001 44.8 18.8301C43.63 19.2601 43.26 18.8901 43.02 20.2301C42.78 21.5701 42.74 22.1101 43.36 22.5801Z" fill="#CCCCCC"/>
<path d="M43.84 22.0501C44.8 22.8001 45.5 22.8701 45.64 22.4501C45.78 22.0201 46.47 22.3301 46.61 22.0801C46.75 21.8201 47.34 20.6401 46.46 20.4801C45.58 20.3201 45.52 19.0901 44.7 19.3601C43.88 19.6301 43.59 19.3401 43.49 20.3201C43.38 21.2901 43.37 21.6901 43.84 22.0501Z" fill="#E8E8E8"/>
<path d="M39.98 30.12C41.25 31.06 42.22 31.11 42.45 30.52C42.68 29.93 43.62 30.29 43.84 29.93C44.06 29.57 44.99 27.91 43.77 27.76C42.55 27.61 42.59 25.94 41.42 26.37C40.25 26.8 39.88 26.43 39.64 27.77C39.41 29.11 39.36 29.66 39.98 30.12Z" fill="#CCCCCC"/>
<path d="M40.46 29.6C41.42 30.35 42.12 30.42 42.26 30C42.4 29.57 43.09 29.88 43.23 29.63C43.37 29.37 43.96 28.19 43.08 28.03C42.2 27.87 42.14 26.64 41.32 26.91C40.5 27.18 40.21 26.89 40.11 27.87C40 28.83 39.99 29.23 40.46 29.6Z" fill="#E8E8E8"/>
<path d="M36.71 28.0001C37.83 28.7701 38.73 28.7401 39 28.1901C39.26 27.6301 40.12 27.9001 40.35 27.5601C40.58 27.2201 41.59 25.6401 40.46 25.5901C39.33 25.5401 39.49 24.0101 38.37 24.4901C37.24 24.9701 36.92 24.6501 36.59 25.8901C36.25 27.1301 36.16 27.6201 36.71 28.0001Z" fill="#CCCCCC"/>
<path d="M37.2 27.4901C38.04 28.1001 38.69 28.1201 38.85 27.7201C39.01 27.3201 39.64 27.5501 39.79 27.3101C39.94 27.0701 40.59 25.9501 39.78 25.8601C38.96 25.7801 39.01 24.6601 38.22 24.9701C37.43 25.2801 37.18 25.0301 37.01 25.9301C36.83 26.8301 36.78 27.1901 37.2 27.4901Z" fill="#E8E8E8"/>
<path d="M51.04 22.6901C52.31 23.6301 53.28 23.6801 53.51 23.0901C53.74 22.5001 54.68 22.8601 54.9 22.5001C55.12 22.1401 56.05 20.4801 54.83 20.3301C53.61 20.1801 53.65 18.5101 52.48 18.9401C51.31 19.3801 50.94 19.0001 50.7 20.3401C50.47 21.6901 50.42 22.2301 51.04 22.6901Z" fill="#CCCCCC"/>
<path d="M51.52 22.17C52.48 22.92 53.18 22.99 53.32 22.57C53.46 22.14 54.15 22.45 54.29 22.2C54.43 21.94 55.02 20.76 54.14 20.6C53.26 20.44 53.2 19.21 52.38 19.48C51.56 19.75 51.27 19.46 51.17 20.44C51.06 21.41 51.05 21.8 51.52 22.17Z" fill="#E8E8E8"/>
<path d="M47.75 20.87C48.75 21.61 49.51 21.65 49.7 21.18C49.88 20.71 50.63 21 50.79 20.71C50.96 20.42 51.7 19.11 50.74 19C49.78 18.88 49.81 17.57 48.89 17.91C47.97 18.26 47.67 17.96 47.49 19.02C47.3 20.08 47.26 20.51 47.75 20.87Z" fill="#CCCCCC"/>
<path d="M48.12 20.4601C48.87 21.0501 49.43 21.1101 49.54 20.7701C49.65 20.4301 50.2 20.6801 50.31 20.4701C50.42 20.2701 50.89 19.3301 50.2 19.2101C49.51 19.0901 49.46 18.1201 48.82 18.3301C48.17 18.5501 47.95 18.3101 47.86 19.0901C47.77 19.8601 47.75 20.1701 48.12 20.4601Z" fill="#E8E8E8"/>
<path d="M33.09 27.58C34.09 28.32 34.85 28.36 35.04 27.89C35.23 27.42 35.97 27.71 36.13 27.42C36.29 27.13 37.04 25.82 36.08 25.71C35.12 25.6 35.15 24.28 34.23 24.62C33.31 24.97 33.01 24.67 32.83 25.73C32.64 26.79 32.6 27.22 33.09 27.58Z" fill="#CCCCCC"/>
<path d="M33.47 27.17C34.22 27.76 34.78 27.82 34.89 27.48C35 27.14 35.55 27.39 35.66 27.18C35.77 26.98 36.24 26.04 35.55 25.92C34.85 25.79 34.81 24.83 34.17 25.04C33.52 25.26 33.3 25.02 33.21 25.8C33.11 26.57 33.1 26.88 33.47 27.17Z" fill="#E8E8E8"/>
<path d="M39.53 22.41C40.53 23.15 41.29 23.19 41.48 22.72C41.67 22.25 42.41 22.54 42.57 22.25C42.73 21.96 43.48 20.65 42.52 20.54C41.56 20.43 41.59 19.11 40.67 19.45C39.75 19.79 39.45 19.5 39.27 20.56C39.08 21.63 39.04 22.05 39.53 22.41Z" fill="#CCCCCC"/>
<path d="M39.91 22.0001C40.66 22.5901 41.22 22.6501 41.33 22.3101C41.44 21.9701 41.99 22.2201 42.1 22.0101C42.21 21.8101 42.68 20.8701 41.99 20.7501C41.29 20.6201 41.25 19.6601 40.61 19.8701C39.96 20.0901 39.74 19.8501 39.65 20.6301C39.55 21.4001 39.54 21.7201 39.91 22.0001Z" fill="#E8E8E8"/>
<path d="M45.6 19.8801C46.6 20.6201 47.36 20.6601 47.55 20.1901C47.74 19.7201 48.48 20.0101 48.64 19.7201C48.8 19.4301 49.55 18.1201 48.59 18.0101C47.63 17.9001 47.66 16.5801 46.74 16.9201C45.82 17.2701 45.52 16.9701 45.34 18.0301C45.16 19.0901 45.11 19.5201 45.6 19.8801Z" fill="#CCCCCC"/>
<path d="M45.98 19.4701C46.73 20.0601 47.29 20.1201 47.4 19.7801C47.51 19.4401 48.06 19.6901 48.17 19.4801C48.28 19.2801 48.75 18.3401 48.06 18.2201C47.37 18.1001 47.32 17.1301 46.68 17.3401C46.03 17.5601 45.81 17.3201 45.72 18.1001C45.62 18.8701 45.61 19.1801 45.98 19.4701Z" fill="#E8E8E8"/>
<path d="M34.32 22.93C35.32 23.67 36.08 23.71 36.27 23.24C36.46 22.77 37.2 23.06 37.36 22.77C37.52 22.48 38.27 21.17 37.31 21.06C36.35 20.94 36.38 19.63 35.46 19.97C34.54 20.31 34.24 20.02 34.06 21.08C33.88 22.15 33.83 22.57 34.32 22.93Z" fill="#CCCCCC"/>
<path d="M34.7 22.52C35.45 23.11 36.01 23.17 36.12 22.83C36.23 22.49 36.78 22.74 36.89 22.53C37 22.32 37.47 21.39 36.78 21.27C36.08 21.14 36.04 20.18 35.4 20.39C34.75 20.61 34.53 20.37 34.44 21.15C34.34 21.92 34.33 22.24 34.7 22.52Z" fill="#E8E8E8"/>
<path d="M41.71 25.61C42.47 26.19 43.05 26.23 43.17 25.88C43.29 25.53 43.86 25.76 43.98 25.55C44.1 25.34 44.63 24.36 43.91 24.26C43.19 24.16 43.18 23.16 42.5 23.4C41.82 23.64 41.59 23.41 41.47 24.21C41.35 25.01 41.33 25.33 41.71 25.61Z" fill="#CCCCCC"/>
<path d="M41.9801 25.31C42.5601 25.77 42.9701 25.82 43.0501 25.57C43.1301 25.32 43.5401 25.51 43.6201 25.36C43.7001 25.21 44.0301 24.51 43.5101 24.4C42.9901 24.29 42.9401 23.56 42.4601 23.71C41.9801 23.86 41.8101 23.68 41.7601 24.26C41.7001 24.85 41.7001 25.08 41.9801 25.31Z" fill="#E8E8E8"/>
<path d="M48.34 24.1901C49.1 24.7701 49.68 24.8101 49.8 24.4601C49.92 24.1101 50.49 24.3401 50.61 24.1301C50.73 23.9201 51.26 22.9401 50.54 22.8401C49.82 22.7401 49.81 21.7401 49.13 21.9801C48.45 22.2201 48.22 21.9901 48.1 22.7901C47.99 23.5801 47.97 23.9101 48.34 24.1901Z" fill="#CCCCCC"/>
<path d="M48.62 23.88C49.2 24.34 49.61 24.39 49.69 24.14C49.77 23.89 50.18 24.08 50.26 23.9301C50.34 23.7801 50.67 23.08 50.15 22.97C49.63 22.86 49.58 22.1301 49.1 22.2801C48.62 22.4301 48.45 22.25 48.4 22.83C48.34 23.42 48.34 23.66 48.62 23.88Z" fill="#E8E8E8"/>
<path d="M44.35 21.72C45.11 22.3 45.69 22.34 45.81 21.99C45.93 21.64 46.5 21.87 46.62 21.66C46.74 21.45 47.27 20.47 46.55 20.37C45.83 20.26 45.82 19.27 45.14 19.51C44.46 19.75 44.23 19.52 44.11 20.32C44 21.12 43.97 21.44 44.35 21.72Z" fill="#CCCCCC"/>
<path d="M44.62 21.42C45.2 21.88 45.61 21.93 45.69 21.68C45.77 21.43 46.18 21.62 46.26 21.47C46.34 21.32 46.67 20.62 46.15 20.51C45.63 20.4 45.58 19.67 45.1 19.82C44.62 19.97 44.45 19.79 44.4 20.37C44.34 20.96 44.34 21.19 44.62 21.42Z" fill="#E8E8E8"/>
<path d="M37.68 26.9901C38.44 27.5701 39.02 27.6101 39.14 27.2601C39.26 26.9101 39.83 27.1401 39.95 26.9301C40.07 26.7201 40.6 25.7401 39.88 25.6401C39.16 25.5401 39.15 24.5401 38.47 24.7801C37.79 25.0201 37.56 24.7901 37.44 25.5901C37.32 26.3901 37.3 26.7101 37.68 26.9901Z" fill="#CCCCCC"/>
<path d="M37.95 26.69C38.53 27.15 38.94 27.2 39.02 26.95C39.1 26.7 39.51 26.89 39.59 26.74C39.67 26.59 40 25.89 39.48 25.78C38.96 25.67 38.91 24.94 38.43 25.09C37.95 25.24 37.78 25.06 37.73 25.64C37.67 26.23 37.67 26.46 37.95 26.69Z" fill="#E8E8E8"/>
<path d="M35.1 21.83C35.86 22.41 36.44 22.45 36.56 22.1C36.68 21.75 37.25 21.98 37.37 21.77C37.49 21.56 38.02 20.58 37.3 20.48C36.58 20.37 36.57 19.38 35.89 19.62C35.21 19.86 34.98 19.63 34.86 20.43C34.75 21.23 34.72 21.55 35.1 21.83Z" fill="#CCCCCC"/>
<path d="M35.37 21.53C35.95 21.99 36.36 22.04 36.44 21.79C36.52 21.54 36.93 21.73 37.01 21.58C37.09 21.43 37.42 20.73 36.9 20.62C36.38 20.51 36.33 19.78 35.85 19.93C35.37 20.08 35.2 19.9 35.15 20.48C35.09 21.07 35.09 21.3 35.37 21.53Z" fill="#E8E8E8"/>
<path d="M43.38 32.82C45.23 34.13 46.7 34.14 47.09 33.24C47.48 32.34 48.88 32.82 49.23 32.27C49.58 31.72 51.13 29.18 49.29 29.04C47.45 28.9 47.64 26.41 45.84 27.14C44.04 27.87 43.5 27.33 43.04 29.35C42.58 31.37 42.47 32.18 43.38 32.82Z" fill="#CCCCCC"/>
<path d="M44.14 32.02C45.54 33.06 46.59 33.13 46.83 32.49C47.07 31.84 48.1 32.26 48.33 31.87C48.56 31.48 49.55 29.68 48.23 29.5C46.9 29.32 46.92 27.49 45.66 27.95C44.4 28.41 43.98 27.99 43.75 29.46C43.51 30.91 43.46 31.51 44.14 32.02Z" fill="#E8E8E8"/>
<path d="M44.66 31.59C45.93 32.53 46.9 32.58 47.13 31.99C47.36 31.4 48.3 31.76 48.52 31.4C48.73 31.04 49.67 29.38 48.45 29.23C47.23 29.08 47.27 27.41 46.1 27.84C44.93 28.28 44.56 27.9 44.32 29.24C44.09 30.59 44.03 31.13 44.66 31.59Z" fill="#CCCCCC"/>
<path d="M45.13 31.07C46.09 31.82 46.79 31.89 46.93 31.47C47.07 31.04 47.76 31.35 47.9 31.1C48.04 30.85 48.63 29.66 47.75 29.5C46.87 29.34 46.81 28.11 45.99 28.38C45.17 28.65 44.88 28.36 44.78 29.34C44.68 30.32 44.66 30.71 45.13 31.07Z" fill="#E8E8E8"/>
<path d="M39.09 21.7C40.94 23.01 42.41 23.02 42.8 22.12C43.19 21.22 44.59 21.7 44.94 21.15C45.29 20.6 46.84 18.06 45 17.92C43.16 17.78 43.35 15.29 41.55 16.02C39.75 16.75 39.21 16.21 38.75 18.23C38.3 20.25 38.18 21.06 39.09 21.7Z" fill="#CCCCCC"/>
<path d="M39.85 20.89C41.25 21.93 42.3 22 42.54 21.36C42.78 20.71 43.81 21.13 44.04 20.74C44.27 20.35 45.26 18.55 43.94 18.37C42.62 18.19 42.63 16.36 41.37 16.82C40.11 17.28 39.69 16.86 39.46 18.33C39.22 19.79 39.17 20.38 39.85 20.89Z" fill="#E8E8E8"/>
<path d="M40.36 20.47C41.63 21.41 42.6 21.46 42.83 20.87C43.06 20.28 44 20.64 44.22 20.28C44.44 19.92 45.37 18.26 44.15 18.11C42.93 17.96 42.97 16.29 41.8 16.72C40.63 17.16 40.26 16.78 40.02 18.12C39.79 19.47 39.74 20.01 40.36 20.47Z" fill="#CCCCCC"/>
<path d="M40.84 19.95C41.8 20.7 42.5 20.77 42.64 20.35C42.78 19.92 43.47 20.23 43.61 19.98C43.75 19.72 44.34 18.54 43.46 18.38C42.58 18.22 42.52 16.99 41.7 17.26C40.88 17.53 40.59 17.24 40.49 18.22C40.38 19.19 40.37 19.59 40.84 19.95Z" fill="#E8E8E8"/>
<path d="M50.78 26.88C52.63 28.19 54.1 28.2 54.49 27.3C54.88 26.4 56.28 26.88 56.63 26.33C56.98 25.78 58.53 23.24 56.69 23.1C54.85 22.96 55.04 20.47 53.24 21.2C51.44 21.93 50.9 21.39 50.44 23.41C49.99 25.43 49.87 26.24 50.78 26.88Z" fill="#CCCCCC"/>
<path d="M51.54 26.08C52.94 27.12 53.99 27.19 54.23 26.55C54.47 25.91 55.5 26.32 55.73 25.93C55.96 25.54 56.95 23.74 55.63 23.56C54.3 23.38 54.32 21.55 53.06 22.01C51.8 22.47 51.38 22.05 51.15 23.52C50.91 24.98 50.86 25.57 51.54 26.08Z" fill="#E8E8E8"/>
<path d="M52.05 25.65C53.32 26.59 54.29 26.64 54.52 26.05C54.75 25.46 55.69 25.82 55.91 25.46C56.12 25.1 57.06 23.44 55.84 23.29C54.62 23.14 54.66 21.47 53.49 21.9C52.32 22.34 51.95 21.96 51.71 23.3C51.48 24.65 51.43 25.19 52.05 25.65Z" fill="#CCCCCC"/>
<path d="M52.53 25.13C53.49 25.88 54.19 25.95 54.33 25.53C54.47 25.1 55.16 25.41 55.3 25.16C55.44 24.91 56.03 23.72 55.15 23.56C54.27 23.4 54.21 22.17 53.39 22.44C52.57 22.71 52.28 22.42 52.18 23.4C52.07 24.37 52.06 24.77 52.53 25.13Z" fill="#E8E8E8"/>
<path d="M49.09 20.84C50.94 22.15 52.41 22.16 52.8 21.26C53.19 20.36 54.59 20.84 54.94 20.29C55.29 19.74 56.84 17.2 55 17.06C53.16 16.92 53.35 14.43 51.55 15.16C49.75 15.89 49.21 15.35 48.75 17.37C48.31 19.39 48.18 20.2 49.09 20.84Z" fill="#CCCCCC"/>
<path d="M49.86 20.03C51.26 21.07 52.31 21.14 52.55 20.5C52.79 19.86 53.82 20.27 54.05 19.88C54.28 19.49 55.27 17.69 53.95 17.51C52.63 17.33 52.64 15.5 51.38 15.96C50.12 16.42 49.7 16 49.47 17.47C49.22 18.93 49.17 19.52 49.86 20.03Z" fill="#E8E8E8"/>
<path d="M50.37 19.61C51.64 20.55 52.61 20.6 52.84 20.01C53.07 19.42 54.01 19.78 54.23 19.42C54.45 19.06 55.38 17.4 54.16 17.25C52.94 17.1 52.98 15.43 51.81 15.86C50.64 16.3 50.27 15.92 50.03 17.26C49.8 18.61 49.74 19.15 50.37 19.61Z" fill="#CCCCCC"/>
<path d="M50.84 19.09C51.8 19.84 52.5 19.91 52.64 19.49C52.78 19.06 53.47 19.37 53.61 19.12C53.75 18.87 54.34 17.68 53.46 17.52C52.58 17.36 52.52 16.13 51.7 16.4C50.88 16.67 50.59 16.38 50.49 17.36C50.39 18.33 50.37 18.72 50.84 19.09Z" fill="#E8E8E8"/>
<path d="M36.77 31.1801C38.62 32.4901 40.09 32.5001 40.48 31.6001C40.87 30.7001 42.27 31.1801 42.62 30.6301C42.97 30.0801 44.52 27.5401 42.68 27.4001C40.84 27.2601 41.03 24.7701 39.23 25.5001C37.43 26.2301 36.89 25.6901 36.43 27.7101C35.98 29.7301 35.86 30.5401 36.77 31.1801Z" fill="#CCCCCC"/>
<path d="M37.53 30.3801C38.93 31.4201 39.98 31.4901 40.22 30.8501C40.46 30.2101 41.49 30.6201 41.72 30.2301C41.95 29.8401 42.94 28.0401 41.62 27.8601C40.29 27.6801 40.31 25.8501 39.05 26.3101C37.79 26.7701 37.37 26.3501 37.14 27.8201C36.9 29.2701 36.85 29.8701 37.53 30.3801Z" fill="#E8E8E8"/>
<path d="M36.64 30.12C37.91 31.06 38.88 31.11 39.11 30.52C39.34 29.93 40.28 30.29 40.5 29.93C40.71 29.57 41.65 27.91 40.43 27.76C39.21 27.61 39.25 25.94 38.08 26.37C36.91 26.81 36.54 26.43 36.3 27.77C36.07 29.12 36.01 29.66 36.64 30.12Z" fill="#CCCCCC"/>
<path d="M37.11 29.6C38.07 30.35 38.77 30.42 38.91 30C39.05 29.57 39.74 29.88 39.88 29.63C40.02 29.38 40.61 28.19 39.73 28.03C38.85 27.87 38.79 26.64 37.97 26.91C37.15 27.18 36.86 26.89 36.76 27.87C36.66 28.85 36.64 29.23 37.11 29.6Z" fill="#E8E8E8"/>
<path d="M29.75 31.96C29.75 31.96 30.75 29.35 32.76 28.61C34.45 27.99 38.7 26.82 42.15 26.82C43.13 26.82 42.12 26.24 41.77 26.24C40.3 26.26 32.77 27.75 32.77 27.75C32.77 27.75 35.84 24.97 39.64 23.4C39.64 23.4 39.9 22.81 39.06 22.98C36.91 23.4 31.83 27.47 31.83 27.47C31.83 27.47 28.63 30.42 28.34 31.96H29.75Z" fill="#91786D"/>
<path d="M29.75 31.96C29.75 31.96 30.75 29.35 32.76 28.61C34.45 27.99 38.7 26.82 42.15 26.82C43.13 26.82 42.23 26.52 41.87 26.52C40.4 26.54 32.46 28.3 32.46 28.3C32.46 28.3 35.48 25.18 39.28 23.6C39.28 23.6 39.58 23.34 38.78 23.55C36.14 24.25 31.91 28.37 31.91 28.37C31.91 28.37 29.84 30.56 29.21 31.95H29.75V31.96Z" fill="#B5AA8B"/>
<path d="M19.63 33.26C19.63 33.26 26.72 30.77 29.97 25.69C29.97 25.69 30.27 23.13 17.25 15.78C16.99 15.64 16.92 14.52 18.08 15.13C25.02 18.77 30.55 24.32 30.55 24.32C30.55 24.32 31.79 24.34 30.29 16.52C30.29 16.52 30.66 15.31 31.45 16.41C32.24 17.52 32.2 24.35 31.72 25.55C30.95 27.45 28.63 29.8 22.08 34.47L19.63 33.26Z" fill="#91786D"/>
<path d="M21.3 34.08C21.3 34.08 31.69 28.61 30.96 25.5C30.96 25.5 28.48 21.52 18.14 15.47C17.95 15.36 17.45 14.81 18.32 15.26C24.27 18.32 31.31 24.88 31.31 24.88C31.31 24.88 32.23 24.35 31.17 16.52C31.17 16.52 31.08 15.57 31.52 16.58C32.05 17.8 32.37 24.3 31.67 25.88C30.43 28.67 29.13 29.59 22.35 34.6L21.3 34.08Z" fill="#B5AA8B"/>
</g>
<defs>
<clipPath id="clip0_63_2">
<rect width="59.85" height="47.98" fill="white"/>
</clipPath>
</defs>
</svg>
