<svg width="70" height="108" viewBox="0 0 70 108" fill="none" xmlns="http://www.w3.org/2000/svg">
<path d="M45.1 12.2501C45.1 12.2501 45.06 15.7501 45.51 16.3701C45.96 16.9901 38.46 18.7601 37.97 17.0401C37.97 17.0401 39.45 14.4501 38.93 13.4801C38.41 12.5101 45.1 12.2501 45.1 12.2501Z" fill="#9C9184"/>
<path d="M34.73 7.14004C34.67 7.49004 35.1801 13.91 39.6001 14.22C44.0201 14.53 45.76 12.37 45.76 12.37C45.76 12.37 48.1701 8.28004 47.1001 5.11004C46.0301 1.95004 35.62 2.00004 34.73 7.14004Z" fill="#C9BBAA"/>
<path d="M35.1101 9.61004C35.1101 9.61004 36.5901 11.9 45.6001 9.52004C45.6001 9.52004 47.6801 5.17004 47.1901 4.73004C46.7001 4.29004 35.8001 4.73004 35.8001 4.73004C35.8001 4.73004 33.9701 5.41004 35.1101 9.61004Z" fill="#A89D8E"/>
<path d="M44.11 7.66003C44.11 7.66003 45.41 11.57 42.04 14.13C42.04 14.13 47.45 14.4 47.41 6.04003C47.37 5.12003 43.53 6.30003 43.53 6.30003L44.11 7.66003Z" fill="#A89D8E"/>
<path d="M32.58 54.28C32.58 54.28 33.05 58.61 34.09 60.1C34.09 60.1 33.89 67.25 35.62 70.57C35.62 70.57 34.3 79.19 37.19 83.07H44.21C44.21 83.07 46.41 75.45 45.48 70.57C45.48 70.57 47.27 67.33 47.19 60.69C47.11 54.05 47.77 49.95 47.77 49.95L31.5 50.32L32.58 54.28Z" fill="#4F4633"/>
<path d="M39.95 53.19C39.95 53.19 40.88 58.35 42.46 60.24C43.51 61.5 44.47 73.97 48.54 77.09C48.54 77.09 47.08 83.33 49.92 88.35L50.89 92L58.26 91.59C58.26 91.59 61.34 83 57.69 75.47C57.69 75.47 60.61 60.78 59.31 53.92C58.99 52.22 39.95 53.19 39.95 53.19Z" fill="#5E533D"/>
<path d="M49.1901 87.58C48.7101 87.49 48.93 95.6 49.15 96.29C49.15 96.29 42.71 99.29 42.78 102.64C42.84 105.36 45.4 107.68 49.54 106.87C53.68 106.06 59.59 100.58 59.92 99.2401C60.25 97.8901 60.18 86.92 60.18 86.92C60.18 86.92 56.0301 88.84 49.1901 87.58Z" fill="#302E29"/>
<path d="M49.1901 87.5801L49.4201 87.3801L49.5401 87.6401L49.1901 87.5801Z" fill="#302E29"/>
<path d="M60.16 86.9301L59.3201 86.4901L59.23 87.2601C59.47 87.2901 60.16 86.9301 60.16 86.9301Z" fill="#302E29"/>
<path d="M49.14 96.29C49.14 96.29 54.24 98.27 56.19 96.79C56.19 96.79 51.91 97.37 49.14 95.91V96.29Z" fill="#24221E"/>
<path d="M42.77 102.64C42.77 102.64 42.93 104.7 44.1 105.65C45.19 106.54 46.9 107.9 51.47 106.23C56.04 104.56 59.84 99.65 59.91 99.24C59.97 98.83 60.03 98.03 60.03 98.03C60.03 98.03 56.42 103.56 51.4 105.32C47.14 106.82 45.11 106.37 43.49 104.23C43.17 103.81 43.07 103.24 42.77 102.64Z" fill="#24221E"/>
<path d="M36.26 81.8C35.86 81.73 36.04 87.84 36.22 88.36C36.22 88.36 30.95 90.62 31.01 93.14C31.06 95.19 33.15 96.94 36.54 96.33C39.93 95.72 44.77 91.59 45.04 90.58C45.31 89.57 45.25 81.3 45.25 81.3C45.25 81.3 41.86 82.75 36.26 81.8Z" fill="#302E29"/>
<path d="M36.26 81.8L36.45 81.65L36.55 81.85" fill="#302E29"/>
<path d="M44.35 84.01L43.68 83.65L43.6 84.28" fill="#302E29"/>
<path d="M41.99 88.7401C41.99 88.7401 38.48 89.1701 36.22 88.0801L41.99 88.7401Z" fill="#24221E"/>
<path d="M31.01 93.15C31.01 93.15 31.14 94.7001 32.1 95.4201C32.99 96.0901 34.39 97.1101 38.13 95.8601C41.87 94.6101 44.98 90.9 45.03 90.59C45.08 90.28 45.13 89.6801 45.13 89.6801C45.13 89.6801 42.18 93.8401 38.07 95.1701C34.58 96.3001 32.92 95.9601 31.6 94.3501C31.33 94.0301 31.25 93.6 31.01 93.15Z" fill="#24221E"/>
<path d="M22.5279 40.0543C22.8041 38.1523 21.2159 36.3473 18.9805 36.0227C16.7452 35.6981 14.7092 36.9769 14.433 38.8788C14.1568 40.7808 15.745 42.5858 17.9804 42.9104C20.2157 43.235 22.2517 41.9562 22.5279 40.0543Z" fill="#302E29"/>
<path d="M37.7501 19.26C36.7901 18.02 30.0801 15.98 28.9401 22.44C28.9401 22.44 29.0701 32.28 30.4001 33.83C30.4001 33.83 28.0601 32.46 18.8901 35.84C18.8901 35.84 18.0001 35.89 17.6301 36.07C17.6301 36.07 20.6301 40.19 18.0001 43.08C18.0001 43.08 18.6701 42.99 19.5501 43.1C23.7301 43.64 34.7401 44.77 40.4801 38.24C41.8501 36.69 40.4701 22.77 37.7501 19.26Z" fill="#595C49"/>
<path d="M17.6301 36.06L18.8901 35.83C18.8901 35.83 21.8801 39.78 19.5501 43.09L18.0001 43.08C18.0001 43.08 20.5001 40.57 17.6301 36.06Z" fill="#454739"/>
<path d="M34.86 28.92C34.86 28.92 35.9801 31.59 36.6001 29.89C37.2201 28.19 38.53 27.79 38.53 27.79C38.53 27.79 39.69 26.27 37.53 26.14C35.37 26.01 36.42 25.24 36.42 25.24C36.42 25.24 34.99 24.01 34.62 26.65C34.61 26.66 32.89 26.83 34.86 28.92Z" fill="#4F4F38"/>
<path d="M37.05 30.49C37.05 30.49 35.63 31.16 36.75 31.67C37.88 32.18 35.11 33.33 36.27 34.05C37.43 34.77 38.29 32.94 38.29 32.94C38.29 32.94 38.59 31.13 39.5 31.89C40.41 32.65 39.95 30.64 39.95 30.64C39.95 30.64 39.31 28.68 37.05 30.49Z" fill="#3C4537"/>
<path d="M37.25 34.65C37.25 34.65 35.11 37.77 37.38 36.92C38.34 36.34 38.46 37.77 38.46 37.77C38.46 37.77 40.3 38.26 39.72 36.26C39.14 34.26 38.35 35.69 38.35 35.69C38.35 35.69 38.04 30.19 37.25 34.65Z" fill="#4F4F38"/>
<path d="M40.63 34.95C40.17 33.36 38.62 30.57 38.32 34.22C38.32 34.22 36.56 36.24 38.83 35.57" fill="#7A7A5C"/>
<path d="M31.5 27.09C31.5 27.09 29.03 26.56 30.13 28.23C31.23 29.9 31.07 31.47 31.07 31.47C31.07 31.47 31.84 33.58 32.7 31.49C33.56 29.4 33.79 30.93 33.79 30.93C33.79 30.93 35.25 30.25 33.33 28.24C33.34 28.25 33.83 26.42 31.5 27.09Z" fill="#4F4F38"/>
<path d="M36.2001 35.11C36.2001 35.11 30.6501 36.21 32.1401 34.04C33.6201 31.87 34.0001 33.03 34.0001 33.03C34.0001 33.03 31.6901 28.03 33.5501 29.6C35.4101 31.16 37.7501 26.75 37.8001 29.07C37.8501 31.39 34.2801 31.75 35.5901 32.75C36.9201 33.75 36.2001 35.11 36.2001 35.11Z" fill="#495443"/>
<path d="M33.2901 23.05C33.2901 23.05 34.4101 25.72 35.0301 24.02C35.6501 22.32 36.9601 21.92 36.9601 21.92C36.9601 21.92 38.1201 20.4 35.9601 20.27C33.8001 20.14 34.8501 19.37 34.8501 19.37C34.8501 19.37 33.4201 18.14 33.0501 20.78C33.0501 20.79 31.3301 20.96 33.2901 23.05Z" fill="#4F4F38"/>
<path d="M21.98 39.24C21.98 39.24 23.2001 40.69 23.1101 39.37C23.0301 38.06 25.2601 40.89 25.3401 39.51C25.4201 38.13 23.4901 37.48 23.4901 37.48C23.4901 37.48 21.8201 37.44 22.0501 36.33C22.2801 35.21 20.79 36.04 20.79 36.04C20.79 36.04 19.42 37.07 21.98 39.24Z" fill="#3C4537"/>
<path d="M32.77 25.53C32.77 25.53 33.99 26.98 33.9 25.66C33.82 24.35 36.05 27.18 36.13 25.8C36.21 24.42 34.28 23.77 34.28 23.77C34.28 23.77 32.61 23.73 32.84 22.62C33.07 21.51 31.58 22.33 31.58 22.33C31.58 22.33 30.21 23.36 32.77 25.53Z" fill="#3C4537"/>
<path d="M31.2701 25.33C31.4801 25.88 29.6501 28.04 31.6401 27.64C33.6301 27.23 33.09 25.66 33.09 25.66C33.09 25.66 31.3201 24.12 31.9601 22.95C32.6001 21.78 30.4601 18.25 30.6101 20.93C30.7701 23.61 30.6001 22.93 30.1601 24.28C29.7301 25.62 31.0801 24.83 31.2701 25.33Z" fill="#7A7A5C"/>
<path d="M29.17 36.91C29.17 36.91 26.94 34.44 26.59 36.75C26.24 39.06 24.6 40.24 24.6 40.24C24.6 40.24 23.47 42.64 26.39 41.59C29.3 40.55 28.12 42.02 28.12 42.02C28.12 42.02 30.37 42.65 30.13 39.39C30.12 39.39 32.36 38.25 29.17 36.91Z" fill="#4F4F38"/>
<path d="M27.48 39.26C27.48 39.26 25.78 38.15 26.1 39.53C26.42 40.91 23.27 38.68 23.4 40.19C23.54 41.7 25.97 41.69 25.97 41.69C25.97 41.69 27.97 41.13 27.89 42.4C27.81 43.67 29.45 42.25 29.45 42.25C29.45 42.25 30.92 40.66 27.48 39.26Z" fill="#3C4537"/>
<path d="M27.47 37.97C26.88 38.12 24.67 36.42 25.02 38.15C25.37 39.89 27.05 39.51 27.05 39.51C27.05 39.51 28.74 38.08 29.95 38.7C31.16 39.32 34.96 37.68 32.13 37.66C29.3 37.64 30.02 37.53 28.62 37.08C27.21 36.63 28 37.84 27.47 37.97Z" fill="#7A7A5C"/>
<path d="M31.35 36.1C31.35 36.1 28.53 37.36 30.5 38.32C32.47 39.29 33.08 41.06 33.08 41.06C33.08 41.06 34.92 42.73 34.78 39.88C34.64 37.03 35.64 38.49 35.64 38.49C35.64 38.49 36.82 36.7 33.84 35.98C33.83 35.97 33.43 33.68 31.35 36.1Z" fill="#4F4F38"/>
<path d="M33.0001 38.25C33.0001 38.25 31.5401 39.43 32.8601 39.54C34.1801 39.65 31.3301 41.79 32.7101 42.1C34.0901 42.41 34.7601 40.27 34.7601 40.27C34.7601 40.27 34.8001 38.35 35.9301 38.79C37.0501 39.23 36.2301 37.38 36.2301 37.38C36.2301 37.38 35.1901 35.63 33.0001 38.25Z" fill="#3C4537"/>
<path d="M31.22 37.93C31.21 38.51 28.24 39.88 30.62 40.17C33 40.46 33.09 38.84 33.09 38.84C33.09 38.84 31.8 36.84 33.02 35.98C34.24 35.12 33.41 31.16 32.41 33.67C31.41 36.18 31.52 35.5 30.45 36.59C29.38 37.68 31.23 37.41 31.22 37.93Z" fill="#7A7A5C"/>
<path d="M39.8101 26.81C39.8101 26.81 37.8301 27.6 37.7301 25.66C37.6301 23.72 38.1801 24.81 38.1801 24.81C38.1801 24.81 35.5401 20.11 36.8501 21.63C38.1601 23.15 37.6801 19.17 38.4701 21.31C39.2601 23.45 37.8701 23.64 38.7601 24.62C39.6601 25.59 39.8101 26.81 39.8101 26.81Z" fill="#495443"/>
<path d="M21.58 40.18C21.58 40.18 19.4401 43.3 21.7101 42.45C22.6701 41.87 22.79 43.3 22.79 43.3C22.79 43.3 24.6301 43.79 24.0501 41.79C23.4701 39.79 22.68 41.22 22.68 41.22C22.68 41.22 22.38 35.71 21.58 40.18Z" fill="#4F4F38"/>
<path d="M25.5001 34.69C25.5001 34.69 21.7601 34.16 23.5201 35.81C24.4601 36.42 23.2301 37.15 23.2301 37.15C23.2301 37.15 23.6101 39.02 25.1401 37.61C26.6801 36.2 25.0401 36.13 25.0401 36.13C25.0401 36.13 29.8601 33.43 25.5001 34.69Z" fill="#4F4F38"/>
<path d="M37.34 37.69C37.34 37.69 33.6 37.16 35.36 38.81C36.3 39.42 35.07 40.15 35.07 40.15C35.07 40.15 35.45 42.02 36.98 40.61C38.52 39.2 36.88 39.13 36.88 39.13C36.88 39.13 41.7 36.43 37.34 37.69Z" fill="#4F4F38"/>
<path d="M27.84 37.32C27.84 37.32 22.31 38.48 24.02 37.39C25.74 36.3 25.96 36.74 25.96 36.74C25.96 36.74 24.35 34.96 25.96 35.37C27.57 35.78 30.41 33.66 30.16 34.61C29.91 35.56 26.39 36.17 27.55 36.42C28.71 36.67 27.84 37.32 27.84 37.32Z" fill="#495443"/>
<path d="M38.69 37.49C38.69 37.49 37.77 37.87 38.47 38.09C39.17 38.31 37.38 38.98 38.09 39.3C38.8 39.63 39.4 38.68 39.4 38.68C39.4 38.68 39.65 37.76 40.2 38.12C40.75 38.48 40.52 37.48 40.52 37.48C40.52 37.48 40.18 36.51 38.69 37.49Z" fill="#3C4537"/>
<path d="M38.43 27.85C38.43 27.85 37.51 28.23 38.21 28.45C38.91 28.67 37.12 29.34 37.83 29.66C38.54 29.99 39.14 29.04 39.14 29.04C39.14 29.04 39.39 28.12 39.94 28.48C40.49 28.84 40.26 27.84 40.26 27.84C40.26 27.84 39.91 26.87 38.43 27.85Z" fill="#3C4537"/>
<path d="M29.8201 20.97C29.8201 20.97 28.9 21.35 29.6 21.57C30.3 21.79 28.51 22.46 29.22 22.78C29.93 23.11 30.53 22.16 30.53 22.16C30.53 22.16 30.78 21.24 31.33 21.6C31.88 21.96 31.65 20.96 31.65 20.96C31.65 20.96 31.3101 19.99 29.8201 20.97Z" fill="#3C4537"/>
<path d="M38.49 15.93C38.49 15.93 40.69 18.84 44.41 15.6L52.91 17.57L52.18 56.76C52.18 56.76 32.9 57 31.2 55.38C29.5 53.76 31.94 18.2 31.94 18.2L38.49 15.93Z" fill="#394235"/>
<path d="M37.01 56.53L38.21 56.51V16.74C38.21 16.74 37.22 16.01 35.86 16.74C34.5 17.47 35.94 56.53 35.94 56.53H37.01Z" fill="#2C3329"/>
<path d="M42.54 20.71C42.54 20.71 40.27 54.74 42.54 57.57C44.81 60.41 62.79 57.57 62.79 57.57C62.79 57.57 65.63 32.94 56.07 18.12C54.56 15.79 48.66 14.77 45.99 16.37C43.31 17.96 42.54 20.71 42.54 20.71Z" fill="#5A5C4A"/>
<path d="M37.5201 19.89C37.5201 19.89 36.89 55.85 37.78 57.3C37.78 57.3 30.7201 58.13 28.8501 55.05C26.9801 51.97 27.5201 22.23 29.6601 18.27C31.4701 14.93 37.0301 15.36 37.5201 19.89Z" fill="#5A5C4A"/>
<path d="M38.4901 15.93C38.4901 15.93 40.5601 18.75 44.4101 15.6C44.4101 15.75 44.1901 16.86 44.1901 16.86C44.1901 16.86 40.8701 19.81 37.7801 16.86C37.4201 16.53 38.4901 15.93 38.4901 15.93Z" fill="#2C3329"/>
<path d="M42.54 20.71C42.54 20.71 52.1 18.36 52.59 16.86C53.08 15.36 54.55 12.05 46.01 11.74C46.01 11.74 45.06 12.97 44.42 13.37V15.6C44.41 15.6 42.78 18.44 42.54 20.71Z" fill="#454739"/>
<path d="M37.52 19.89C37.52 19.89 32.26 17.91 30.96 17.57C29.66 17.22 31.8 13.07 36.14 11.79C36.14 11.79 36.89 13.5 39.07 14.1C39.07 14.1 38.99 15.4 38.4 15.91C37.7 16.51 37.03 18.18 37.52 19.89Z" fill="#454739"/>
<path d="M42.6 20.26C42.6 20.26 50.35 17.89 50.8 15.76C51.23 13.69 48.89 12.81 44.88 13L44.41 13.37C44.41 13.37 44.26 15.04 44.41 15.6C44.41 15.6 43.52 16.57 42.6 20.26Z" fill="#7B8066"/>
<path d="M37.42 19.44C37.42 19.44 35.04 17.13 32.27 16.59C32.27 16.37 34.47 13.46 36.81 12.76C36.81 12.76 37.5 13.61 39.07 14.1C39.07 14.1 39.07 15.5 38.38 16.19C37.74 16.83 37.13 17.88 37.42 19.44Z" fill="#7B8066"/>
<path d="M37.4601 17.77C37.4601 17.77 37.5401 16.82 37.1901 16.16C36.6801 15.22 36.1701 14.36 37.5501 13.45C37.5501 13.45 38.6601 14.07 39.0701 14.1C39.0701 14.1 39.1001 14.78 38.8101 15.49C38.6501 15.89 38.3401 16.28 37.9901 16.76C37.5901 17.28 37.4601 17.77 37.4601 17.77Z" fill="#676B55"/>
<path d="M43.46 17.56C43.46 17.56 44.41 16.26 45.74 15.76C47.07 15.26 44.8 13.1 44.8 13.1L44.41 13.37C44.41 13.37 44.34 15.01 44.37 15.4L44.05 15.84C44.05 15.84 43.36 17.38 43.46 17.56Z" fill="#676B55"/>
<path d="M46.1501 31.73C46.1501 31.73 44.3201 32.14 45.4601 32.83C46.5901 33.52 43.0901 34.16 44.1901 35.05C45.3001 35.94 46.8301 34.32 46.8301 34.32C46.8301 34.32 47.7201 32.62 48.5301 33.51C49.3401 34.4 49.4201 32.38 49.4201 32.38C49.4201 32.38 49.2801 30.35 46.1501 31.73Z" fill="#3C4537"/>
<path d="M58.25 51.02C58.25 51.02 57.34 49.38 57 50.66C56.66 51.94 55.05 48.76 54.51 50.07C53.97 51.38 55.96 52.4 55.96 52.4C55.96 52.4 57.84 52.77 57.22 53.8C56.59 54.83 58.56 54.33 58.56 54.33C58.56 54.33 60.46 53.63 58.25 51.02Z" fill="#3C4537"/>
<path d="M33.3 47.6C33.3 47.6 31.62 46.76 32.07 48.01C32.52 49.26 29.39 47.54 29.68 48.93C29.97 50.32 32.19 50.04 32.19 50.04C32.19 50.04 33.96 49.28 34.02 50.49C34.08 51.7 35.43 50.17 35.43 50.17C35.43 50.17 36.59 48.51 33.3 47.6Z" fill="#3C4537"/>
<path d="M33.4701 23.98C33.4701 23.98 31.3801 24.47 32.6801 25.29C33.9801 26.11 29.9701 26.88 31.2301 27.94C32.4901 29 34.2501 27.07 34.2501 27.07C34.2501 27.07 35.2701 25.04 36.2001 26.1C37.1301 27.16 37.2201 24.75 37.2201 24.75C37.2201 24.75 37.0401 22.34 33.4701 23.98Z" fill="#3C4537"/>
<path d="M47.5901 29.76C47.5901 29.76 46.2201 28.48 46.2901 29.8C46.3601 31.12 43.8501 28.59 43.7401 30C43.6301 31.42 45.8301 31.78 45.8301 31.78C45.8301 31.78 47.7401 31.56 47.4601 32.73C47.1801 33.9 48.9001 32.83 48.9001 32.83C48.9001 32.83 50.4901 31.57 47.5901 29.76Z" fill="#3C4537"/>
<path d="M60.86 45.23C60.86 45.23 61.02 43.36 60.02 44.24C59.02 45.11 59.47 41.58 58.28 42.36C57.1 43.14 58.17 45.1 58.17 45.1C58.17 45.1 59.52 46.46 58.43 46.97C57.34 47.47 59.24 48.16 59.24 48.16C59.24 48.16 61.22 48.62 60.86 45.23Z" fill="#3C4537"/>
<path d="M29.6601 42.24C29.6601 42.24 30.1401 45.03 31.3601 43.48C32.5801 41.94 34.2001 41.77 34.2001 41.77C34.2001 41.77 35.9801 40.5 33.5501 40C31.1201 39.5 32.5501 38.94 32.5501 38.94C32.5501 38.94 31.2801 37.5 30.0701 40C30.0601 40 28.0501 39.87 29.6601 42.24Z" fill="#454531"/>
<path d="M45.4401 29.78C45.4401 29.78 45.9201 32.57 47.1401 31.02C48.3601 29.48 49.9801 29.31 49.9801 29.31C49.9801 29.31 51.7601 28.04 49.3301 27.54C46.9001 27.04 48.3301 26.48 48.3301 26.48C48.3301 26.48 47.0601 25.04 45.8501 27.54C45.8401 27.54 43.8201 27.41 45.4401 29.78Z" fill="#454531"/>
<path d="M45.6601 48.24C45.6601 48.24 43.0501 49.89 45.1301 50.56C47.2201 51.23 48.0801 52.9 48.0801 52.9C48.0801 52.9 50.14 54.29 49.59 51.49C49.05 48.68 50.2401 49.99 50.2401 49.99C50.2401 49.99 51.15 48.05 48.09 47.76C48.09 47.76 47.3601 45.55 45.6601 48.24Z" fill="#454531"/>
<path d="M57.0501 50.96C57.0501 50.96 57.5301 53.75 58.7501 52.2C59.9701 50.66 61.5901 50.49 61.5901 50.49C61.5901 50.49 63.3701 49.22 60.9401 48.72C58.5101 48.22 59.9401 47.66 59.9401 47.66C59.9401 47.66 58.6701 46.22 57.4601 48.72C57.4501 48.72 55.4301 48.58 57.0501 50.96Z" fill="#454531"/>
<path d="M51.4801 66.2301C51.4801 66.2301 51.9601 69.02 53.1801 67.47C54.4001 65.93 56.0201 65.76 56.0201 65.76C56.0201 65.76 57.8001 64.49 55.3701 63.99C52.9401 63.49 54.3701 62.93 54.3701 62.93C54.3701 62.93 53.1001 61.49 51.8901 63.99C51.8801 63.99 49.8601 63.8601 51.4801 66.2301Z" fill="#454531"/>
<path d="M53.59 68.42C53.59 68.42 51.76 68.83 52.9 69.52C54.04 70.21 50.5301 70.85 51.6301 71.74C52.7401 72.63 54.2701 71.01 54.2701 71.01C54.2701 71.01 55.1601 69.31 55.9701 70.2C56.7801 71.09 56.8601 69.07 56.8601 69.07C56.8601 69.07 56.72 67.04 53.59 68.42Z" fill="#3C4537"/>
<path d="M40.85 61.14C40.85 61.14 39.97 60.04 39.22 60.99C38.47 61.94 36.98 59.8 35.94 60.79C34.9 61.78 37.39 62.34 37.39 62.34C37.39 62.34 39.88 62.44 38.79 63.24C37.7 64.03 40.5 63.51 40.5 63.51C40.5 63.51 43.27 62.82 40.85 61.14Z" fill="#3C4537"/>
<path d="M37.8501 77.67C37.8501 77.67 38.2101 80.24 39.1101 78.81C40.0101 77.39 41.2101 77.24 41.2101 77.24C41.2101 77.24 42.53 76.07 40.73 75.61C38.93 75.15 39.9901 74.63 39.9901 74.63C39.9901 74.63 39.05 73.31 38.15 75.61C38.14 75.61 36.6501 75.49 37.8501 77.67Z" fill="#40402D"/>
<path d="M33.47 45.2C33.47 45.2 35 48.07 35.13 45.2C35.13 45.2 37.03 43.06 35.13 42.9C33.22 42.74 29.62 43.29 33.47 45.2Z" fill="#7A7A5C"/>
<path d="M51.1101 33.31C49.2101 33.15 45.6101 33.7 49.4501 35.61C49.4501 35.61 50.9801 38.48 51.1101 35.61" fill="#7A7A5C"/>
<path d="M32.5501 24.06C30.6501 23.9 27.0501 24.45 30.8901 26.36C30.8901 26.36 32.4201 29.23 32.5501 26.36" fill="#7A7A5C"/>
<path d="M55.0101 54.57C55.0101 52.65 53.7001 49.19 51.2601 53.39C51.2601 53.39 47.0601 55.48 51.4701 55.03" fill="#7A7A5C"/>
<path d="M44.82 54.42C44.82 54.42 42.09 57.55 44.82 56.66C45.99 56.07 46.03 57.47 46.03 57.47C46.03 57.47 48.17 57.91 47.62 55.95C47.07 53.99 46.03 55.43 46.03 55.43C46.03 55.43 46.06 50 44.82 54.42Z" fill="#454530"/>
<path d="M34.72 30.59C34.72 30.59 32.33 27.2 32.55 30.06C32.85 31.34 31.48 31.05 31.48 31.05C31.48 31.05 30.55 33.02 32.59 32.95C34.62 32.88 33.47 31.53 33.47 31.53C33.47 31.53 38.73 32.84 34.72 30.59Z" fill="#454530"/>
<path d="M51.39 72.2C51.39 72.2 48.66 75.33 51.39 74.44C52.56 73.85 52.6 75.25 52.6 75.25C52.6 75.25 54.74 75.69 54.19 73.73C53.64 71.77 52.6 73.21 52.6 73.21C52.6 73.21 52.63 67.78 51.39 72.2Z" fill="#454530"/>
<path d="M39.4801 64.15C39.4801 64.15 36.6901 67.03 39.4801 66.21C40.6801 65.66 40.7201 66.96 40.7201 66.96C40.7201 66.96 42.9001 67.36 42.3401 65.56C41.7801 63.76 40.7201 65.08 40.7201 65.08C40.7201 65.08 40.7401 60.07 39.4801 64.15Z" fill="#40402D"/>
<path d="M56.7701 73.21C56.7201 71.58 55.7801 68.61 54.3501 72.1C54.3501 72.1 51.7301 73.76 54.5301 73.5" fill="#7A7A5C"/>
<path d="M39.4201 64.66C39.4001 63.21 38.39 60.58 36.65 63.72C36.65 63.72 33.5901 65.25 36.8301 64.96" fill="#595943"/>
<path d="M54.3501 83.48C54.3501 83.48 53.4401 81.84 53.1001 83.12C52.7601 84.4 51.1501 81.22 50.6101 82.53C50.0701 83.84 52.0601 84.86 52.0601 84.86C52.0601 84.86 53.9401 85.23 53.3201 86.26C52.6901 87.29 54.6601 86.79 54.6601 86.79C54.6601 86.79 56.5601 86.09 54.3501 83.48Z" fill="#3C4537"/>
<path d="M56.9601 77.68C56.9601 77.68 57.1201 75.81 56.1201 76.69C55.1201 77.56 55.5701 74.03 54.3801 74.81C53.2001 75.59 54.2701 77.55 54.2701 77.55C54.2701 77.55 55.6201 78.91 54.5301 79.42C53.4401 79.92 55.3401 80.61 55.3401 80.61C55.3401 80.61 57.3301 81.08 56.9601 77.68Z" fill="#3C4537"/>
<path d="M53.1501 83.41C53.1501 83.41 53.6301 86.2 54.8501 84.65C56.0701 83.1 57.6901 82.94 57.6901 82.94C57.6901 82.94 59.4701 81.67 57.0401 81.17C54.6101 80.67 56.0401 80.11 56.0401 80.11C56.0401 80.11 54.7701 78.67 53.5601 81.17C53.5501 81.18 51.5401 81.04 53.1501 83.41Z" fill="#454531"/>
<path d="M39.0101 69.19C39.0101 69.19 40.7401 69.93 40.2601 68.79C39.7801 67.65 43.0001 69.16 42.6701 67.89C42.3401 66.62 40.0901 66.92 40.0901 66.92C40.0901 66.92 38.3101 67.65 38.2101 66.55C38.1101 65.45 36.7801 66.87 36.7801 66.87C36.7801 66.87 35.6301 68.42 39.0101 69.19Z" fill="#3C4537"/>
<path d="M40.29 74.92C40.29 74.92 41.27 76.4 41.57 75.22C41.88 74.03 43.61 76.92 44.13 75.7C44.65 74.48 42.59 73.59 42.59 73.59C42.59 73.59 40.66 73.29 41.27 72.33C41.88 71.37 39.89 71.87 39.89 71.87C39.89 71.87 37.97 72.58 40.29 74.92Z" fill="#3C4537"/>
<path d="M40.04 68.59C40.04 68.59 37.99 66.76 37.9 68.57C37.81 70.38 36.56 71.37 36.56 71.37C36.56 71.37 35.84 73.28 38.15 72.35C40.46 71.42 39.61 72.61 39.61 72.61C39.61 72.61 41.52 73 41.04 70.48C41.04 70.48 42.79 69.5 40.04 68.59Z" fill="#40402D"/>
<path d="M33.0301 36.56C33.0301 36.56 32.1201 34.92 31.7801 36.2C31.4401 37.48 29.8301 34.3 29.2901 35.61C28.7501 36.92 30.7401 37.94 30.7401 37.94C30.7401 37.94 32.6201 38.31 32.0001 39.34C31.3701 40.37 33.3401 39.87 33.3401 39.87C33.3401 39.87 35.2301 39.16 33.0301 36.56Z" fill="#3C4537"/>
<path d="M35.6301 30.76C35.6301 30.76 35.79 28.89 34.79 29.77C33.79 30.64 34.24 27.11 33.05 27.89C31.87 28.67 32.94 30.63 32.94 30.63C32.94 30.63 34.29 31.99 33.2 32.5C32.11 33 34.01 33.69 34.01 33.69C34.01 33.69 36.0001 34.15 35.6301 30.76Z" fill="#3C4537"/>
<path d="M31.83 36.49C31.83 36.49 32.31 39.28 33.53 37.73C34.75 36.19 36.37 36.02 36.37 36.02C36.37 36.02 38.15 34.75 35.72 34.25C33.29 33.75 34.72 33.19 34.72 33.19C34.72 33.19 33.45 31.75 32.24 34.25C32.23 34.25 30.21 34.12 31.83 36.49Z" fill="#454531"/>
<path d="M53.2 47.15C53.2 47.15 52.92 49 53.97 48.2C55.02 47.39 54.35 50.89 55.58 50.19C56.81 49.48 55.86 47.46 55.86 47.46C55.86 47.46 54.6 46.01 55.72 45.58C56.84 45.15 55 44.33 55 44.33C55 44.33 53.06 43.74 53.2 47.15Z" fill="#3C4537"/>
<path d="M47.5901 50.13C47.5901 50.13 46.3201 51.51 47.6401 51.43C48.9601 51.35 46.4401 53.87 47.8601 53.98C49.2801 54.09 49.6201 51.88 49.6201 51.88C49.6201 51.88 49.3901 49.97 50.5601 50.25C51.7301 50.52 50.6501 48.81 50.6501 48.81C50.6501 48.81 49.3801 47.23 47.5901 50.13Z" fill="#3C4537"/>
<path d="M54.1101 47.94C54.1101 47.94 55.43 45.44 53.53 45.92C51.63 46.4 50.2401 45.53 50.2401 45.53C50.2401 45.53 48.05 45.45 49.67 47.33C51.29 49.21 49.81 48.78 49.81 48.78C49.81 48.78 49.93 50.69 52.43 49.46C52.42 49.46 53.9401 50.8 54.1101 47.94Z" fill="#454531"/>
<path d="M32.9201 52.46C32.9201 52.46 32.0101 50.82 31.6701 52.1C31.3301 53.38 29.7201 50.2 29.1801 51.51C28.6401 52.82 30.6301 53.84 30.6301 53.84C30.6301 53.84 32.5101 54.21 31.8901 55.24C31.2601 56.27 33.2301 55.77 33.2301 55.77C33.2301 55.77 35.1201 55.06 32.9201 52.46Z" fill="#3C4537"/>
<path d="M35.5301 46.66C35.5301 46.66 35.6901 44.79 34.6901 45.67C33.6901 46.55 34.1401 43.01 32.9501 43.79C31.7701 44.57 32.8401 46.53 32.8401 46.53C32.8401 46.53 34.1901 47.89 33.1001 48.4C32.0101 48.9 33.9101 49.59 33.9101 49.59C33.9101 49.59 35.8901 50.06 35.5301 46.66Z" fill="#3C4537"/>
<path d="M31.72 52.39C31.72 52.39 32.2 55.18 33.42 53.63C34.64 52.08 36.26 51.92 36.26 51.92C36.26 51.92 38.04 50.65 35.61 50.15C33.18 49.65 34.61 49.09 34.61 49.09C34.61 49.09 33.3401 47.65 32.1301 50.15C32.1201 50.15 30.1 50.02 31.72 52.39Z" fill="#454531"/>
<path d="M47.5501 64.89C47.5501 64.89 49.4201 64.89 48.4701 63.97C47.5201 63.05 51.0801 63.19 50.2001 62.08C49.3201 60.97 47.4601 62.21 47.4601 62.21C47.4601 62.21 46.2101 63.67 45.6201 62.62C45.0301 61.57 44.5001 63.53 44.5001 63.53C44.5001 63.53 44.1901 65.54 47.5501 64.89Z" fill="#3C4537"/>
<path d="M51.3301 70C51.3301 70 52.8801 71.0501 52.6101 69.7601C52.3301 68.4601 55.2101 70.5801 55.1001 69.1601C54.9901 67.7401 52.76 67.7301 52.76 67.7301C52.76 67.7301 50.91 68.2401 51.01 67.0401C51.11 65.8401 49.5701 67.17 49.5701 67.17C49.5701 67.17 48.1901 68.66 51.3301 70Z" fill="#3C4537"/>
<path d="M48.1901 63.88C48.1901 63.88 45.5201 62.94 46.2801 64.76C47.0301 66.57 46.3901 68.07 46.3901 68.07C46.3901 68.07 46.6301 70.25 48.2501 68.37C49.8701 66.49 49.6701 68.02 49.6701 68.02C49.6701 68.02 51.5401 67.61 49.9501 65.33C49.9501 65.32 51.0501 63.62 48.1901 63.88Z" fill="#454531"/>
<path d="M55 57.03C55 57.03 46.37 57.14 49.41 55.36C52.45 53.58 52.55 54.73 52.55 54.73C52.55 54.73 51.09 49.68 53.22 51.45C55.35 53.22 60.53 49.48 59.71 51.65C58.88 53.82 53.47 53.57 55.02 54.73C56.58 55.88 55 57.03 55 57.03Z" fill="#495443"/>
<path d="M28.28 30.64C28.28 30.64 34.82 25.01 33.64 28.33C32.46 31.65 31.64 30.83 31.64 30.83C31.64 30.83 36.01 33.76 33.23 33.78C30.46 33.8 28.8901 39.98 28.1301 37.79C27.3701 35.6 31.68 32.31 29.75 32.42C27.82 32.53 28.28 30.64 28.28 30.64Z" fill="#495443"/>
<path d="M44.54 24.15C44.54 24.15 49.2 16.89 49.0201 20.41C48.8401 23.93 47.81 23.38 47.81 23.38C47.81 23.38 52.83 24.95 50.18 25.75C47.53 26.56 47.79 32.93 46.43 31.05C45.07 29.16 48.27 24.78 46.45 25.44C44.62 26.1 44.54 24.15 44.54 24.15Z" fill="#495443"/>
<path d="M51.16 72.47C51.16 72.47 44.48 72.59 46.83 70.73C49.18 68.88 49.26 70.07 49.26 70.07C49.26 70.07 48.13 64.82 49.78 66.66C51.43 68.5 55.44 64.62 54.8 66.87C54.16 69.13 49.97 68.87 51.17 70.07C52.38 71.28 51.16 72.47 51.16 72.47Z" fill="#495443"/>
<path d="M48.4201 41.31C48.4201 41.31 39.7901 41.42 42.8301 39.64C45.8701 37.86 45.9701 39.01 45.9701 39.01C45.9701 39.01 44.5101 33.96 46.6401 35.73C48.7801 37.5 53.9501 33.76 53.1301 35.93C52.3001 38.1 46.8901 37.85 48.4401 39.01C50.0001 40.16 48.4201 41.31 48.4201 41.31Z" fill="#495443"/>
<path d="M31.23 47.72C31.23 47.72 26.9201 47.83 28.4401 46.05C29.9601 44.27 30.01 45.42 30.01 45.42C30.01 45.42 29.2801 40.37 30.3501 42.14C31.4201 43.91 34.01 40.17 33.59 42.34C33.18 44.51 30.4701 44.26 31.2501 45.42C32.0201 46.57 31.23 47.72 31.23 47.72Z" fill="#495443"/>
<path d="M30.4801 21.88C30.4801 21.88 30.9601 24.67 32.1801 23.12C33.4001 21.58 35.0201 21.41 35.0201 21.41C35.0201 21.41 36.8001 20.14 34.3701 19.64C31.9401 19.14 33.3701 18.58 33.3701 18.58C33.3701 18.58 32.1001 17.14 30.8901 19.64C30.8801 19.64 28.8601 19.51 30.4801 21.88Z" fill="#454531"/>
<path d="M51.5701 20.89C51.5701 20.89 52.0501 23.68 53.2701 22.13C54.4901 20.59 56.1101 20.42 56.1101 20.42C56.1101 20.42 57.8901 19.15 55.4601 18.65C53.0301 18.15 54.4601 17.59 54.4601 17.59C54.4601 17.59 53.1901 16.15 51.9801 18.65C51.9701 18.66 49.9501 18.52 51.5701 20.89Z" fill="#454531"/>
<path d="M42.77 49.58C42.77 49.58 43.25 52.37 44.47 50.82C45.69 49.28 47.31 49.11 47.31 49.11C47.31 49.11 49.09 47.84 46.66 47.34C44.23 46.84 45.66 46.28 45.66 46.28C45.66 46.28 44.39 44.84 43.18 47.34C43.18 47.34 41.16 47.21 42.77 49.58Z" fill="#454531"/>
<path d="M57.9 55.9801C57.9 55.9801 58.3801 58.77 59.6001 57.22C60.8201 55.68 62.44 55.51 62.44 55.51C62.44 55.51 64.22 54.24 61.79 53.74C59.36 53.24 60.79 52.68 60.79 52.68C60.79 52.68 59.52 51.24 58.31 53.74C58.3 53.74 56.28 53.6101 57.9 55.9801Z" fill="#454531"/>
<path d="M57.5301 43.24C57.5301 43.24 58.0101 46.03 59.2301 44.48C60.4501 42.94 62.0701 42.77 62.0701 42.77C62.0701 42.77 63.8501 41.5 61.4201 41C58.9901 40.5 60.4201 39.94 60.4201 39.94C60.4201 39.94 59.1501 38.5 57.9401 41C57.9301 41 55.9201 40.87 57.5301 43.24Z" fill="#454531"/>
<path d="M42.72 37.56C42.72 37.56 43.2 40.35 44.42 38.8C45.64 37.26 47.26 37.09 47.26 37.09C47.26 37.09 49.04 35.82 46.61 35.32C44.18 34.82 45.61 34.26 45.61 34.26C45.61 34.26 44.3401 32.82 43.1301 35.32C43.1201 35.32 41.1 35.19 42.72 37.56Z" fill="#454531"/>
<path d="M42.72 27.46C42.72 27.46 43.2 30.25 44.42 28.7C45.64 27.15 47.26 26.99 47.26 26.99C47.26 26.99 49.04 25.72 46.61 25.22C44.18 24.72 45.61 24.16 45.61 24.16C45.61 24.16 44.3401 22.72 43.1301 25.22C43.1201 25.23 41.1 25.09 42.72 27.46Z" fill="#454531"/>
<path d="M30.39 27.64C30.39 27.64 30.84 30.43 31.98 28.88C33.12 27.34 34.63 27.17 34.63 27.17C34.63 27.17 36.3 25.9 34.02 25.4C31.75 24.9 33.09 24.34 33.09 24.34C33.09 24.34 31.9 22.9 30.77 25.4C30.76 25.41 28.87 25.27 30.39 27.64Z" fill="#454531"/>
<path d="M53.1501 62.43C53.1501 62.43 53.6301 65.22 54.8501 63.67C56.0701 62.12 57.6901 61.96 57.6901 61.96C57.6901 61.96 59.4701 60.69 57.0401 60.19C54.6101 59.69 56.0401 59.13 56.0401 59.13C56.0401 59.13 54.7701 57.69 53.5601 60.19C53.5501 60.2 51.5401 60.06 53.1501 62.43Z" fill="#454531"/>
<path d="M49.5501 79.76C49.5501 79.76 50.0301 82.55 51.2501 81C52.4701 79.46 54.0901 79.29 54.0901 79.29C54.0901 79.29 55.8701 78.02 53.4401 77.52C51.0101 77.02 52.4401 76.46 52.4401 76.46C52.4401 76.46 51.1701 75.02 49.9601 77.52C49.9501 77.52 47.9301 77.38 49.5501 79.76Z" fill="#454531"/>
<path d="M39.57 80.16C39.57 80.16 40.06 82.73 41.3 81.3C42.54 79.88 44.19 79.73 44.19 79.73C44.19 79.73 46.01 78.56 43.53 78.1C41.05 77.64 42.51 77.12 42.51 77.12C42.51 77.12 41.22 75.8 39.98 78.1C39.97 78.1 37.92 77.98 39.57 80.16Z" fill="#40402D"/>
<path d="M36.4601 60.65C36.4601 60.65 36.9501 63.22 38.1901 61.79C39.4301 60.37 41.0801 60.22 41.0801 60.22C41.0801 60.22 42.9 59.05 40.42 58.59C37.94 58.13 39.4 57.61 39.4 57.61C39.4 57.61 38.11 56.29 36.87 58.59C36.87 58.59 34.8101 58.46 36.4601 60.65Z" fill="#40402D"/>
<path d="M41.9201 65.85C41.9201 65.85 43.3001 68.1 43.0901 66.62C42.8701 65.14 43.4001 64.75 43.4001 64.75C43.4001 64.75 43.5101 63.41 42.3901 63.37C41.2701 63.34 41.5601 62.64 41.5601 62.64C41.5601 62.64 40.4701 61.64 41.1001 63.92C41.1001 63.92 40.2901 64.13 41.9201 65.85Z" fill="#454531"/>
<path d="M43.43 73.41C43.43 73.41 44.43 74.93 44.43 73.85C44.42 72.78 44.98 72.43 44.98 72.43C44.98 72.43 45.2601 71.42 44.2101 71.52C43.1601 71.62 43.5201 71.07 43.5201 71.07C43.5201 71.07 42.6201 70.45 42.9101 72.07C42.9101 72.07 42.13 72.31 43.43 73.41Z" fill="#454531"/>
<path d="M35.56 60.58C35.56 60.58 36.54 62.06 36.84 60.88C37.15 59.69 38.88 62.58 39.4 61.36C39.92 60.14 37.8601 59.25 37.8601 59.25C37.8601 59.25 35.93 58.95 36.54 57.99C37.15 57.03 35.1601 57.53 35.1601 57.53C35.1601 57.53 33.24 58.24 35.56 60.58Z" fill="#3C4537"/>
<path d="M37.3801 80.02C37.3801 80.02 38.3601 81.5 38.6601 80.32C38.9701 79.13 40.7001 82.02 41.2201 80.8C41.7401 79.58 39.68 78.69 39.68 78.69C39.68 78.69 37.7501 78.39 38.3601 77.43C38.9701 76.47 36.9801 76.97 36.9801 76.97C36.9801 76.97 35.0601 77.67 37.3801 80.02Z" fill="#3C4537"/>
<path d="M45.17 62.57C45.17 62.57 46.13 64.18 46.43 62.89C46.73 61.6 48.43 64.7301 48.94 63.4101C49.45 62.0801 47.43 61.1201 47.43 61.1201C47.43 61.1201 45.54 60.8 46.13 59.75C46.73 58.7 44.78 59.25 44.78 59.25C44.78 59.25 42.9 60.03 45.17 62.57Z" fill="#3C4537"/>
<path d="M50.11 62.57C50.11 62.57 51.07 64.18 51.37 62.89C51.67 61.6 53.37 64.7301 53.88 63.4101C54.39 62.0801 52.37 61.1201 52.37 61.1201C52.37 61.1201 50.48 60.8 51.07 59.75C51.67 58.7 49.72 59.25 49.72 59.25C49.72 59.25 47.83 60.03 50.11 62.57Z" fill="#3C4537"/>
<path d="M53.0601 87.47C53.0601 87.47 54.9301 87.59 54.0301 86.61C53.1301 85.64 56.6801 85.99 55.8701 84.83C55.0601 83.67 53.1301 84.79 53.1301 84.79C53.1301 84.79 51.8001 86.17 51.2701 85.09C50.7401 84.01 50.1001 85.93 50.1001 85.93C50.1001 85.93 49.6701 87.92 53.0601 87.47Z" fill="#3C4537"/>
<path d="M58.4801 85.31C58.4801 85.31 59.4601 83.99 58.3501 84.25C57.2401 84.52 59.2001 82.06 58.0001 82.19C56.8001 82.32 56.6501 84.18 56.6501 84.18C56.6501 84.18 56.9701 85.71 55.9701 85.66C54.9701 85.61 55.9901 86.86 55.9901 86.86C55.9901 86.86 57.1701 87.97 58.4801 85.31Z" fill="#3C4537"/>
<path d="M42.84 69.7C42.84 69.7 43.21 71.36 43.46 70.29C43.71 69.22 44.35 72.41 44.71 71.37C45.07 70.32 44.11 68.97 44.11 68.97C44.11 68.97 43.16 68.22 43.55 67.44C43.94 66.66 42.89 66.67 42.89 66.67C42.89 66.67 41.87 66.88 42.84 69.7Z" fill="#3C4537"/>
<path d="M57.0701 51.77C57.2001 52.34 52.1701 54.13 56.5701 54.07C60.9701 54.02 60.7001 52.4 60.7001 52.4C60.7001 52.4 57.8301 50.6 59.8301 49.58C61.8201 48.55 59.2701 44.75 58.1201 47.38C56.9701 50.01 56.9901 49.32 55.3301 50.55C53.6701 51.8 56.9501 51.26 57.0701 51.77Z" fill="#7A7A5C"/>
<path d="M31.2001 36.83C30.6501 37.05 28.1301 32.34 28.8501 36.69C29.5701 41.03 31.1301 40.52 31.1301 40.52C31.1301 40.52 32.4701 37.41 33.7901 39.23C35.1101 41.05 38.4801 37.94 35.7001 37.2C32.9301 36.46 33.6101 36.37 32.1401 34.92C30.6701 33.47 31.7001 36.63 31.2001 36.83Z" fill="#7A7A5C"/>
<path d="M49.1401 64.01C49.2101 64.58 46.4701 66.37 48.8701 66.31C51.2701 66.26 51.1201 64.64 51.1201 64.64C51.1201 64.64 49.5601 62.84 50.6401 61.82C51.7201 60.8 50.3301 56.99 49.7101 59.62C49.0801 62.25 49.0901 61.56 48.1901 62.79C47.2801 64.04 49.0701 63.5 49.1401 64.01Z" fill="#7A7A5C"/>
<path d="M40.1201 74.53C40.2401 74.84 35.5201 75.81 39.6501 75.78C43.7801 75.75 43.5301 74.88 43.5301 74.88C43.5301 74.88 40.8401 73.91 42.7101 73.35C44.5801 72.79 42.1801 70.74 41.1001 72.16C40.0201 73.58 40.0401 73.21 38.4901 73.88C36.9401 74.55 40.0101 74.25 40.1201 74.53Z" fill="#595943"/>
<path d="M45.7801 50.07C45.8501 50.64 43.1101 52.43 45.5101 52.37C47.9101 52.32 47.7601 50.7 47.7601 50.7C47.7601 50.7 46.2001 48.9 47.2801 47.88C48.3701 46.85 46.9701 43.05 46.3501 45.68C45.7201 48.31 45.7301 47.62 44.8301 48.85C43.9301 50.09 45.7201 49.55 45.7801 50.07Z" fill="#7A7A5C"/>
<path d="M32.81 52.98C33.31 53.28 33.05 56.49 34.46 54.61C35.87 52.73 34.51 51.85 34.51 51.85C34.51 51.85 32.16 51.94 32 50.47C31.85 49 28.02 47.72 29.71 49.83C31.4 51.94 30.86 51.5 31.29 52.96C31.71 54.41 32.36 52.71 32.81 52.98Z" fill="#7A7A5C"/>
<path d="M44.68 30.41C44.75 30.98 42.01 32.77 44.41 32.71C46.81 32.66 46.66 31.04 46.66 31.04C46.66 31.04 45.1 29.24 46.18 28.22C47.27 27.19 45.87 23.39 45.25 26.02C44.62 28.65 44.63 27.96 43.73 29.19C42.83 30.43 44.62 29.89 44.68 30.41Z" fill="#7A7A5C"/>
<path d="M35.7201 29.36C35.8401 29.8 34.36 31.46 35.84 31.17C37.33 30.89 37.0301 29.65 37.0301 29.65C37.0301 29.65 35.8301 28.42 36.3801 27.51C36.9301 26.6 35.5801 23.8 35.5201 25.9C35.4601 28 35.38 27.47 34.98 28.51C34.57 29.57 35.6101 28.97 35.7201 29.36Z" fill="#7A7A5C"/>
<path d="M35.9701 55.17C36.0901 55.61 34.6101 57.27 36.0901 56.98C37.5801 56.7 37.2801 55.46 37.2801 55.46C37.2801 55.46 36.0801 54.23 36.6301 53.32C37.1801 52.41 35.8301 49.61 35.7701 51.71C35.7101 53.81 35.6301 53.28 35.2301 54.32C34.8301 55.38 35.8701 54.78 35.9701 55.17Z" fill="#7A7A5C"/>
<path d="M28.5801 32.63C28.5801 32.63 27.72 33.14 28.45 33.26C29.17 33.38 27.5 34.29 28.25 34.51C29 34.73 29.4601 33.71 29.4601 33.71C29.4601 33.71 29.57 32.77 30.17 33.04C30.77 33.31 30.4 32.36 30.4 32.36C30.4 32.36 29.9001 31.45 28.5801 32.63Z" fill="#3C4537"/>
<path d="M29.57 21.39C29.57 21.39 28.71 21.9 29.44 22.02C30.16 22.14 28.49 23.05 29.24 23.27C29.99 23.49 30.45 22.47 30.45 22.47C30.45 22.47 30.56 21.53 31.16 21.8C31.76 22.07 31.39 21.12 31.39 21.12C31.39 21.12 30.89 20.2 29.57 21.39Z" fill="#3C4537"/>
<path d="M34.24 21.46C34.24 21.46 32.77 22.2 33.89 22.16C35.01 22.13 32.16 23.48 33.3 23.55C34.44 23.62 35.39 22.42 35.39 22.42C35.39 22.42 35.78 21.38 36.66 21.54C37.55 21.7 37.17 20.76 37.17 20.76C37.17 20.76 36.6 19.9 34.24 21.46Z" fill="#3C4537"/>
<path d="M28.82 27.11C28.82 27.11 28.37 27.43 28.79 27.57C29.22 27.71 28.32 28.27 28.77 28.49C29.22 28.71 29.41 27.98 29.41 27.98C29.41 27.98 29.4 27.28 29.77 27.53C30.13 27.78 29.85 27.04 29.85 27.04C29.85 27.04 29.49 26.32 28.82 27.11Z" fill="#3C4537"/>
<path d="M28.9701 28.99C28.9701 28.99 29.4201 30.26 30.5601 29.56C31.7001 28.85 33.2101 28.78 33.2101 28.78C33.2101 28.78 34.8801 28.2 32.6001 27.97C30.3301 27.74 31.6701 27.48 31.6701 27.48C31.6701 27.48 30.4801 26.82 29.3501 27.97C29.3401 27.97 27.4601 27.91 28.9701 28.99Z" fill="#454531"/>
<path d="M35.04 47.56C35.04 47.56 34.8101 43.25 35.3901 44.75C35.9701 46.24 35.6401 46.31 35.6401 46.31C35.6401 46.31 37.0501 45.51 36.6001 46.6C36.1401 47.69 37.3301 50.23 36.6901 49.84C36.0501 49.46 35.9901 46.75 35.7001 47.54C35.4001 48.34 35.04 47.56 35.04 47.56Z" fill="#495443"/>
<path d="M48.01 42.73C49.0262 42.73 49.8501 42.1928 49.8501 41.53C49.8501 40.8673 49.0262 40.33 48.01 40.33C46.9938 40.33 46.17 40.8673 46.17 41.53C46.17 42.1928 46.9938 42.73 48.01 42.73Z" stroke="#595953" stroke-miterlimit="10"/>
<path d="M51.42 39.1H0.900024V41.06H51.42V39.1Z" fill="#2F302D"/>
<path d="M51.8401 39.4901H1.32007V40.6901H51.8401V39.4901Z" fill="#393B37"/>
<path d="M38.82 40.08H23.01V41.52H38.82V40.08Z" fill="#45331B"/>
<path d="M47.96 39.1H51.43C51.43 39.1 59.2 41.82 58.05 39.68L68.77 39.1L69.29 47.11C69.29 47.11 59.45 43.63 57.61 44.37C57.61 44.37 52.7 41.51 47.97 41.52C47.96 41.06 47.96 39.1 47.96 39.1Z" fill="#45331B"/>
<path d="M48.3101 39.47H51.4201C51.4201 39.47 59.3101 42.5 58.5101 40L68.2101 39.65L68.7101 46.15C68.7101 46.15 59.2901 43.33 57.5301 43.93C57.5301 43.93 52.8301 41.14 48.3101 41.15C48.3101 40.76 48.3101 39.47 48.3101 39.47Z" fill="#594223"/>
<path d="M38.48 40.39H23.27V41.24H38.48V40.39Z" fill="#594223"/>
<path d="M40.8801 46.96C43.1389 46.96 44.97 45.402 44.97 43.48C44.97 41.5581 43.1389 40 40.8801 40C38.6212 40 36.79 41.5581 36.79 43.48C36.79 45.402 38.6212 46.96 40.8801 46.96Z" fill="#302E29"/>
<path d="M57.04 20.71C55.92 19.62 48.98 18.56 48.78 25.13C48.78 25.13 50.32 34.85 51.86 36.19C51.86 36.19 49.35 35.17 40.76 39.83C40.76 39.83 39.88 40 39.54 40.24C39.54 40.24 43.1 43.89 40.92 47.13C40.92 47.13 41.5701 46.94 42.4601 46.93C46.6701 46.86 57.73 46.4 62.47 39.11C63.59 37.37 60.23 23.79 57.04 20.71Z" fill="#7B8066"/>
<path d="M39.54 40.23L40.76 39.82C40.76 39.82 44.2801 43.3 42.4601 46.91L40.92 47.11C40.92 47.12 43.03 44.28 39.54 40.23Z" fill="#454739"/>
<path d="M55.5601 30.6901C55.5601 30.6901 57.0601 33.1701 57.4201 31.4001C57.7801 29.6301 59.0301 29.0501 59.0301 29.0501C59.0301 29.0501 59.9601 27.3801 57.8001 27.5601C55.6401 27.7401 56.5701 26.8301 56.5701 26.8301C56.5701 26.8301 54.9801 25.8201 54.9901 28.4901C55.0001 28.4901 53.3201 28.9001 55.5601 30.6901Z" fill="#4F4F38"/>
<path d="M57.9601 31.92C57.9601 31.92 56.65 32.79 57.84 33.13C59.03 33.47 56.46 35.0101 57.7 35.5501C58.94 36.0901 59.54 34.1601 59.54 34.1601C59.54 34.1601 59.58 32.33 60.59 32.95C61.6 33.57 60.8601 31.65 60.8601 31.65C60.8601 31.65 59.9301 29.8 57.9601 31.92Z" fill="#3C4537"/>
<path d="M58.75 36.02C58.75 36.02 57.08 39.41 59.2 38.25C60.07 37.54 60.39 38.94 60.39 38.94C60.39 38.94 62.28 39.16 61.42 37.26C60.56 35.36 59.98 36.9 59.98 36.9C59.98 36.9 58.9 31.48 58.75 36.02Z" fill="#4F4F38"/>
<path d="M62.1401 35.8201C61.4501 34.3101 59.5201 31.7701 59.7501 35.4301C59.7501 35.4301 58.3001 37.6801 60.4501 36.6901" fill="#7A7A5C"/>
<path d="M51.9801 29.36C51.9801 29.36 49.4601 29.19 50.7901 30.69C52.1201 32.19 52.1901 33.76 52.1901 33.76C52.1901 33.76 53.2501 35.74 53.8101 33.54C54.3701 31.35 54.8101 32.83 54.8101 32.83C54.8101 32.83 56.1601 31.95 53.9701 30.24C53.9701 30.24 54.1801 28.36 51.9801 29.36Z" fill="#4F4F38"/>
<path d="M57.7801 36.62C57.7801 36.62 52.4501 38.51 53.6001 36.14C54.7501 33.77 55.3001 34.88 55.3001 34.88C55.3001 34.88 52.3001 30.26 54.3601 31.55C56.4201 32.83 58.1101 28.13 58.4901 30.41C58.8701 32.69 55.3901 33.57 56.8401 34.37C58.3001 35.17 57.7801 36.62 57.7801 36.62Z" fill="#495443"/>
<path d="M53.1701 25.1C53.1701 25.1 54.6701 27.58 55.0301 25.81C55.4001 24.04 56.6401 23.46 56.6401 23.46C56.6401 23.46 57.5701 21.79 55.4101 21.97C53.2501 22.15 54.1801 21.24 54.1801 21.24C54.1801 21.24 52.5901 20.23 52.6001 22.9C52.6001 22.9 50.9201 23.31 53.1701 25.1Z" fill="#4F4F38"/>
<path d="M44.3001 42.75C44.3001 42.75 45.7101 44.01 45.4401 42.72C45.1701 41.43 47.7901 43.92 47.6701 42.54C47.5501 41.16 45.54 40.8 45.54 40.8C45.54 40.8 43.8901 41 43.9501 39.86C44.0201 38.72 42.6601 39.75 42.6601 39.75C42.6601 39.75 41.4601 40.97 44.3001 42.75Z" fill="#3C4537"/>
<path d="M53.0101 27.63C53.0101 27.63 54.4201 28.89 54.1501 27.6C53.8801 26.31 56.5001 28.8 56.3801 27.42C56.2601 26.04 54.2501 25.68 54.2501 25.68C54.2501 25.68 52.6001 25.88 52.6601 24.74C52.7301 23.6 51.3701 24.63 51.3701 24.63C51.3701 24.63 50.1601 25.85 53.0101 27.63Z" fill="#3C4537"/>
<path d="M51.5001 27.64C51.7901 28.16 50.2801 30.56 52.2001 29.87C54.1101 29.18 53.3501 27.71 53.3501 27.71C53.3501 27.71 51.3801 26.44 51.8401 25.19C52.3101 23.94 49.6801 20.75 50.2101 23.38C50.7401 26.01 50.4801 25.36 50.2501 26.76C50.0101 28.16 51.2401 27.18 51.5001 27.64Z" fill="#7A7A5C"/>
<path d="M51.0801 39.4101C51.0801 39.4101 48.5201 37.2901 48.5001 39.6201C48.4801 41.9501 47.0301 43.36 47.0301 43.36C47.0301 43.36 46.2601 45.8901 48.9901 44.4401C51.7201 42.9901 50.7601 44.6201 50.7601 44.6201C50.7601 44.6201 53.0701 44.9201 52.3701 41.7301C52.3801 41.7301 54.4301 40.2701 51.0801 39.4101Z" fill="#4F4F38"/>
<path d="M49.7501 41.98C49.7501 41.98 47.9101 41.13 48.4201 42.45C48.9401 43.77 45.4901 42.02 45.8501 43.49C46.2101 44.96 48.6101 44.61 48.6101 44.61C48.6101 44.61 50.5101 43.76 50.6101 45.04C50.7101 46.32 52.1301 44.67 52.1301 44.67C52.1301 44.67 53.3501 42.87 49.7501 41.98Z" fill="#3C4537"/>
<path d="M49.5501 40.7C48.9901 40.93 46.5501 39.5701 47.1601 41.2301C47.7701 42.8901 49.3601 42.2901 49.3601 42.2901C49.3601 42.2901 50.8201 40.6301 52.1101 41.0701C53.4001 41.5101 56.9201 39.3401 54.1201 39.7201C51.3201 40.1101 52.0201 39.9001 50.5601 39.6501C49.1101 39.4101 50.0601 40.5 49.5501 40.7Z" fill="#7A7A5C"/>
<path d="M53.1301 38.29C53.1301 38.29 50.5201 39.94 52.6001 40.61C54.6901 41.28 55.5501 42.95 55.5501 42.95C55.5501 42.95 57.6101 44.34 57.0601 41.54C56.5201 38.73 57.7101 40.04 57.7101 40.04C57.7101 40.04 58.6201 38.1 55.5601 37.81C55.5601 37.81 54.8301 35.6 53.1301 38.29Z" fill="#4F4F38"/>
<path d="M55.06 40.1901C55.06 40.1901 53.79 41.57 55.11 41.49C56.43 41.41 53.9101 43.93 55.3301 44.04C56.7501 44.15 57.09 41.9401 57.09 41.9401C57.09 41.9401 56.86 40.03 58.03 40.31C59.2 40.58 58.12 38.8701 58.12 38.8701C58.12 38.8701 56.85 37.2801 55.06 40.1901Z" fill="#3C4537"/>
<path d="M53.26 40.1201C53.33 40.6901 50.5901 42.48 52.9901 42.42C55.3901 42.36 55.2401 40.75 55.2401 40.75C55.2401 40.75 53.68 38.95 54.76 37.93C55.84 36.91 54.4501 33.1001 53.8301 35.7301C53.2001 38.3601 53.21 37.67 52.31 38.9C51.4 40.15 53.19 39.6101 53.26 40.1201Z" fill="#7A7A5C"/>
<path d="M60.1601 27.88C60.1601 27.88 58.3101 28.95 57.9401 27.04C57.5701 25.13 58.2701 26.13 58.2701 26.13C58.2701 26.13 54.9801 21.86 56.4901 23.17C58.0001 24.48 56.9601 20.62 58.0501 22.62C59.1401 24.62 57.7901 25.01 58.8201 25.85C59.8501 26.69 60.1601 27.88 60.1601 27.88Z" fill="#495443"/>
<path d="M44.0501 43.74C44.0501 43.74 42.3801 47.13 44.5001 45.97C45.3701 45.26 45.6901 46.6601 45.6901 46.6601C45.6901 46.6601 47.5801 46.8801 46.7201 44.9801C45.8601 43.0801 45.2801 44.6201 45.2801 44.6201C45.2801 44.6201 44.1901 39.2 44.0501 43.74Z" fill="#4F4F38"/>
<path d="M47.1301 37.74C47.1301 37.74 43.3501 37.75 45.3301 39.14C46.3501 39.6 45.2401 40.51 45.2401 40.51C45.2401 40.51 45.8801 42.3 47.2001 40.69C48.5201 39.07 46.8901 39.24 46.8901 39.24C46.8901 39.24 51.2601 35.86 47.1301 37.74Z" fill="#4F4F38"/>
<path d="M59.28 39.01C59.28 39.01 55.5 39.02 57.48 40.41C58.5 40.87 57.39 41.78 57.39 41.78C57.39 41.78 58.03 43.57 59.35 41.96C60.67 40.34 59.04 40.51 59.04 40.51C59.04 40.51 63.41 37.13 59.28 39.01Z" fill="#4F4F38"/>
<path d="M49.83 40C49.83 40 44.52 41.94 46.06 40.62C47.61 39.3 47.89 39.69 47.89 39.69C47.89 39.69 46.0501 38.16 47.6901 38.34C49.3401 38.52 51.8401 36.01 51.7401 36.98C51.6301 37.96 48.2401 39.06 49.4101 39.14C50.5901 39.23 49.83 40 49.83 40Z" fill="#495443"/>
<path d="M60.5901 38.61C60.5901 38.61 59.7301 39.12 60.4601 39.24C61.1801 39.36 59.5101 40.27 60.2601 40.49C61.0101 40.71 61.4701 39.6901 61.4701 39.6901C61.4701 39.6901 61.5801 38.75 62.1801 39.02C62.7801 39.29 62.4101 38.34 62.4101 38.34C62.4101 38.34 61.9201 37.43 60.5901 38.61Z" fill="#3C4537"/>
<path d="M58.9401 29.12C58.9401 29.12 58.0801 29.63 58.8101 29.75C59.5401 29.87 57.8601 30.78 58.6101 31C59.3601 31.22 59.8201 30.2 59.8201 30.2C59.8201 30.2 59.9301 29.26 60.5301 29.53C61.1301 29.8 60.7601 28.85 60.7601 28.85C60.7601 28.85 60.2701 27.93 58.9401 29.12Z" fill="#3C4537"/>
<path d="M49.4401 23.54C49.4401 23.54 48.5801 24.05 49.3101 24.17C50.0401 24.29 48.3601 25.2 49.1101 25.42C49.8601 25.64 50.3201 24.62 50.3201 24.62C50.3201 24.62 50.4301 23.68 51.0301 23.95C51.6301 24.22 51.2601 23.27 51.2601 23.27C51.2601 23.27 50.7701 22.36 49.4401 23.54Z" fill="#3C4537"/>
<path d="M31.4901 9.47001C31.4901 9.47001 38.3 8.52001 41.01 9.92001C41.01 9.92001 44.1801 7.23001 45.2101 7.41001C46.2401 7.59001 47.48 7.55001 47.48 7.55001C47.48 7.55001 47.8901 3.05001 46.5701 1.32001C45.2501 -0.40999 36.41 -0.52999 34.56 2.37001C34.56 2.37001 33.89 4.11001 34.68 6.11001C34.67 6.10001 31.8101 8.29001 31.4901 9.47001Z" fill="#666A55"/>
<path d="M34.95 5.95998C34.95 5.95998 41.55 5.39998 43.53 6.21998C43.53 6.21998 44.44 3.47998 43.82 2.22998C43.82 2.22998 36.83 3.14998 34.96 2.55998C34.95 2.55998 34.21 3.94998 34.95 5.95998Z" fill="#71755E"/>
<path d="M47.1901 7.19002C47.1901 7.19002 47.4301 2.93002 46.4401 1.77002C46.4401 1.77002 44.9001 2.36002 44.2001 2.23002C44.5301 2.67002 44.5601 4.48002 43.9301 6.22002C43.9301 6.17002 44.7101 6.75002 45.1401 7.10002C45.3201 7.25002 47.1901 7.19002 47.1901 7.19002Z" fill="#606350"/>
</svg>
