<svg width="610" height="346" viewBox="0 0 610 346" fill="none" xmlns="http://www.w3.org/2000/svg">
<path d="M605.29 212.1C598.74 284.56 476.53 341.79 306.81 341.79C137.09 341.79 12.3 284.94 4.88998 207.1C1.45998 171.08 47.36 142.96 72.94 132.15C123.11 110.94 154.58 110.94 196.47 105.53C242.41 99.6 349.32 99.55 413.04 106.46C434.26 108.76 487.94 110.93 547.46 142.27C571.63 155 608.23 179.54 605.29 212.1Z" stroke="white" stroke-width="8" stroke-miterlimit="10"/>
<path opacity="0.54" d="M603.78 205.79C602.57 240.61 576.33 276.53 501.54 306.99C447.36 329.05 379.16 338.74 305.08 338.74C207.7 338.74 121.73 318.75 63.05 283.06C14.32 253.42 3.06 213.86 6.3 191.05C19.37 99.04 128.77 3.39996 305.11 3.39996C481.45 3.39996 607.01 112.91 603.78 205.79Z" fill="#E6E7E8"/>
<path opacity="0.56" d="M247.03 101.96C246.68 58.02 277.66 2.41 288.82 3.4C335.45 7.53 396.48 94.65 370.2 339" stroke="white" stroke-width="2" stroke-miterlimit="10"/>
<path opacity="0.56" d="M289.91 3.13995C245.75 3.13995 57.59 56.2099 89.46 301.38" stroke="white" stroke-width="2" stroke-miterlimit="10"/>
<path opacity="0.56" d="M336.52 100.95C334.14 24.0499 298.72 3.82994 293.15 3.30994C269.85 1.13994 184.15 87.6899 212.76 332.86" stroke="white" stroke-width="2" stroke-miterlimit="10"/>
<path opacity="0.56" d="M294.29 3.39996C361.74 3.39996 544.56 60.04 512.7 305.21" stroke="white" stroke-width="2" stroke-miterlimit="10"/>
<path opacity="0.56" d="M184.25 103.96C197.27 45 258.37 3.13995 289.91 3.13995" stroke="white" stroke-width="2" stroke-miterlimit="10"/>
<path opacity="0.56" d="M88.49 125.73C101.5 66.77 198.58 7.97995 289.91 3.13995" stroke="white" stroke-width="2" stroke-miterlimit="10"/>
<path opacity="0.56" d="M413.03 106.46C400.02 47.5 336.52 4.56995 289.91 3.13995" stroke="white" stroke-width="2" stroke-miterlimit="10"/>
<path d="M4.01999 195.6C17.03 136.64 81.54 12.7699 289.91 3.12994" stroke="white" stroke-width="2" stroke-miterlimit="10"/>
<path opacity="0.56" d="M514.16 127.49C501.15 68.5299 417.32 9.23994 289.91 3.12994" stroke="white" stroke-width="2" stroke-miterlimit="10"/>
<path d="M603.89 194.39C590.88 135.43 517.63 -0.120033 294.29 3.39997" stroke="white" stroke-width="2" stroke-miterlimit="10"/>
<path opacity="0.56" d="M291.09 99.97C291.09 50.22 291.09 5.48 293.16 3.31" stroke="white" stroke-width="2" stroke-miterlimit="10"/>
<path opacity="0.56" d="M583.85 157.31C577.78 219.15 464.43 267.99 307.03 267.99C149.63 267.99 33.89 219.48 27.02 153.04C23.84 122.3 66.41 98.3 90.13 89.08C136.66 70.98 165.84 70.98 204.7 66.36C247.31 61.3 346.46 61.26 405.55 67.16C425.23 69.12 475.01 70.98 530.22 97.72C552.64 108.58 586.58 129.52 583.85 157.31Z" stroke="white" stroke-width="2" stroke-miterlimit="10"/>
<path opacity="0.56" d="M512.46 72.57C507.95 103.07 423.87 127.16 307.11 127.16C190.35 127.16 104.49 103.23 99.39 70.47C97.03 55.31 128.61 43.47 146.21 38.92C180.73 29.99 202.38 29.99 231.2 27.72C262.81 25.22 336.36 25.2 380.2 28.11C394.8 29.08 431.73 29.99 472.68 43.18C489.31 48.54 514.49 58.87 512.46 72.57Z" stroke="white" stroke-width="2" stroke-miterlimit="10"/>
<path d="M5.63 194.94C18.64 135.98 83.15 12.11 291.52 2.46997" stroke="white" stroke-width="3" stroke-miterlimit="10"/>
<path d="M603.89 194.39C590.88 135.43 514.82 -0.920041 291.49 2.59996" stroke="white" stroke-width="3" stroke-miterlimit="10"/>
<path d="M291.51 2.46997C336.52 11.22 396.18 94.47 369.9 338.82" stroke="white" stroke-width="3" stroke-miterlimit="10"/>
</svg>
